<?xml version="1.0" encoding="utf-8"?>
<!-- Generator: Adobe Illustrator 22.0.1, SVG Export Plug-In . SVG Version: 6.00 Build 0)  -->
<svg version="1.1" xmlns="http://www.w3.org/2000/svg" xmlns:xlink="http://www.w3.org/1999/xlink" x="0px" y="0px"
	 viewBox="0 0 560 114.5" style="enable-background:new 0 0 560 114.5;" xml:space="preserve">
<style type="text/css">
	.st0{fill:#3D3935;}
	.st1{fill:#BE933C;}
	.st2{fill:#C7C8CB;}
	.st3{fill:#FFFFFF;}
	.st4{fill:none;stroke:#3D3935;stroke-miterlimit:10;}
	.st5{fill:#231F20;}
	.st6{fill:#00A3D8;}
</style>
<g id="bg">
</g>
<g id="Layer_4">
	<rect x="-0.3" class="st1" width="560.8" height="26"/>
	<rect x="-0.3" y="26" class="st2" width="560.8" height="26"/>
	<rect x="-0.3" y="52" class="st3" width="560.8" height="62.5"/>
	<g>
		<line class="st4" x1="-21.6" y1="26" x2="565.8" y2="26"/>
		<line class="st4" x1="-21.6" y1="52" x2="565.8" y2="52"/>
		<line class="st4" x1="-21.6" y1="114.5" x2="565.8" y2="114.5"/>
		<line class="st4" x1="-21.6" y1="0" x2="565.8" y2="0"/>
		<line class="st4" x1="-0.3" y1="-30.3" x2="-0.3" y2="136.3"/>
		<line class="st4" x1="139.9" y1="-30.3" x2="139.9" y2="136.3"/>
		<line class="st4" x1="280" y1="-30.3" x2="280" y2="136.3"/>
		<line class="st4" x1="420.2" y1="-30.3" x2="420.2" y2="136.3"/>
		<line class="st4" x1="560.4" y1="-30.3" x2="560.4" y2="136.3"/>
	</g>
</g>
<g id="Layer_3">
	<g>
		<path class="st5" d="M16.5,34.5h1.2v5.2c0,0.9-0.1,1.6-0.3,2.1s-0.6,1-1.1,1.3c-0.5,0.3-1.2,0.5-2.1,0.5c-0.8,0-1.5-0.1-2.1-0.4
			c-0.5-0.3-0.9-0.7-1.1-1.3c-0.2-0.5-0.3-1.3-0.3-2.2v-5.2h1.2v5.2c0,0.8,0.1,1.3,0.2,1.7c0.1,0.4,0.4,0.7,0.7,0.9s0.8,0.3,1.3,0.3
			c0.9,0,1.5-0.2,1.9-0.6c0.4-0.4,0.6-1.2,0.6-2.3V34.5z"/>
		<path class="st5" d="M19.5,45.9v-9h1v0.8c0.2-0.3,0.5-0.6,0.8-0.7c0.3-0.2,0.7-0.2,1.1-0.2c0.6,0,1,0.1,1.5,0.4
			c0.4,0.3,0.7,0.7,1,1.2c0.2,0.5,0.3,1.1,0.3,1.7c0,0.7-0.1,1.3-0.4,1.8c-0.2,0.5-0.6,0.9-1,1.2c-0.5,0.3-0.9,0.4-1.4,0.4
			c-0.4,0-0.7-0.1-1-0.2c-0.3-0.2-0.5-0.3-0.7-0.6v3.2H19.5z M20.5,40.2c0,0.8,0.2,1.5,0.5,1.8c0.3,0.4,0.7,0.6,1.2,0.6
			c0.5,0,0.9-0.2,1.3-0.6c0.3-0.4,0.5-1.1,0.5-1.9c0-0.8-0.2-1.4-0.5-1.9c-0.3-0.4-0.7-0.6-1.2-0.6c-0.5,0-0.9,0.2-1.2,0.7
			C20.7,38.8,20.5,39.4,20.5,40.2z"/>
		<path class="st5" d="M32.3,42.5l0.2,1c-0.3,0.1-0.6,0.1-0.8,0.1c-0.4,0-0.7-0.1-0.9-0.2s-0.4-0.3-0.5-0.5
			c-0.1-0.2-0.1-0.6-0.1-1.3v-3.7h-0.8V37h0.8v-1.6l1.1-0.7V37h1.1v0.9h-1.1v3.8c0,0.3,0,0.5,0.1,0.6c0,0.1,0.1,0.2,0.2,0.2
			c0.1,0.1,0.2,0.1,0.4,0.1C32,42.5,32.1,42.5,32.3,42.5z"/>
		<path class="st5" d="M33,40.2c0-1.2,0.3-2.1,1-2.7c0.6-0.5,1.2-0.7,2-0.7c0.9,0,1.6,0.3,2.2,0.9c0.6,0.6,0.8,1.4,0.8,2.4
			c0,0.8-0.1,1.5-0.4,2c-0.3,0.5-0.6,0.8-1.1,1.1s-1,0.4-1.6,0.4c-0.9,0-1.6-0.3-2.2-0.9C33.3,42.1,33,41.3,33,40.2z M34.1,40.2
			c0,0.8,0.2,1.5,0.5,1.9s0.8,0.6,1.4,0.6c0.5,0,1-0.2,1.4-0.6c0.4-0.4,0.5-1,0.5-1.9c0-0.8-0.2-1.4-0.5-1.8s-0.8-0.6-1.4-0.6
			c-0.5,0-1,0.2-1.4,0.6S34.1,39.4,34.1,40.2z"/>
		<path class="st5" d="M43.6,35.7v-1.1h5.8v0.9c-0.6,0.6-1.1,1.4-1.7,2.4s-1,2-1.3,3.1c-0.2,0.7-0.4,1.6-0.4,2.5h-1.1
			c0-0.7,0.2-1.6,0.4-2.6c0.3-1,0.6-2,1.1-2.9c0.5-0.9,1-1.7,1.6-2.3H43.6z"/>
		<path class="st5" d="M52.7,43.5l3.4-8.9h1.3l3.7,8.9h-1.3l-1-2.7H55l-1,2.7H52.7z M55.3,39.8h3l-0.9-2.5c-0.3-0.8-0.5-1.4-0.6-1.9
			c-0.1,0.6-0.3,1.1-0.5,1.7L55.3,39.8z"/>
		<path class="st5" d="M61.9,43.5v-8.9H63v8.9H61.9z"/>
		<path class="st5" d="M64.7,35.8v-1.3h1.1v1.3H64.7z M64.7,43.5V37h1.1v6.5H64.7z"/>
		<path class="st5" d="M67.3,44l1.1,0.2c0,0.3,0.2,0.6,0.4,0.7c0.3,0.2,0.6,0.3,1.1,0.3c0.5,0,0.9-0.1,1.2-0.3s0.5-0.5,0.6-0.9
			c0.1-0.2,0.1-0.7,0.1-1.4c-0.5,0.6-1.1,0.8-1.8,0.8c-0.9,0-1.6-0.3-2.1-1c-0.5-0.6-0.7-1.4-0.7-2.3c0-0.6,0.1-1.2,0.3-1.7
			c0.2-0.5,0.5-0.9,1-1.2s0.9-0.4,1.5-0.4c0.8,0,1.4,0.3,1.9,0.9V37h1v5.6c0,1-0.1,1.7-0.3,2.1c-0.2,0.4-0.5,0.8-1,1
			c-0.4,0.2-1,0.4-1.6,0.4c-0.8,0-1.4-0.2-1.9-0.5C67.5,45.2,67.2,44.7,67.3,44z M68.2,40.1c0,0.9,0.2,1.5,0.5,1.9s0.8,0.6,1.3,0.6
			c0.5,0,0.9-0.2,1.3-0.6s0.5-1,0.5-1.8c0-0.8-0.2-1.4-0.5-1.8c-0.4-0.4-0.8-0.6-1.3-0.6c-0.5,0-0.9,0.2-1.2,0.6
			S68.2,39.3,68.2,40.1z"/>
		<path class="st5" d="M74.4,43.5V37h1v0.9c0.5-0.7,1.2-1.1,2.1-1.1c0.4,0,0.7,0.1,1.1,0.2c0.3,0.1,0.6,0.3,0.7,0.6
			c0.2,0.2,0.3,0.5,0.3,0.8c0,0.2,0.1,0.6,0.1,1.1v4h-1.1v-3.9c0-0.4,0-0.8-0.1-1c-0.1-0.2-0.2-0.4-0.5-0.5
			c-0.2-0.1-0.5-0.2-0.8-0.2c-0.5,0-0.9,0.1-1.2,0.4s-0.5,0.9-0.5,1.7v3.5H74.4z"/>
		<path class="st5" d="M85.8,41.4l1.1,0.1c-0.2,0.7-0.5,1.2-1,1.5c-0.5,0.4-1.1,0.5-1.9,0.5c-0.9,0-1.7-0.3-2.3-0.9
			c-0.6-0.6-0.8-1.4-0.8-2.5c0-1.1,0.3-1.9,0.8-2.5c0.6-0.6,1.3-0.9,2.2-0.9c0.9,0,1.6,0.3,2.1,0.9c0.5,0.6,0.8,1.4,0.8,2.5
			c0,0.1,0,0.2,0,0.3h-4.8c0,0.7,0.2,1.3,0.6,1.6c0.4,0.4,0.8,0.6,1.4,0.6c0.4,0,0.7-0.1,1-0.3C85.4,42.2,85.6,41.8,85.8,41.4z
			 M82.2,39.6h3.6c0-0.5-0.2-1-0.4-1.2c-0.4-0.4-0.8-0.6-1.4-0.6c-0.5,0-0.9,0.2-1.3,0.5S82.2,39,82.2,39.6z"/>
		<path class="st5" d="M88.3,43.5V37h1v1c0.3-0.5,0.5-0.8,0.7-0.9c0.2-0.1,0.4-0.2,0.7-0.2c0.4,0,0.7,0.1,1.1,0.4l-0.4,1
			C91.2,38,90.9,38,90.6,38c-0.2,0-0.5,0.1-0.6,0.2s-0.3,0.3-0.4,0.6c-0.1,0.4-0.2,0.8-0.2,1.3v3.4H88.3z"/>
		<path class="st5" d="M92,41.5l1.1-0.2c0.1,0.4,0.2,0.8,0.5,1c0.3,0.2,0.7,0.3,1.2,0.3c0.5,0,0.9-0.1,1.1-0.3
			c0.2-0.2,0.4-0.4,0.4-0.7c0-0.2-0.1-0.4-0.3-0.6c-0.2-0.1-0.5-0.2-1.1-0.4c-0.8-0.2-1.4-0.4-1.7-0.5c-0.3-0.1-0.5-0.4-0.7-0.6
			c-0.2-0.3-0.2-0.6-0.2-0.9c0-0.3,0.1-0.6,0.2-0.8c0.1-0.2,0.3-0.5,0.5-0.6c0.2-0.1,0.4-0.2,0.7-0.3s0.6-0.1,0.9-0.1
			c0.5,0,1,0.1,1.3,0.2c0.4,0.1,0.7,0.3,0.9,0.6c0.2,0.3,0.3,0.6,0.4,1l-1.1,0.1c0-0.3-0.2-0.6-0.4-0.8c-0.2-0.2-0.6-0.3-1-0.3
			c-0.5,0-0.9,0.1-1.1,0.3s-0.3,0.4-0.3,0.6c0,0.1,0,0.3,0.1,0.4c0.1,0.1,0.2,0.2,0.4,0.3c0.1,0,0.4,0.1,1,0.3
			c0.8,0.2,1.3,0.4,1.6,0.5c0.3,0.1,0.5,0.3,0.7,0.6c0.2,0.3,0.3,0.6,0.3,0.9c0,0.4-0.1,0.7-0.3,1c-0.2,0.3-0.5,0.6-0.9,0.8
			c-0.4,0.2-0.9,0.3-1.4,0.3c-0.8,0-1.5-0.2-1.9-0.5C92.4,42.7,92.2,42.2,92,41.5z"/>
	</g>
	<g>
		<path class="st5" d="M10.6,78.5v-8.9h1.2l4.7,7v-7h1.1v8.9h-1.2l-4.7-7v7H10.6z"/>
		<path class="st5" d="M19.1,75.3c0-1.2,0.3-2.1,1-2.7c0.6-0.5,1.2-0.7,2-0.7c0.9,0,1.6,0.3,2.2,0.9c0.6,0.6,0.8,1.4,0.8,2.4
			c0,0.8-0.1,1.5-0.4,2c-0.3,0.5-0.6,0.8-1.1,1.1s-1,0.4-1.6,0.4c-0.9,0-1.6-0.3-2.2-0.9C19.4,77.2,19.1,76.4,19.1,75.3z M20.2,75.3
			c0,0.8,0.2,1.5,0.5,1.9s0.8,0.6,1.4,0.6c0.5,0,1-0.2,1.4-0.6c0.4-0.4,0.5-1,0.5-1.9c0-0.8-0.2-1.4-0.5-1.8s-0.8-0.6-1.4-0.6
			c-0.5,0-1,0.2-1.4,0.6S20.2,74.5,20.2,75.3z"/>
		<path class="st5" d="M34.2,77.7c-0.4,0.3-0.8,0.6-1.2,0.7c-0.4,0.1-0.8,0.2-1.2,0.2c-0.7,0-1.3-0.2-1.6-0.5
			c-0.4-0.3-0.6-0.8-0.6-1.3c0-0.3,0.1-0.6,0.2-0.9c0.1-0.3,0.3-0.5,0.6-0.6c0.2-0.2,0.5-0.3,0.8-0.4c0.2-0.1,0.5-0.1,1-0.2
			c0.9-0.1,1.5-0.2,2-0.4c0-0.2,0-0.2,0-0.3c0-0.4-0.1-0.8-0.3-0.9c-0.3-0.2-0.7-0.4-1.3-0.4c-0.5,0-0.9,0.1-1.1,0.3s-0.4,0.5-0.5,1
			l-1.1-0.1c0.1-0.5,0.3-0.8,0.5-1.1c0.2-0.3,0.5-0.5,1-0.7c0.4-0.2,0.9-0.2,1.5-0.2c0.6,0,1,0.1,1.3,0.2c0.3,0.1,0.6,0.3,0.8,0.5
			s0.3,0.4,0.3,0.7c0,0.2,0.1,0.5,0.1,1v1.5c0,1,0,1.7,0.1,1.9s0.1,0.5,0.3,0.8h-1.1C34.3,78.3,34.2,78,34.2,77.7z M34.1,75.3
			c-0.4,0.2-1,0.3-1.8,0.4c-0.5,0.1-0.8,0.1-1,0.2c-0.2,0.1-0.3,0.2-0.4,0.4c-0.1,0.2-0.2,0.3-0.2,0.5c0,0.3,0.1,0.5,0.3,0.7
			s0.5,0.3,1,0.3c0.4,0,0.8-0.1,1.1-0.3c0.3-0.2,0.6-0.4,0.7-0.8c0.1-0.2,0.2-0.6,0.2-1.1V75.3z"/>
		<path class="st5" d="M41.1,78.5v-0.8c-0.4,0.6-1,1-1.8,1c-0.5,0-1-0.1-1.4-0.4c-0.4-0.3-0.8-0.7-1-1.2c-0.2-0.5-0.4-1.1-0.4-1.8
			c0-0.6,0.1-1.2,0.3-1.8c0.2-0.5,0.5-0.9,1-1.2c0.4-0.3,0.9-0.4,1.4-0.4c0.4,0,0.7,0.1,1,0.2c0.3,0.2,0.6,0.4,0.7,0.6v-3.2h1.1v8.9
			H41.1z M37.6,75.3c0,0.8,0.2,1.5,0.5,1.9c0.4,0.4,0.8,0.6,1.2,0.6c0.5,0,0.9-0.2,1.2-0.6c0.3-0.4,0.5-1,0.5-1.8
			c0-0.9-0.2-1.5-0.5-2s-0.8-0.6-1.3-0.6c-0.5,0-0.9,0.2-1.2,0.6C37.8,73.8,37.6,74.5,37.6,75.3z"/>
		<path class="st5" d="M48.1,78.5v-0.8c-0.4,0.6-1,1-1.8,1c-0.5,0-1-0.1-1.4-0.4c-0.4-0.3-0.8-0.7-1-1.2c-0.2-0.5-0.4-1.1-0.4-1.8
			c0-0.6,0.1-1.2,0.3-1.8c0.2-0.5,0.5-0.9,1-1.2c0.4-0.3,0.9-0.4,1.4-0.4c0.4,0,0.7,0.1,1,0.2c0.3,0.2,0.6,0.4,0.7,0.6v-3.2h1.1v8.9
			H48.1z M44.6,75.3c0,0.8,0.2,1.5,0.5,1.9c0.4,0.4,0.8,0.6,1.2,0.6c0.5,0,0.9-0.2,1.2-0.6c0.3-0.4,0.5-1,0.5-1.8
			c0-0.9-0.2-1.5-0.5-2s-0.8-0.6-1.3-0.6c-0.5,0-0.9,0.2-1.2,0.6C44.7,73.8,44.6,74.5,44.6,75.3z"/>
		<path class="st5" d="M50.8,70.9v-1.3h1.1v1.3H50.8z M50.8,78.5v-6.5h1.1v6.5H50.8z"/>
		<path class="st5" d="M56,77.6l0.2,1c-0.3,0.1-0.6,0.1-0.8,0.1c-0.4,0-0.7-0.1-0.9-0.2s-0.4-0.3-0.5-0.5c-0.1-0.2-0.1-0.6-0.1-1.3
			v-3.7H53v-0.9h0.8v-1.6l1.1-0.7v2.3H56v0.9h-1.1v3.8c0,0.3,0,0.5,0.1,0.6c0,0.1,0.1,0.2,0.2,0.2c0.1,0.1,0.2,0.1,0.4,0.1
			C55.6,77.6,55.8,77.6,56,77.6z"/>
		<path class="st5" d="M57.1,70.9v-1.3h1.1v1.3H57.1z M57.1,78.5v-6.5h1.1v6.5H57.1z"/>
		<path class="st5" d="M59.4,75.3c0-1.2,0.3-2.1,1-2.7c0.6-0.5,1.2-0.7,2-0.7c0.9,0,1.6,0.3,2.2,0.9c0.6,0.6,0.8,1.4,0.8,2.4
			c0,0.8-0.1,1.5-0.4,2c-0.3,0.5-0.6,0.8-1.1,1.1c-0.5,0.3-1,0.4-1.6,0.4c-0.9,0-1.6-0.3-2.2-0.9C59.7,77.2,59.4,76.4,59.4,75.3z
			 M60.5,75.3c0,0.8,0.2,1.5,0.5,1.9s0.8,0.6,1.4,0.6c0.5,0,1-0.2,1.4-0.6c0.4-0.4,0.5-1,0.5-1.9c0-0.8-0.2-1.4-0.5-1.8
			c-0.4-0.4-0.8-0.6-1.4-0.6c-0.5,0-1,0.2-1.4,0.6S60.5,74.5,60.5,75.3z"/>
		<path class="st5" d="M66.8,78.5v-6.5h1V73c0.5-0.7,1.2-1.1,2.1-1.1c0.4,0,0.7,0.1,1.1,0.2c0.3,0.1,0.6,0.3,0.7,0.6
			c0.2,0.2,0.3,0.5,0.3,0.8c0,0.2,0.1,0.6,0.1,1.1v4h-1.1v-3.9c0-0.4,0-0.8-0.1-1c-0.1-0.2-0.2-0.4-0.5-0.5
			c-0.2-0.1-0.5-0.2-0.8-0.2c-0.5,0-0.9,0.1-1.2,0.4s-0.5,0.9-0.5,1.7v3.5H66.8z"/>
		<path class="st5" d="M78,77.7c-0.4,0.3-0.8,0.6-1.2,0.7c-0.4,0.1-0.8,0.2-1.2,0.2c-0.7,0-1.3-0.2-1.6-0.5
			c-0.4-0.3-0.6-0.8-0.6-1.3c0-0.3,0.1-0.6,0.2-0.9c0.1-0.3,0.3-0.5,0.6-0.6c0.2-0.2,0.5-0.3,0.8-0.4c0.2-0.1,0.5-0.1,1-0.2
			c0.9-0.1,1.5-0.2,2-0.4c0-0.2,0-0.2,0-0.3c0-0.4-0.1-0.8-0.3-0.9c-0.3-0.2-0.7-0.4-1.3-0.4c-0.5,0-0.9,0.1-1.1,0.3s-0.4,0.5-0.5,1
			l-1.1-0.1c0.1-0.5,0.3-0.8,0.5-1.1c0.2-0.3,0.5-0.5,1-0.7c0.4-0.2,0.9-0.2,1.5-0.2c0.6,0,1,0.1,1.3,0.2c0.3,0.1,0.6,0.3,0.8,0.5
			s0.3,0.4,0.3,0.7c0,0.2,0.1,0.5,0.1,1v1.5c0,1,0,1.7,0.1,1.9s0.1,0.5,0.3,0.8h-1.1C78.1,78.3,78,78,78,77.7z M77.9,75.3
			c-0.4,0.2-1,0.3-1.8,0.4c-0.5,0.1-0.8,0.1-1,0.2c-0.2,0.1-0.3,0.2-0.4,0.4c-0.1,0.2-0.2,0.3-0.2,0.5c0,0.3,0.1,0.5,0.3,0.7
			s0.5,0.3,1,0.3c0.4,0,0.8-0.1,1.1-0.3c0.3-0.2,0.6-0.4,0.7-0.8c0.1-0.2,0.2-0.6,0.2-1.1V75.3z"/>
		<path class="st5" d="M80.7,78.5v-8.9h1.1v8.9H80.7z"/>
		<path class="st5" d="M14.7,92.7c-0.4,0.3-0.8,0.6-1.2,0.7c-0.4,0.1-0.8,0.2-1.2,0.2c-0.7,0-1.3-0.2-1.6-0.5
			c-0.4-0.3-0.6-0.8-0.6-1.3c0-0.3,0.1-0.6,0.2-0.9c0.1-0.3,0.3-0.5,0.6-0.6c0.2-0.2,0.5-0.3,0.8-0.4c0.2-0.1,0.5-0.1,1-0.2
			c0.9-0.1,1.5-0.2,2-0.4c0-0.2,0-0.2,0-0.3c0-0.4-0.1-0.8-0.3-0.9c-0.3-0.2-0.7-0.4-1.3-0.4c-0.5,0-0.9,0.1-1.1,0.3s-0.4,0.5-0.5,1
			l-1.1-0.1c0.1-0.5,0.3-0.8,0.5-1.1c0.2-0.3,0.5-0.5,1-0.7c0.4-0.2,0.9-0.2,1.5-0.2c0.6,0,1,0.1,1.3,0.2c0.3,0.1,0.6,0.3,0.8,0.5
			s0.3,0.4,0.3,0.7c0,0.2,0.1,0.5,0.1,1v1.5c0,1,0,1.7,0.1,1.9s0.1,0.5,0.3,0.8h-1.1C14.8,93.3,14.8,93,14.7,92.7z M14.6,90.3
			c-0.4,0.2-1,0.3-1.8,0.4c-0.5,0.1-0.8,0.1-1,0.2c-0.2,0.1-0.3,0.2-0.4,0.4c-0.1,0.2-0.2,0.3-0.2,0.5c0,0.3,0.1,0.5,0.3,0.7
			s0.5,0.3,1,0.3c0.4,0,0.8-0.1,1.1-0.3c0.3-0.2,0.6-0.4,0.7-0.8c0.1-0.2,0.2-0.6,0.2-1.1V90.3z"/>
		<path class="st5" d="M17.4,93.5v-8.9h1.1v8.9H17.4z"/>
		<path class="st5" d="M20.2,85.9v-1.3h1.1v1.3H20.2z M20.2,93.5v-6.5h1.1v6.5H20.2z"/>
		<path class="st5" d="M22.8,94.1l1.1,0.2c0,0.3,0.2,0.6,0.4,0.7c0.3,0.2,0.6,0.3,1.1,0.3c0.5,0,0.9-0.1,1.2-0.3s0.5-0.5,0.6-0.9
			c0.1-0.2,0.1-0.7,0.1-1.4c-0.5,0.6-1.1,0.8-1.8,0.8c-0.9,0-1.6-0.3-2.1-1c-0.5-0.6-0.7-1.4-0.7-2.3c0-0.6,0.1-1.2,0.3-1.7
			c0.2-0.5,0.5-0.9,1-1.2s0.9-0.4,1.5-0.4c0.8,0,1.4,0.3,1.9,0.9v-0.8h1v5.6c0,1-0.1,1.7-0.3,2.1c-0.2,0.4-0.5,0.8-1,1
			c-0.4,0.2-1,0.4-1.6,0.4c-0.8,0-1.4-0.2-1.9-0.5C23,95.3,22.8,94.8,22.8,94.1z M23.7,90.2c0,0.9,0.2,1.5,0.5,1.9s0.8,0.6,1.3,0.6
			c0.5,0,0.9-0.2,1.3-0.6s0.5-1,0.5-1.8c0-0.8-0.2-1.4-0.5-1.8c-0.4-0.4-0.8-0.6-1.3-0.6c-0.5,0-0.9,0.2-1.2,0.6
			S23.7,89.4,23.7,90.2z"/>
		<path class="st5" d="M29.9,93.5v-6.5h1V88c0.5-0.7,1.2-1.1,2.1-1.1c0.4,0,0.7,0.1,1.1,0.2c0.3,0.1,0.6,0.3,0.7,0.6
			c0.2,0.2,0.3,0.5,0.3,0.8c0,0.2,0.1,0.6,0.1,1.1v4h-1.1v-3.9c0-0.4,0-0.8-0.1-1c-0.1-0.2-0.2-0.4-0.5-0.5
			c-0.2-0.1-0.5-0.2-0.8-0.2c-0.5,0-0.9,0.1-1.2,0.4S31,89.2,31,90v3.5H29.9z"/>
		<path class="st5" d="M41.3,91.5l1.1,0.1c-0.2,0.7-0.5,1.2-1,1.5c-0.5,0.4-1.1,0.5-1.9,0.5c-0.9,0-1.7-0.3-2.3-0.9
			c-0.6-0.6-0.8-1.4-0.8-2.5c0-1.1,0.3-1.9,0.8-2.5c0.6-0.6,1.3-0.9,2.2-0.9c0.9,0,1.6,0.3,2.1,0.9c0.5,0.6,0.8,1.4,0.8,2.5
			c0,0.1,0,0.2,0,0.3h-4.8c0,0.7,0.2,1.3,0.6,1.6c0.4,0.4,0.8,0.6,1.4,0.6c0.4,0,0.7-0.1,1-0.3C40.9,92.3,41.2,91.9,41.3,91.5z
			 M37.7,89.7h3.6c0-0.5-0.2-1-0.4-1.2c-0.4-0.4-0.8-0.6-1.4-0.6c-0.5,0-0.9,0.2-1.3,0.5S37.8,89.1,37.7,89.7z"/>
		<path class="st5" d="M43.8,93.5v-6.5h1v1c0.3-0.5,0.5-0.8,0.7-0.9c0.2-0.1,0.4-0.2,0.7-0.2c0.4,0,0.7,0.1,1.1,0.4l-0.4,1
			c-0.3-0.2-0.5-0.2-0.8-0.2c-0.2,0-0.5,0.1-0.6,0.2s-0.3,0.3-0.4,0.6c-0.1,0.4-0.2,0.8-0.2,1.3v3.4H43.8z"/>
		<path class="st5" d="M47.6,91.6l1.1-0.2c0.1,0.4,0.2,0.8,0.5,1c0.3,0.2,0.7,0.3,1.2,0.3c0.5,0,0.9-0.1,1.1-0.3
			c0.2-0.2,0.4-0.4,0.4-0.7c0-0.2-0.1-0.4-0.3-0.6c-0.2-0.1-0.5-0.2-1.1-0.4c-0.8-0.2-1.4-0.4-1.7-0.5c-0.3-0.1-0.5-0.4-0.7-0.6
			c-0.2-0.3-0.2-0.6-0.2-0.9c0-0.3,0.1-0.6,0.2-0.8c0.1-0.2,0.3-0.5,0.5-0.6c0.2-0.1,0.4-0.2,0.7-0.3s0.6-0.1,0.9-0.1
			c0.5,0,1,0.1,1.3,0.2c0.4,0.1,0.7,0.3,0.9,0.6c0.2,0.3,0.3,0.6,0.4,1l-1.1,0.1c0-0.3-0.2-0.6-0.4-0.8c-0.2-0.2-0.6-0.3-1-0.3
			c-0.5,0-0.9,0.1-1.1,0.3s-0.3,0.4-0.3,0.6c0,0.1,0,0.3,0.1,0.4c0.1,0.1,0.2,0.2,0.4,0.3c0.1,0,0.4,0.1,1,0.3
			c0.8,0.2,1.3,0.4,1.6,0.5c0.3,0.1,0.5,0.3,0.7,0.6c0.2,0.3,0.3,0.6,0.3,0.9c0,0.4-0.1,0.7-0.3,1c-0.2,0.3-0.5,0.6-0.9,0.8
			c-0.4,0.2-0.9,0.3-1.4,0.3c-0.8,0-1.5-0.2-1.9-0.5C48,92.8,47.7,92.3,47.6,91.6z"/>
		<path class="st5" d="M62,92.7c-0.4,0.3-0.8,0.6-1.2,0.7c-0.4,0.1-0.8,0.2-1.2,0.2c-0.7,0-1.3-0.2-1.6-0.5
			c-0.4-0.3-0.6-0.8-0.6-1.3c0-0.3,0.1-0.6,0.2-0.9c0.1-0.3,0.3-0.5,0.6-0.6c0.2-0.2,0.5-0.3,0.8-0.4c0.2-0.1,0.5-0.1,1-0.2
			c0.9-0.1,1.5-0.2,2-0.4c0-0.2,0-0.2,0-0.3c0-0.4-0.1-0.8-0.3-0.9c-0.3-0.2-0.7-0.4-1.3-0.4c-0.5,0-0.9,0.1-1.1,0.3s-0.4,0.5-0.5,1
			l-1.1-0.1c0.1-0.5,0.3-0.8,0.5-1.1c0.2-0.3,0.5-0.5,1-0.7c0.4-0.2,0.9-0.2,1.5-0.2c0.6,0,1,0.1,1.3,0.2c0.3,0.1,0.6,0.3,0.8,0.5
			s0.3,0.4,0.3,0.7c0,0.2,0.1,0.5,0.1,1v1.5c0,1,0,1.7,0.1,1.9s0.1,0.5,0.3,0.8h-1.1C62.1,93.3,62,93,62,92.7z M61.9,90.3
			c-0.4,0.2-1,0.3-1.8,0.4c-0.5,0.1-0.8,0.1-1,0.2c-0.2,0.1-0.3,0.2-0.4,0.4c-0.1,0.2-0.2,0.3-0.2,0.5c0,0.3,0.1,0.5,0.3,0.7
			s0.5,0.3,1,0.3c0.4,0,0.8-0.1,1.1-0.3c0.3-0.2,0.6-0.4,0.7-0.8c0.1-0.2,0.2-0.6,0.2-1.1V90.3z"/>
		<path class="st5" d="M66.5,93.5L64,87.1h1.2l1.4,3.9c0.2,0.4,0.3,0.9,0.4,1.3c0.1-0.3,0.2-0.8,0.4-1.2l1.4-4H70l-2.5,6.5H66.5z"/>
		<path class="st5" d="M75.2,92.7c-0.4,0.3-0.8,0.6-1.2,0.7c-0.4,0.1-0.8,0.2-1.2,0.2c-0.7,0-1.3-0.2-1.6-0.5
			c-0.4-0.3-0.6-0.8-0.6-1.3c0-0.3,0.1-0.6,0.2-0.9c0.1-0.3,0.3-0.5,0.6-0.6c0.2-0.2,0.5-0.3,0.8-0.4c0.2-0.1,0.5-0.1,1-0.2
			c0.9-0.1,1.5-0.2,2-0.4c0-0.2,0-0.2,0-0.3c0-0.4-0.1-0.8-0.3-0.9c-0.3-0.2-0.7-0.4-1.3-0.4c-0.5,0-0.9,0.1-1.1,0.3s-0.4,0.5-0.5,1
			l-1.1-0.1c0.1-0.5,0.3-0.8,0.5-1.1c0.2-0.3,0.5-0.5,1-0.7c0.4-0.2,0.9-0.2,1.5-0.2c0.6,0,1,0.1,1.3,0.2c0.3,0.1,0.6,0.3,0.8,0.5
			s0.3,0.4,0.3,0.7c0,0.2,0.1,0.5,0.1,1v1.5c0,1,0,1.7,0.1,1.9s0.1,0.5,0.3,0.8h-1.1C75.3,93.3,75.2,93,75.2,92.7z M75.1,90.3
			c-0.4,0.2-1,0.3-1.8,0.4c-0.5,0.1-0.8,0.1-1,0.2c-0.2,0.1-0.3,0.2-0.4,0.4c-0.1,0.2-0.2,0.3-0.2,0.5c0,0.3,0.1,0.5,0.3,0.7
			s0.5,0.3,1,0.3c0.4,0,0.8-0.1,1.1-0.3c0.3-0.2,0.6-0.4,0.7-0.8c0.1-0.2,0.2-0.6,0.2-1.1V90.3z"/>
		<path class="st5" d="M77.9,85.9v-1.3H79v1.3H77.9z M77.9,93.5v-6.5H79v6.5H77.9z"/>
		<path class="st5" d="M80.6,93.5v-8.9h1.1v8.9H80.6z"/>
		<path class="st5" d="M87.7,92.7c-0.4,0.3-0.8,0.6-1.2,0.7c-0.4,0.1-0.8,0.2-1.2,0.2c-0.7,0-1.3-0.2-1.6-0.5
			c-0.4-0.3-0.6-0.8-0.6-1.3c0-0.3,0.1-0.6,0.2-0.9c0.1-0.3,0.3-0.5,0.6-0.6c0.2-0.2,0.5-0.3,0.8-0.4c0.2-0.1,0.5-0.1,1-0.2
			c0.9-0.1,1.5-0.2,2-0.4c0-0.2,0-0.2,0-0.3c0-0.4-0.1-0.8-0.3-0.9c-0.3-0.2-0.7-0.4-1.3-0.4c-0.5,0-0.9,0.1-1.1,0.3s-0.4,0.5-0.5,1
			l-1.1-0.1c0.1-0.5,0.3-0.8,0.5-1.1c0.2-0.3,0.5-0.5,1-0.7c0.4-0.2,0.9-0.2,1.5-0.2c0.6,0,1,0.1,1.3,0.2c0.3,0.1,0.6,0.3,0.8,0.5
			s0.3,0.4,0.3,0.7c0,0.2,0.1,0.5,0.1,1v1.5c0,1,0,1.7,0.1,1.9s0.1,0.5,0.3,0.8h-1.1C87.8,93.3,87.7,93,87.7,92.7z M87.6,90.3
			c-0.4,0.2-1,0.3-1.8,0.4c-0.5,0.1-0.8,0.1-1,0.2c-0.2,0.1-0.3,0.2-0.4,0.4c-0.1,0.2-0.2,0.3-0.2,0.5c0,0.3,0.1,0.5,0.3,0.7
			s0.5,0.3,1,0.3c0.4,0,0.8-0.1,1.1-0.3c0.3-0.2,0.6-0.4,0.7-0.8c0.1-0.2,0.2-0.6,0.2-1.1V90.3z"/>
		<path class="st5" d="M91.4,93.5h-1v-8.9h1.1v3.2c0.5-0.6,1.1-0.9,1.8-0.9c0.4,0,0.8,0.1,1.1,0.2c0.4,0.2,0.6,0.4,0.9,0.7
			s0.4,0.6,0.5,1.1c0.1,0.4,0.2,0.9,0.2,1.3c0,1.1-0.3,2-0.8,2.6s-1.2,0.9-2,0.9c-0.8,0-1.4-0.3-1.8-1V93.5z M91.4,90.3
			c0,0.8,0.1,1.3,0.3,1.7c0.3,0.6,0.8,0.8,1.4,0.8c0.5,0,0.9-0.2,1.2-0.6c0.4-0.4,0.5-1,0.5-1.9c0-0.8-0.2-1.5-0.5-1.9
			c-0.3-0.4-0.7-0.6-1.2-0.6c-0.5,0-0.9,0.2-1.2,0.6C91.6,88.9,91.4,89.5,91.4,90.3z"/>
		<path class="st5" d="M97.3,93.5v-8.9h1.1v8.9H97.3z"/>
		<path class="st5" d="M104.6,91.5l1.1,0.1c-0.2,0.7-0.5,1.2-1,1.5c-0.5,0.4-1.1,0.5-1.9,0.5c-0.9,0-1.7-0.3-2.3-0.9
			c-0.6-0.6-0.8-1.4-0.8-2.5c0-1.1,0.3-1.9,0.8-2.5c0.6-0.6,1.3-0.9,2.2-0.9c0.9,0,1.6,0.3,2.1,0.9c0.5,0.6,0.8,1.4,0.8,2.5
			c0,0.1,0,0.2,0,0.3h-4.8c0,0.7,0.2,1.3,0.6,1.6c0.4,0.4,0.8,0.6,1.4,0.6c0.4,0,0.7-0.1,1-0.3C104.2,92.3,104.4,91.9,104.6,91.5z
			 M101,89.7h3.6c0-0.5-0.2-1-0.4-1.2c-0.4-0.4-0.8-0.6-1.4-0.6c-0.5,0-0.9,0.2-1.3,0.5S101,89.1,101,89.7z"/>
	</g>
	<g>
		<path class="st5" d="M154.7,71.8h-1.1v-7c-0.3,0.3-0.6,0.5-1,0.8c-0.4,0.3-0.8,0.4-1.2,0.6v-1.1c0.6-0.3,1.2-0.6,1.6-1
			c0.5-0.4,0.8-0.8,1-1.2h0.7V71.8z"/>
		<path class="st5" d="M161.4,71.8v-8.9h4c0.8,0,1.4,0.1,1.8,0.2c0.4,0.2,0.7,0.4,1,0.9c0.2,0.4,0.4,0.9,0.4,1.3
			c0,0.6-0.2,1.2-0.6,1.6s-1,0.7-1.9,0.8c0.3,0.2,0.6,0.3,0.7,0.4c0.3,0.3,0.7,0.7,1,1.2l1.6,2.4h-1.5l-1.2-1.9
			c-0.3-0.5-0.6-0.9-0.9-1.2c-0.2-0.3-0.4-0.5-0.6-0.6c-0.2-0.1-0.4-0.2-0.5-0.2c-0.1,0-0.4,0-0.7,0h-1.4v4H161.4z M162.6,66.8h2.5
			c0.5,0,1-0.1,1.3-0.2c0.3-0.1,0.5-0.3,0.7-0.5c0.2-0.2,0.2-0.5,0.2-0.8c0-0.4-0.2-0.8-0.5-1c-0.3-0.3-0.8-0.4-1.5-0.4h-2.8V66.8z"
			/>
		<path class="st5" d="M174.7,69.7l1.1,0.1c-0.2,0.7-0.5,1.2-1,1.5c-0.5,0.4-1.1,0.5-1.9,0.5c-0.9,0-1.7-0.3-2.3-0.9
			c-0.6-0.6-0.8-1.4-0.8-2.5c0-1.1,0.3-1.9,0.8-2.5c0.6-0.6,1.3-0.9,2.2-0.9c0.9,0,1.6,0.3,2.1,0.9c0.5,0.6,0.8,1.4,0.8,2.5
			c0,0.1,0,0.2,0,0.3H171c0,0.7,0.2,1.3,0.6,1.6c0.4,0.4,0.8,0.6,1.4,0.6c0.4,0,0.7-0.1,1-0.3C174.3,70.5,174.5,70.2,174.7,69.7z
			 M171.1,67.9h3.6c0-0.5-0.2-1-0.4-1.2c-0.4-0.4-0.8-0.6-1.4-0.6c-0.5,0-0.9,0.2-1.3,0.5S171.1,67.4,171.1,67.9z"/>
		<path class="st5" d="M177.5,71.8v-5.6h-1v-0.9h1v-0.7c0-0.4,0-0.8,0.1-1c0.1-0.3,0.3-0.5,0.6-0.7s0.6-0.3,1.1-0.3
			c0.3,0,0.7,0,1,0.1l-0.2,1c-0.2,0-0.4-0.1-0.6-0.1c-0.3,0-0.6,0.1-0.7,0.2c-0.1,0.1-0.2,0.4-0.2,0.8v0.6h1.3v0.9h-1.3v5.6H177.5z"
			/>
		<path class="st5" d="M180.7,64.1v-1.3h1.1v1.3H180.7z M180.7,71.8v-6.5h1.1v6.5H180.7z"/>
		<path class="st5" d="M183.5,71.8v-6.5h1v0.9c0.5-0.7,1.2-1.1,2.1-1.1c0.4,0,0.7,0.1,1.1,0.2c0.3,0.1,0.6,0.3,0.7,0.6
			c0.2,0.2,0.3,0.5,0.3,0.8c0,0.2,0.1,0.6,0.1,1.1v4h-1.1v-3.9c0-0.4,0-0.8-0.1-1c-0.1-0.2-0.2-0.4-0.5-0.5
			c-0.2-0.1-0.5-0.2-0.8-0.2c-0.5,0-0.9,0.1-1.2,0.4s-0.5,0.9-0.5,1.7v3.5H183.5z"/>
		<path class="st5" d="M194.9,69.7l1.1,0.1c-0.2,0.7-0.5,1.2-1,1.5c-0.5,0.4-1.1,0.5-1.9,0.5c-0.9,0-1.7-0.3-2.3-0.9
			c-0.6-0.6-0.8-1.4-0.8-2.5c0-1.1,0.3-1.9,0.8-2.5c0.6-0.6,1.3-0.9,2.2-0.9c0.9,0,1.6,0.3,2.1,0.9c0.5,0.6,0.8,1.4,0.8,2.5
			c0,0.1,0,0.2,0,0.3h-4.8c0,0.7,0.2,1.3,0.6,1.6c0.4,0.4,0.8,0.6,1.4,0.6c0.4,0,0.7-0.1,1-0.3C194.5,70.5,194.7,70.2,194.9,69.7z
			 M191.3,67.9h3.6c0-0.5-0.2-1-0.4-1.2c-0.4-0.4-0.8-0.6-1.4-0.6c-0.5,0-0.9,0.2-1.3,0.5S191.3,67.4,191.3,67.9z"/>
		<path class="st5" d="M197.4,71.8v-6.5h1v0.9c0.2-0.3,0.5-0.6,0.8-0.8c0.3-0.2,0.7-0.3,1.2-0.3c0.5,0,0.9,0.1,1.2,0.3
			c0.3,0.2,0.5,0.5,0.6,0.8c0.5-0.8,1.2-1.1,2-1.1c0.6,0,1.1,0.2,1.5,0.5c0.3,0.4,0.5,0.9,0.5,1.6v4.4h-1.1v-4.1
			c0-0.4,0-0.8-0.1-0.9c-0.1-0.2-0.2-0.3-0.4-0.5s-0.4-0.2-0.7-0.2c-0.5,0-0.8,0.2-1.1,0.5c-0.3,0.3-0.5,0.8-0.5,1.5v3.8h-1.1v-4.2
			c0-0.5-0.1-0.9-0.3-1.1s-0.5-0.4-0.9-0.4c-0.3,0-0.6,0.1-0.9,0.2c-0.3,0.2-0.5,0.4-0.6,0.7s-0.2,0.8-0.2,1.4v3.4H197.4z"/>
		<path class="st5" d="M212.2,69.7l1.1,0.1c-0.2,0.7-0.5,1.2-1,1.5c-0.5,0.4-1.1,0.5-1.9,0.5c-0.9,0-1.7-0.3-2.3-0.9
			c-0.6-0.6-0.8-1.4-0.8-2.5c0-1.1,0.3-1.9,0.8-2.5c0.6-0.6,1.3-0.9,2.2-0.9c0.9,0,1.6,0.3,2.1,0.9c0.5,0.6,0.8,1.4,0.8,2.5
			c0,0.1,0,0.2,0,0.3h-4.8c0,0.7,0.2,1.3,0.6,1.6c0.4,0.4,0.8,0.6,1.4,0.6c0.4,0,0.7-0.1,1-0.3C211.8,70.5,212.1,70.2,212.2,69.7z
			 M208.6,67.9h3.6c0-0.5-0.2-1-0.4-1.2c-0.4-0.4-0.8-0.6-1.4-0.6c-0.5,0-0.9,0.2-1.3,0.5S208.7,67.4,208.6,67.9z"/>
		<path class="st5" d="M214.7,71.8v-6.5h1v0.9c0.5-0.7,1.2-1.1,2.1-1.1c0.4,0,0.7,0.1,1.1,0.2c0.3,0.1,0.6,0.3,0.7,0.6
			c0.2,0.2,0.3,0.5,0.3,0.8c0,0.2,0.1,0.6,0.1,1.1v4h-1.1v-3.9c0-0.4,0-0.8-0.1-1c-0.1-0.2-0.2-0.4-0.5-0.5
			c-0.2-0.1-0.5-0.2-0.8-0.2c-0.5,0-0.9,0.1-1.2,0.4s-0.5,0.9-0.5,1.7v3.5H214.7z"/>
		<path class="st5" d="M224.1,70.8l0.2,1c-0.3,0.1-0.6,0.1-0.8,0.1c-0.4,0-0.7-0.1-0.9-0.2s-0.4-0.3-0.5-0.5
			c-0.1-0.2-0.1-0.6-0.1-1.3v-3.7h-0.8v-0.9h0.8v-1.6L223,63v2.3h1.1v0.9H223V70c0,0.3,0,0.5,0.1,0.6c0,0.1,0.1,0.2,0.2,0.2
			c0.1,0.1,0.2,0.1,0.4,0.1C223.7,70.9,223.9,70.8,224.1,70.8z"/>
		<path class="st5" d="M155.1,86c-0.4,0.3-0.8,0.6-1.2,0.7c-0.4,0.1-0.8,0.2-1.2,0.2c-0.7,0-1.3-0.2-1.6-0.5
			c-0.4-0.3-0.6-0.8-0.6-1.3c0-0.3,0.1-0.6,0.2-0.9c0.1-0.3,0.3-0.5,0.6-0.6c0.2-0.2,0.5-0.3,0.8-0.4c0.2-0.1,0.5-0.1,1-0.2
			c0.9-0.1,1.5-0.2,2-0.4c0-0.2,0-0.2,0-0.3c0-0.4-0.1-0.8-0.3-0.9c-0.3-0.2-0.7-0.4-1.3-0.4c-0.5,0-0.9,0.1-1.1,0.3s-0.4,0.5-0.5,1
			l-1.1-0.1c0.1-0.5,0.3-0.8,0.5-1.1c0.2-0.3,0.5-0.5,1-0.7c0.4-0.2,0.9-0.2,1.5-0.2c0.6,0,1,0.1,1.3,0.2c0.3,0.1,0.6,0.3,0.8,0.5
			s0.3,0.4,0.3,0.7c0,0.2,0.1,0.5,0.1,1v1.5c0,1,0,1.7,0.1,1.9s0.1,0.5,0.3,0.8h-1.1C155.2,86.6,155.1,86.3,155.1,86z M155,83.5
			c-0.4,0.2-1,0.3-1.8,0.4c-0.5,0.1-0.8,0.1-1,0.2c-0.2,0.1-0.3,0.2-0.4,0.4c-0.1,0.2-0.2,0.3-0.2,0.5c0,0.3,0.1,0.5,0.3,0.7
			s0.5,0.3,1,0.3c0.4,0,0.8-0.1,1.1-0.3c0.3-0.2,0.6-0.4,0.7-0.8c0.1-0.2,0.2-0.6,0.2-1.1V83.5z"/>
		<path class="st5" d="M159.6,86.8l-2.5-6.5h1.2l1.4,3.9c0.2,0.4,0.3,0.9,0.4,1.3c0.1-0.3,0.2-0.8,0.4-1.2l1.4-4h1.1l-2.5,6.5H159.6
			z"/>
		<path class="st5" d="M168.3,86c-0.4,0.3-0.8,0.6-1.2,0.7c-0.4,0.1-0.8,0.2-1.2,0.2c-0.7,0-1.3-0.2-1.6-0.5
			c-0.4-0.3-0.6-0.8-0.6-1.3c0-0.3,0.1-0.6,0.2-0.9c0.1-0.3,0.3-0.5,0.6-0.6c0.2-0.2,0.5-0.3,0.8-0.4c0.2-0.1,0.5-0.1,1-0.2
			c0.9-0.1,1.5-0.2,2-0.4c0-0.2,0-0.2,0-0.3c0-0.4-0.1-0.8-0.3-0.9c-0.3-0.2-0.7-0.4-1.3-0.4c-0.5,0-0.9,0.1-1.1,0.3s-0.4,0.5-0.5,1
			l-1.1-0.1c0.1-0.5,0.3-0.8,0.5-1.1c0.2-0.3,0.5-0.5,1-0.7c0.4-0.2,0.9-0.2,1.5-0.2c0.6,0,1,0.1,1.3,0.2c0.3,0.1,0.6,0.3,0.8,0.5
			s0.3,0.4,0.3,0.7c0,0.2,0.1,0.5,0.1,1v1.5c0,1,0,1.7,0.1,1.9s0.1,0.5,0.3,0.8h-1.1C168.4,86.6,168.3,86.3,168.3,86z M168.2,83.5
			c-0.4,0.2-1,0.3-1.8,0.4c-0.5,0.1-0.8,0.1-1,0.2c-0.2,0.1-0.3,0.2-0.4,0.4c-0.1,0.2-0.2,0.3-0.2,0.5c0,0.3,0.1,0.5,0.3,0.7
			s0.5,0.3,1,0.3c0.4,0,0.8-0.1,1.1-0.3c0.3-0.2,0.6-0.4,0.7-0.8c0.1-0.2,0.2-0.6,0.2-1.1V83.5z"/>
		<path class="st5" d="M171,79.1v-1.3h1.1v1.3H171z M171,86.8v-6.5h1.1v6.5H171z"/>
		<path class="st5" d="M173.7,86.8v-8.9h1.1v8.9H173.7z"/>
		<path class="st5" d="M180.8,86c-0.4,0.3-0.8,0.6-1.2,0.7c-0.4,0.1-0.8,0.2-1.2,0.2c-0.7,0-1.3-0.2-1.6-0.5
			c-0.4-0.3-0.6-0.8-0.6-1.3c0-0.3,0.1-0.6,0.2-0.9c0.1-0.3,0.3-0.5,0.6-0.6c0.2-0.2,0.5-0.3,0.8-0.4c0.2-0.1,0.5-0.1,1-0.2
			c0.9-0.1,1.5-0.2,2-0.4c0-0.2,0-0.2,0-0.3c0-0.4-0.1-0.8-0.3-0.9c-0.3-0.2-0.7-0.4-1.3-0.4c-0.5,0-0.9,0.1-1.1,0.3s-0.4,0.5-0.5,1
			l-1.1-0.1c0.1-0.5,0.3-0.8,0.5-1.1c0.2-0.3,0.5-0.5,1-0.7c0.4-0.2,0.9-0.2,1.5-0.2c0.6,0,1,0.1,1.3,0.2c0.3,0.1,0.6,0.3,0.8,0.5
			s0.3,0.4,0.3,0.7c0,0.2,0.1,0.5,0.1,1v1.5c0,1,0,1.7,0.1,1.9s0.1,0.5,0.3,0.8H181C180.9,86.6,180.8,86.3,180.8,86z M180.7,83.5
			c-0.4,0.2-1,0.3-1.8,0.4c-0.5,0.1-0.8,0.1-1,0.2c-0.2,0.1-0.3,0.2-0.4,0.4c-0.1,0.2-0.2,0.3-0.2,0.5c0,0.3,0.1,0.5,0.3,0.7
			s0.5,0.3,1,0.3c0.4,0,0.8-0.1,1.1-0.3c0.3-0.2,0.6-0.4,0.7-0.8c0.1-0.2,0.2-0.6,0.2-1.1V83.5z"/>
		<path class="st5" d="M184.5,86.8h-1v-8.9h1.1V81c0.5-0.6,1.1-0.9,1.8-0.9c0.4,0,0.8,0.1,1.1,0.2c0.4,0.2,0.6,0.4,0.9,0.7
			s0.4,0.6,0.5,1.1c0.1,0.4,0.2,0.9,0.2,1.3c0,1.1-0.3,2-0.8,2.6s-1.2,0.9-2,0.9c-0.8,0-1.4-0.3-1.8-1V86.8z M184.5,83.5
			c0,0.8,0.1,1.3,0.3,1.7c0.3,0.6,0.8,0.8,1.4,0.8c0.5,0,0.9-0.2,1.2-0.6c0.4-0.4,0.5-1,0.5-1.9c0-0.8-0.2-1.5-0.5-1.9
			c-0.3-0.4-0.7-0.6-1.2-0.6c-0.5,0-0.9,0.2-1.2,0.6C184.7,82.1,184.5,82.7,184.5,83.5z"/>
		<path class="st5" d="M190.4,86.8v-8.9h1.1v8.9H190.4z"/>
		<path class="st5" d="M197.7,84.7l1.1,0.1c-0.2,0.7-0.5,1.2-1,1.5c-0.5,0.4-1.1,0.5-1.9,0.5c-0.9,0-1.7-0.3-2.3-0.9
			c-0.6-0.6-0.8-1.4-0.8-2.5c0-1.1,0.3-1.9,0.8-2.5c0.6-0.6,1.3-0.9,2.2-0.9c0.9,0,1.6,0.3,2.1,0.9c0.5,0.6,0.8,1.4,0.8,2.5
			c0,0.1,0,0.2,0,0.3H194c0,0.7,0.2,1.3,0.6,1.6c0.4,0.4,0.8,0.6,1.4,0.6c0.4,0,0.7-0.1,1-0.3C197.3,85.5,197.5,85.2,197.7,84.7z
			 M194,82.9h3.6c0-0.5-0.2-1-0.4-1.2c-0.4-0.4-0.8-0.6-1.4-0.6c-0.5,0-0.9,0.2-1.3,0.5S194.1,82.4,194,82.9z"/>
		<path class="st5" d="M204.7,86.8h-1v-8.9h1.1V81c0.5-0.6,1.1-0.9,1.8-0.9c0.4,0,0.8,0.1,1.1,0.2c0.4,0.2,0.6,0.4,0.9,0.7
			s0.4,0.6,0.5,1.1c0.1,0.4,0.2,0.9,0.2,1.3c0,1.1-0.3,2-0.8,2.6s-1.2,0.9-2,0.9c-0.8,0-1.4-0.3-1.8-1V86.8z M204.6,83.5
			c0,0.8,0.1,1.3,0.3,1.7c0.3,0.6,0.8,0.8,1.4,0.8c0.5,0,0.9-0.2,1.2-0.6c0.4-0.4,0.5-1,0.5-1.9c0-0.8-0.2-1.5-0.5-1.9
			c-0.3-0.4-0.7-0.6-1.2-0.6c-0.5,0-0.9,0.2-1.2,0.6C204.8,82.1,204.6,82.7,204.6,83.5z"/>
		<path class="st5" d="M215,84.7l1.1,0.1c-0.2,0.7-0.5,1.2-1,1.5c-0.5,0.4-1.1,0.5-1.9,0.5c-0.9,0-1.7-0.3-2.3-0.9
			c-0.6-0.6-0.8-1.4-0.8-2.5c0-1.1,0.3-1.9,0.8-2.5c0.6-0.6,1.3-0.9,2.2-0.9c0.9,0,1.6,0.3,2.1,0.9c0.5,0.6,0.8,1.4,0.8,2.5
			c0,0.1,0,0.2,0,0.3h-4.8c0,0.7,0.2,1.3,0.6,1.6c0.4,0.4,0.8,0.6,1.4,0.6c0.4,0,0.7-0.1,1-0.3C214.6,85.5,214.9,85.2,215,84.7z
			 M211.4,82.9h3.6c0-0.5-0.2-1-0.4-1.2c-0.4-0.4-0.8-0.6-1.4-0.6c-0.5,0-0.9,0.2-1.3,0.5S211.5,82.4,211.4,82.9z"/>
		<path class="st5" d="M217.8,86.8v-5.6h-1v-0.9h1v-0.7c0-0.4,0-0.8,0.1-1c0.1-0.3,0.3-0.5,0.6-0.7s0.6-0.3,1.1-0.3
			c0.3,0,0.7,0,1,0.1l-0.2,1c-0.2,0-0.4-0.1-0.6-0.1c-0.3,0-0.6,0.1-0.7,0.2c-0.1,0.1-0.2,0.4-0.2,0.8v0.6h1.3v0.9h-1.3v5.6H217.8z"
			/>
		<path class="st5" d="M220.6,83.6c0-1.2,0.3-2.1,1-2.7c0.6-0.5,1.2-0.7,2-0.7c0.9,0,1.6,0.3,2.2,0.9c0.6,0.6,0.8,1.4,0.8,2.4
			c0,0.8-0.1,1.5-0.4,2c-0.3,0.5-0.6,0.8-1.1,1.1s-1,0.4-1.6,0.4c-0.9,0-1.6-0.3-2.2-0.9C220.9,85.5,220.6,84.6,220.6,83.6z
			 M221.7,83.6c0,0.8,0.2,1.5,0.5,1.9s0.8,0.6,1.4,0.6c0.5,0,1-0.2,1.4-0.6c0.4-0.4,0.5-1,0.5-1.9c0-0.8-0.2-1.4-0.5-1.8
			s-0.8-0.6-1.4-0.6c-0.5,0-1,0.2-1.4,0.6S221.7,82.7,221.7,83.6z"/>
		<path class="st5" d="M228,86.8v-6.5h1v1c0.3-0.5,0.5-0.8,0.7-0.9c0.2-0.1,0.4-0.2,0.7-0.2c0.4,0,0.7,0.1,1.1,0.4l-0.4,1
			c-0.3-0.2-0.5-0.2-0.8-0.2c-0.2,0-0.5,0.1-0.6,0.2s-0.3,0.3-0.4,0.6c-0.1,0.4-0.2,0.8-0.2,1.3v3.4H228z"/>
		<path class="st5" d="M236.6,84.7l1.1,0.1c-0.2,0.7-0.5,1.2-1,1.5c-0.5,0.4-1.1,0.5-1.9,0.5c-0.9,0-1.7-0.3-2.3-0.9
			c-0.6-0.6-0.8-1.4-0.8-2.5c0-1.1,0.3-1.9,0.8-2.5c0.6-0.6,1.3-0.9,2.2-0.9c0.9,0,1.6,0.3,2.1,0.9c0.5,0.6,0.8,1.4,0.8,2.5
			c0,0.1,0,0.2,0,0.3h-4.8c0,0.7,0.2,1.3,0.6,1.6c0.4,0.4,0.8,0.6,1.4,0.6c0.4,0,0.7-0.1,1-0.3C236.2,85.5,236.4,85.2,236.6,84.7z
			 M233,82.9h3.6c0-0.5-0.2-1-0.4-1.2c-0.4-0.4-0.8-0.6-1.4-0.6c-0.5,0-0.9,0.2-1.3,0.5S233,82.4,233,82.9z"/>
		<path class="st5" d="M245,85.8l0.2,1c-0.3,0.1-0.6,0.1-0.8,0.1c-0.4,0-0.7-0.1-0.9-0.2s-0.4-0.3-0.5-0.5c-0.1-0.2-0.1-0.6-0.1-1.3
			v-3.7H242v-0.9h0.8v-1.6l1.1-0.7v2.3h1.1v0.9h-1.1V85c0,0.3,0,0.5,0.1,0.6c0,0.1,0.1,0.2,0.2,0.2c0.1,0.1,0.2,0.1,0.4,0.1
			C244.6,85.9,244.8,85.8,245,85.8z"/>
		<path class="st5" d="M246,86.8v-8.9h1.1v3.2c0.5-0.6,1.2-0.9,1.9-0.9c0.5,0,0.9,0.1,1.3,0.3s0.6,0.5,0.8,0.8
			c0.2,0.3,0.2,0.8,0.2,1.5v4.1h-1.1v-4.1c0-0.5-0.1-0.9-0.4-1.2c-0.2-0.3-0.6-0.4-1-0.4c-0.3,0-0.6,0.1-0.9,0.3
			c-0.3,0.2-0.5,0.4-0.6,0.7s-0.2,0.7-0.2,1.2v3.5H246z"/>
		<path class="st5" d="M257.4,84.7l1.1,0.1c-0.2,0.7-0.5,1.2-1,1.5c-0.5,0.4-1.1,0.5-1.9,0.5c-0.9,0-1.7-0.3-2.3-0.9
			c-0.6-0.6-0.8-1.4-0.8-2.5c0-1.1,0.3-1.9,0.8-2.5c0.6-0.6,1.3-0.9,2.2-0.9c0.9,0,1.6,0.3,2.1,0.9c0.5,0.6,0.8,1.4,0.8,2.5
			c0,0.1,0,0.2,0,0.3h-4.8c0,0.7,0.2,1.3,0.6,1.6c0.4,0.4,0.8,0.6,1.4,0.6c0.4,0,0.7-0.1,1-0.3C257,85.5,257.3,85.2,257.4,84.7z
			 M253.8,82.9h3.6c0-0.5-0.2-1-0.4-1.2c-0.4-0.4-0.8-0.6-1.4-0.6c-0.5,0-0.9,0.2-1.3,0.5S253.8,82.4,253.8,82.9z"/>
		<path class="st5" d="M151,101.8v-8.9h4c0.8,0,1.4,0.1,1.8,0.2c0.4,0.2,0.7,0.4,1,0.9c0.2,0.4,0.4,0.9,0.4,1.3
			c0,0.6-0.2,1.2-0.6,1.6s-1,0.7-1.9,0.8c0.3,0.2,0.6,0.3,0.7,0.4c0.3,0.3,0.7,0.7,1,1.2l1.6,2.4h-1.5l-1.2-1.9
			c-0.3-0.5-0.6-0.9-0.9-1.2c-0.2-0.3-0.4-0.5-0.6-0.6c-0.2-0.1-0.4-0.2-0.5-0.2c-0.1,0-0.4,0-0.7,0h-1.4v4H151z M152.2,96.8h2.5
			c0.5,0,1-0.1,1.3-0.2c0.3-0.1,0.5-0.3,0.7-0.5c0.2-0.2,0.2-0.5,0.2-0.8c0-0.4-0.2-0.8-0.5-1c-0.3-0.3-0.8-0.4-1.5-0.4h-2.8V96.8z"
			/>
		<path class="st5" d="M164.3,99.7l1.1,0.1c-0.2,0.7-0.5,1.2-1,1.5c-0.5,0.4-1.1,0.5-1.9,0.5c-0.9,0-1.7-0.3-2.3-0.9
			c-0.6-0.6-0.8-1.4-0.8-2.5c0-1.1,0.3-1.9,0.8-2.5c0.6-0.6,1.3-0.9,2.2-0.9c0.9,0,1.6,0.3,2.1,0.9c0.5,0.6,0.8,1.4,0.8,2.5
			c0,0.1,0,0.2,0,0.3h-4.8c0,0.7,0.2,1.3,0.6,1.6c0.4,0.4,0.8,0.6,1.4,0.6c0.4,0,0.7-0.1,1-0.3C163.9,100.5,164.1,100.2,164.3,99.7z
			 M160.7,97.9h3.6c0-0.5-0.2-1-0.4-1.2c-0.4-0.4-0.8-0.6-1.4-0.6c-0.5,0-0.9,0.2-1.3,0.5S160.7,97.4,160.7,97.9z"/>
		<path class="st5" d="M167.1,101.8v-5.6h-1v-0.9h1v-0.7c0-0.4,0-0.8,0.1-1c0.1-0.3,0.3-0.5,0.6-0.7s0.6-0.3,1.1-0.3
			c0.3,0,0.7,0,1,0.1l-0.2,1c-0.2,0-0.4-0.1-0.6-0.1c-0.3,0-0.6,0.1-0.7,0.2c-0.1,0.1-0.2,0.4-0.2,0.8v0.6h1.3v0.9h-1.3v5.6H167.1z"
			/>
		<path class="st5" d="M170.3,94.1v-1.3h1.1v1.3H170.3z M170.3,101.8v-6.5h1.1v6.5H170.3z"/>
		<path class="st5" d="M173.1,101.8v-6.5h1v0.9c0.5-0.7,1.2-1.1,2.1-1.1c0.4,0,0.7,0.1,1.1,0.2c0.3,0.1,0.6,0.3,0.7,0.6
			c0.2,0.2,0.3,0.5,0.3,0.8c0,0.2,0.1,0.6,0.1,1.1v4h-1.1v-3.9c0-0.4,0-0.8-0.1-1c-0.1-0.2-0.2-0.4-0.5-0.5
			c-0.2-0.1-0.5-0.2-0.8-0.2c-0.5,0-0.9,0.1-1.2,0.4s-0.5,0.9-0.5,1.7v3.5H173.1z"/>
		<path class="st5" d="M184.4,99.7l1.1,0.1c-0.2,0.7-0.5,1.2-1,1.5c-0.5,0.4-1.1,0.5-1.9,0.5c-0.9,0-1.7-0.3-2.3-0.9
			c-0.6-0.6-0.8-1.4-0.8-2.5c0-1.1,0.3-1.9,0.8-2.5c0.6-0.6,1.3-0.9,2.2-0.9c0.9,0,1.6,0.3,2.1,0.9c0.5,0.6,0.8,1.4,0.8,2.5
			c0,0.1,0,0.2,0,0.3h-4.8c0,0.7,0.2,1.3,0.6,1.6c0.4,0.4,0.8,0.6,1.4,0.6c0.4,0,0.7-0.1,1-0.3C184.1,100.5,184.3,100.2,184.4,99.7z
			 M180.8,97.9h3.6c0-0.5-0.2-1-0.4-1.2c-0.4-0.4-0.8-0.6-1.4-0.6c-0.5,0-0.9,0.2-1.3,0.5S180.9,97.4,180.8,97.9z"/>
		<path class="st5" d="M187,101.8v-6.5h1v0.9c0.2-0.3,0.5-0.6,0.8-0.8c0.3-0.2,0.7-0.3,1.2-0.3c0.5,0,0.9,0.1,1.2,0.3
			c0.3,0.2,0.5,0.5,0.6,0.8c0.5-0.8,1.2-1.1,2-1.1c0.6,0,1.1,0.2,1.5,0.5c0.3,0.4,0.5,0.9,0.5,1.6v4.4h-1.1v-4.1
			c0-0.4,0-0.8-0.1-0.9c-0.1-0.2-0.2-0.3-0.4-0.5s-0.4-0.2-0.7-0.2c-0.5,0-0.8,0.2-1.1,0.5c-0.3,0.3-0.5,0.8-0.5,1.5v3.8h-1.1v-4.2
			c0-0.5-0.1-0.9-0.3-1.1s-0.5-0.4-0.9-0.4c-0.3,0-0.6,0.1-0.9,0.2c-0.3,0.2-0.5,0.4-0.6,0.7s-0.2,0.8-0.2,1.4v3.4H187z"/>
		<path class="st5" d="M201.8,99.7l1.1,0.1c-0.2,0.7-0.5,1.2-1,1.5c-0.5,0.4-1.1,0.5-1.9,0.5c-0.9,0-1.7-0.3-2.3-0.9
			c-0.6-0.6-0.8-1.4-0.8-2.5c0-1.1,0.3-1.9,0.8-2.5c0.6-0.6,1.3-0.9,2.2-0.9c0.9,0,1.6,0.3,2.1,0.9c0.5,0.6,0.8,1.4,0.8,2.5
			c0,0.1,0,0.2,0,0.3h-4.8c0,0.7,0.2,1.3,0.6,1.6c0.4,0.4,0.8,0.6,1.4,0.6c0.4,0,0.7-0.1,1-0.3C201.4,100.5,201.6,100.2,201.8,99.7z
			 M198.2,97.9h3.6c0-0.5-0.2-1-0.4-1.2c-0.4-0.4-0.8-0.6-1.4-0.6c-0.5,0-0.9,0.2-1.3,0.5S198.2,97.4,198.2,97.9z"/>
		<path class="st5" d="M204.3,101.8v-6.5h1v0.9c0.5-0.7,1.2-1.1,2.1-1.1c0.4,0,0.7,0.1,1.1,0.2c0.3,0.1,0.6,0.3,0.7,0.6
			c0.2,0.2,0.3,0.5,0.3,0.8c0,0.2,0.1,0.6,0.1,1.1v4h-1.1v-3.9c0-0.4,0-0.8-0.1-1c-0.1-0.2-0.2-0.4-0.5-0.5
			c-0.2-0.1-0.5-0.2-0.8-0.2c-0.5,0-0.9,0.1-1.2,0.4s-0.5,0.9-0.5,1.7v3.5H204.3z"/>
		<path class="st5" d="M213.7,100.8l0.2,1c-0.3,0.1-0.6,0.1-0.8,0.1c-0.4,0-0.7-0.1-0.9-0.2s-0.4-0.3-0.5-0.5
			c-0.1-0.2-0.1-0.6-0.1-1.3v-3.7h-0.8v-0.9h0.8v-1.6l1.1-0.7v2.3h1.1v0.9h-1.1v3.8c0,0.3,0,0.5,0.1,0.6c0,0.1,0.1,0.2,0.2,0.2
			c0.1,0.1,0.2,0.1,0.4,0.1C213.3,100.9,213.5,100.8,213.7,100.8z"/>
		<path class="st5" d="M218.4,101.8v-8.9h6v1.1h-4.9v2.8h4.2v1.1h-4.2v4.1H218.4z"/>
		<path class="st5" d="M230.3,99.7l1.1,0.1c-0.2,0.7-0.5,1.2-1,1.5c-0.5,0.4-1.1,0.5-1.9,0.5c-0.9,0-1.7-0.3-2.3-0.9
			c-0.6-0.6-0.8-1.4-0.8-2.5c0-1.1,0.3-1.9,0.8-2.5c0.6-0.6,1.3-0.9,2.2-0.9c0.9,0,1.6,0.3,2.1,0.9c0.5,0.6,0.8,1.4,0.8,2.5
			c0,0.1,0,0.2,0,0.3h-4.8c0,0.7,0.2,1.3,0.6,1.6c0.4,0.4,0.8,0.6,1.4,0.6c0.4,0,0.7-0.1,1-0.3C229.9,100.5,230.1,100.2,230.3,99.7z
			 M226.7,97.9h3.6c0-0.5-0.2-1-0.4-1.2c-0.4-0.4-0.8-0.6-1.4-0.6c-0.5,0-0.9,0.2-1.3,0.5S226.7,97.4,226.7,97.9z"/>
		<path class="st5" d="M237.2,99.7l1.1,0.1c-0.2,0.7-0.5,1.2-1,1.5c-0.5,0.4-1.1,0.5-1.9,0.5c-0.9,0-1.7-0.3-2.3-0.9
			c-0.6-0.6-0.8-1.4-0.8-2.5c0-1.1,0.3-1.9,0.8-2.5c0.6-0.6,1.3-0.9,2.2-0.9c0.9,0,1.6,0.3,2.1,0.9c0.5,0.6,0.8,1.4,0.8,2.5
			c0,0.1,0,0.2,0,0.3h-4.8c0,0.7,0.2,1.3,0.6,1.6c0.4,0.4,0.8,0.6,1.4,0.6c0.4,0,0.7-0.1,1-0.3C236.9,100.5,237.1,100.2,237.2,99.7z
			 M233.6,97.9h3.6c0-0.5-0.2-1-0.4-1.2c-0.4-0.4-0.8-0.6-1.4-0.6c-0.5,0-0.9,0.2-1.3,0.5S233.7,97.4,233.6,97.9z"/>
		<path class="st5" d="M243.4,101.8v-8.9h3.1c0.7,0,1.2,0,1.6,0.1c0.5,0.1,1,0.3,1.3,0.6c0.5,0.4,0.8,0.9,1.1,1.5
			c0.2,0.6,0.4,1.3,0.4,2.1c0,0.7-0.1,1.3-0.2,1.8c-0.2,0.5-0.4,1-0.6,1.3c-0.2,0.3-0.5,0.6-0.8,0.8c-0.3,0.2-0.7,0.3-1.1,0.4
			s-0.9,0.2-1.4,0.2H243.4z M244.6,100.7h1.9c0.6,0,1.1-0.1,1.4-0.2c0.3-0.1,0.6-0.3,0.8-0.5c0.3-0.3,0.5-0.7,0.7-1.1
			c0.2-0.5,0.2-1,0.2-1.7c0-0.9-0.2-1.7-0.5-2.2c-0.3-0.5-0.7-0.8-1.1-1c-0.3-0.1-0.8-0.2-1.5-0.2h-1.9V100.7z"/>
		<path class="st5" d="M256.5,101c-0.4,0.3-0.8,0.6-1.2,0.7c-0.4,0.1-0.8,0.2-1.2,0.2c-0.7,0-1.3-0.2-1.6-0.5
			c-0.4-0.3-0.6-0.8-0.6-1.3c0-0.3,0.1-0.6,0.2-0.9c0.1-0.3,0.3-0.5,0.6-0.6c0.2-0.2,0.5-0.3,0.8-0.4c0.2-0.1,0.5-0.1,1-0.2
			c0.9-0.1,1.5-0.2,2-0.4c0-0.2,0-0.2,0-0.3c0-0.4-0.1-0.8-0.3-0.9c-0.3-0.2-0.7-0.4-1.3-0.4c-0.5,0-0.9,0.1-1.1,0.3s-0.4,0.5-0.5,1
			l-1.1-0.1c0.1-0.5,0.3-0.8,0.5-1.1c0.2-0.3,0.5-0.5,1-0.7c0.4-0.2,0.9-0.2,1.5-0.2c0.6,0,1,0.1,1.3,0.2c0.3,0.1,0.6,0.3,0.8,0.5
			s0.3,0.4,0.3,0.7c0,0.2,0.1,0.5,0.1,1v1.5c0,1,0,1.7,0.1,1.9s0.1,0.5,0.3,0.8h-1.1C256.6,101.6,256.5,101.3,256.5,101z
			 M256.4,98.5c-0.4,0.2-1,0.3-1.8,0.4c-0.5,0.1-0.8,0.1-1,0.2c-0.2,0.1-0.3,0.2-0.4,0.4c-0.1,0.2-0.2,0.3-0.2,0.5
			c0,0.3,0.1,0.5,0.3,0.7s0.5,0.3,1,0.3c0.4,0,0.8-0.1,1.1-0.3c0.3-0.2,0.6-0.4,0.7-0.8c0.1-0.2,0.2-0.6,0.2-1.1V98.5z"/>
		<path class="st5" d="M261.6,100.8l0.2,1c-0.3,0.1-0.6,0.1-0.8,0.1c-0.4,0-0.7-0.1-0.9-0.2s-0.4-0.3-0.5-0.5
			c-0.1-0.2-0.1-0.6-0.1-1.3v-3.7h-0.8v-0.9h0.8v-1.6l1.1-0.7v2.3h1.1v0.9h-1.1v3.8c0,0.3,0,0.5,0.1,0.6c0,0.1,0.1,0.2,0.2,0.2
			c0.1,0.1,0.2,0.1,0.4,0.1C261.3,100.9,261.4,100.8,261.6,100.8z"/>
		<path class="st5" d="M267.1,99.7l1.1,0.1c-0.2,0.7-0.5,1.2-1,1.5c-0.5,0.4-1.1,0.5-1.9,0.5c-0.9,0-1.7-0.3-2.3-0.9
			c-0.6-0.6-0.8-1.4-0.8-2.5c0-1.1,0.3-1.9,0.8-2.5c0.6-0.6,1.3-0.9,2.2-0.9c0.9,0,1.6,0.3,2.1,0.9c0.5,0.6,0.8,1.4,0.8,2.5
			c0,0.1,0,0.2,0,0.3h-4.8c0,0.7,0.2,1.3,0.6,1.6c0.4,0.4,0.8,0.6,1.4,0.6c0.4,0,0.7-0.1,1-0.3C266.7,100.5,267,100.2,267.1,99.7z
			 M263.5,97.9h3.6c0-0.5-0.2-1-0.4-1.2c-0.4-0.4-0.8-0.6-1.4-0.6c-0.5,0-0.9,0.2-1.3,0.5S263.6,97.4,263.5,97.9z"/>
	</g>
	<g>
		<path class="st5" d="M297.2,69.6h1.2v5.2c0,0.9-0.1,1.6-0.3,2.1c-0.2,0.5-0.6,1-1.1,1.3s-1.2,0.5-2.1,0.5c-0.8,0-1.5-0.1-2.1-0.4
			c-0.5-0.3-0.9-0.7-1.1-1.3c-0.2-0.5-0.3-1.3-0.3-2.2v-5.2h1.2v5.2c0,0.8,0.1,1.3,0.2,1.7c0.1,0.4,0.4,0.7,0.7,0.9
			c0.4,0.2,0.8,0.3,1.3,0.3c0.9,0,1.5-0.2,1.9-0.6c0.4-0.4,0.6-1.2,0.6-2.3V69.6z"/>
		<path class="st5" d="M300.2,78.5v-6.5h1V73c0.5-0.7,1.2-1.1,2.1-1.1c0.4,0,0.7,0.1,1.1,0.2c0.3,0.1,0.6,0.3,0.7,0.6
			c0.2,0.2,0.3,0.5,0.3,0.8c0,0.2,0.1,0.6,0.1,1.1v4h-1.1v-3.9c0-0.4,0-0.8-0.1-1c-0.1-0.2-0.2-0.4-0.5-0.5
			c-0.2-0.1-0.5-0.2-0.8-0.2c-0.5,0-0.9,0.1-1.2,0.4s-0.5,0.9-0.5,1.7v3.5H300.2z"/>
		<path class="st5" d="M307.1,78.5v-8.9h1.1v8.9H307.1z"/>
		<path class="st5" d="M309.9,70.9v-1.3h1.1v1.3H309.9z M309.9,78.5v-6.5h1.1v6.5H309.9z"/>
		<path class="st5" d="M312.7,78.5v-6.5h1V73c0.2-0.3,0.5-0.6,0.8-0.8c0.3-0.2,0.7-0.3,1.2-0.3c0.5,0,0.9,0.1,1.2,0.3
			c0.3,0.2,0.5,0.5,0.6,0.8c0.5-0.8,1.2-1.1,2-1.1c0.6,0,1.1,0.2,1.5,0.5c0.3,0.4,0.5,0.9,0.5,1.6v4.4h-1.1v-4.1
			c0-0.4,0-0.8-0.1-0.9s-0.2-0.3-0.4-0.5c-0.2-0.1-0.4-0.2-0.7-0.2c-0.5,0-0.8,0.2-1.1,0.5c-0.3,0.3-0.5,0.8-0.5,1.5v3.8h-1.1v-4.2
			c0-0.5-0.1-0.9-0.3-1.1c-0.2-0.2-0.5-0.4-0.9-0.4c-0.3,0-0.6,0.1-0.9,0.2c-0.3,0.2-0.5,0.4-0.6,0.7s-0.2,0.8-0.2,1.4v3.4H312.7z"
			/>
		<path class="st5" d="M323.1,70.9v-1.3h1.1v1.3H323.1z M323.1,78.5v-6.5h1.1v6.5H323.1z"/>
		<path class="st5" d="M328.3,77.6l0.2,1c-0.3,0.1-0.6,0.1-0.8,0.1c-0.4,0-0.7-0.1-0.9-0.2s-0.4-0.3-0.5-0.5
			c-0.1-0.2-0.1-0.6-0.1-1.3v-3.7h-0.8v-0.9h0.8v-1.6l1.1-0.7v2.3h1.1v0.9h-1.1v3.8c0,0.3,0,0.5,0.1,0.6c0,0.1,0.1,0.2,0.2,0.2
			c0.1,0.1,0.2,0.1,0.4,0.1C327.9,77.6,328.1,77.6,328.3,77.6z"/>
		<path class="st5" d="M333.8,76.5l1.1,0.1c-0.2,0.7-0.5,1.2-1,1.5c-0.5,0.4-1.1,0.5-1.9,0.5c-0.9,0-1.7-0.3-2.3-0.9
			c-0.6-0.6-0.8-1.4-0.8-2.5c0-1.1,0.3-1.9,0.8-2.5c0.6-0.6,1.3-0.9,2.2-0.9c0.9,0,1.6,0.3,2.1,0.9c0.5,0.6,0.8,1.4,0.8,2.5
			c0,0.1,0,0.2,0,0.3h-4.8c0,0.7,0.2,1.3,0.6,1.6c0.4,0.4,0.8,0.6,1.4,0.6c0.4,0,0.7-0.1,1-0.3C333.4,77.3,333.6,76.9,333.8,76.5z
			 M330.2,74.7h3.6c0-0.5-0.2-1-0.4-1.2c-0.4-0.4-0.8-0.6-1.4-0.6c-0.5,0-0.9,0.2-1.3,0.5S330.2,74.1,330.2,74.7z"/>
		<path class="st5" d="M340.5,78.5v-0.8c-0.4,0.6-1,1-1.8,1c-0.5,0-1-0.1-1.4-0.4c-0.4-0.3-0.8-0.7-1-1.2s-0.4-1.1-0.4-1.8
			c0-0.6,0.1-1.2,0.3-1.8c0.2-0.5,0.5-0.9,1-1.2c0.4-0.3,0.9-0.4,1.4-0.4c0.4,0,0.7,0.1,1,0.2c0.3,0.2,0.6,0.4,0.7,0.6v-3.2h1.1v8.9
			H340.5z M337,75.3c0,0.8,0.2,1.5,0.5,1.9s0.8,0.6,1.2,0.6c0.5,0,0.9-0.2,1.2-0.6s0.5-1,0.5-1.8c0-0.9-0.2-1.5-0.5-2
			s-0.8-0.6-1.3-0.6c-0.5,0-0.9,0.2-1.2,0.6C337.2,73.8,337,74.5,337,75.3z"/>
		<path class="st5" d="M351,77.7c-0.4,0.3-0.8,0.6-1.2,0.7c-0.4,0.1-0.8,0.2-1.2,0.2c-0.7,0-1.3-0.2-1.6-0.5
			c-0.4-0.3-0.6-0.8-0.6-1.3c0-0.3,0.1-0.6,0.2-0.9c0.1-0.3,0.3-0.5,0.6-0.6c0.2-0.2,0.5-0.3,0.8-0.4c0.2-0.1,0.5-0.1,1-0.2
			c0.9-0.1,1.5-0.2,2-0.4c0-0.2,0-0.2,0-0.3c0-0.4-0.1-0.8-0.3-0.9c-0.3-0.2-0.7-0.4-1.3-0.4c-0.5,0-0.9,0.1-1.1,0.3s-0.4,0.5-0.5,1
			l-1.1-0.1c0.1-0.5,0.3-0.8,0.5-1.1c0.2-0.3,0.5-0.5,1-0.7c0.4-0.2,0.9-0.2,1.5-0.2c0.6,0,1,0.1,1.3,0.2c0.3,0.1,0.6,0.3,0.8,0.5
			c0.2,0.2,0.3,0.4,0.3,0.7c0,0.2,0.1,0.5,0.1,1v1.5c0,1,0,1.7,0.1,1.9s0.1,0.5,0.3,0.8h-1.1C351.1,78.3,351,78,351,77.7z
			 M350.9,75.3c-0.4,0.2-1,0.3-1.8,0.4c-0.5,0.1-0.8,0.1-1,0.2c-0.2,0.1-0.3,0.2-0.4,0.4c-0.1,0.2-0.2,0.3-0.2,0.5
			c0,0.3,0.1,0.5,0.3,0.7s0.5,0.3,1,0.3c0.4,0,0.8-0.1,1.1-0.3c0.3-0.2,0.6-0.4,0.7-0.8c0.1-0.2,0.2-0.6,0.2-1.1V75.3z"/>
		<path class="st5" d="M357.9,78.5v-0.8c-0.4,0.6-1,1-1.8,1c-0.5,0-1-0.1-1.4-0.4c-0.4-0.3-0.8-0.7-1-1.2s-0.4-1.1-0.4-1.8
			c0-0.6,0.1-1.2,0.3-1.8c0.2-0.5,0.5-0.9,1-1.2c0.4-0.3,0.9-0.4,1.4-0.4c0.4,0,0.7,0.1,1,0.2c0.3,0.2,0.6,0.4,0.7,0.6v-3.2h1.1v8.9
			H357.9z M354.4,75.3c0,0.8,0.2,1.5,0.5,1.9s0.8,0.6,1.2,0.6c0.5,0,0.9-0.2,1.2-0.6s0.5-1,0.5-1.8c0-0.9-0.2-1.5-0.5-2
			s-0.8-0.6-1.3-0.6c-0.5,0-0.9,0.2-1.2,0.6C354.6,73.8,354.4,74.5,354.4,75.3z"/>
		<path class="st5" d="M364.8,78.5v-0.8c-0.4,0.6-1,1-1.8,1c-0.5,0-1-0.1-1.4-0.4c-0.4-0.3-0.8-0.7-1-1.2s-0.4-1.1-0.4-1.8
			c0-0.6,0.1-1.2,0.3-1.8c0.2-0.5,0.5-0.9,1-1.2c0.4-0.3,0.9-0.4,1.4-0.4c0.4,0,0.7,0.1,1,0.2c0.3,0.2,0.6,0.4,0.7,0.6v-3.2h1.1v8.9
			H364.8z M361.4,75.3c0,0.8,0.2,1.5,0.5,1.9s0.8,0.6,1.2,0.6c0.5,0,0.9-0.2,1.2-0.6s0.5-1,0.5-1.8c0-0.9-0.2-1.5-0.5-2
			s-0.8-0.6-1.3-0.6c-0.5,0-0.9,0.2-1.2,0.6C361.5,73.8,361.4,74.5,361.4,75.3z"/>
		<path class="st5" d="M367.6,70.9v-1.3h1.1v1.3H367.6z M367.6,78.5v-6.5h1.1v6.5H367.6z"/>
		<path class="st5" d="M372.8,77.6l0.2,1c-0.3,0.1-0.6,0.1-0.8,0.1c-0.4,0-0.7-0.1-0.9-0.2s-0.4-0.3-0.5-0.5
			c-0.1-0.2-0.1-0.6-0.1-1.3v-3.7h-0.8v-0.9h0.8v-1.6l1.1-0.7v2.3h1.1v0.9h-1.1v3.8c0,0.3,0,0.5,0.1,0.6c0,0.1,0.1,0.2,0.2,0.2
			c0.1,0.1,0.2,0.1,0.4,0.1C372.4,77.6,372.6,77.6,372.8,77.6z"/>
		<path class="st5" d="M373.8,70.9v-1.3h1.1v1.3H373.8z M373.8,78.5v-6.5h1.1v6.5H373.8z"/>
		<path class="st5" d="M376.2,75.3c0-1.2,0.3-2.1,1-2.7c0.6-0.5,1.2-0.7,2-0.7c0.9,0,1.6,0.3,2.2,0.9c0.6,0.6,0.8,1.4,0.8,2.4
			c0,0.8-0.1,1.5-0.4,2c-0.3,0.5-0.6,0.8-1.1,1.1c-0.5,0.3-1,0.4-1.6,0.4c-0.9,0-1.6-0.3-2.2-0.9S376.2,76.4,376.2,75.3z
			 M377.3,75.3c0,0.8,0.2,1.5,0.5,1.9s0.8,0.6,1.4,0.6c0.5,0,1-0.2,1.4-0.6c0.4-0.4,0.5-1,0.5-1.9c0-0.8-0.2-1.4-0.5-1.8
			s-0.8-0.6-1.4-0.6c-0.5,0-1,0.2-1.4,0.6S377.3,74.5,377.3,75.3z"/>
		<path class="st5" d="M383.6,78.5v-6.5h1V73c0.5-0.7,1.2-1.1,2.1-1.1c0.4,0,0.7,0.1,1.1,0.2c0.3,0.1,0.6,0.3,0.7,0.6
			c0.2,0.2,0.3,0.5,0.3,0.8c0,0.2,0.1,0.6,0.1,1.1v4h-1.1v-3.9c0-0.4,0-0.8-0.1-1c-0.1-0.2-0.2-0.4-0.5-0.5
			c-0.2-0.1-0.5-0.2-0.8-0.2c-0.5,0-0.9,0.1-1.2,0.4s-0.5,0.9-0.5,1.7v3.5H383.6z"/>
		<path class="st5" d="M394.7,77.7c-0.4,0.3-0.8,0.6-1.2,0.7c-0.4,0.1-0.8,0.2-1.2,0.2c-0.7,0-1.3-0.2-1.6-0.5
			c-0.4-0.3-0.6-0.8-0.6-1.3c0-0.3,0.1-0.6,0.2-0.9c0.1-0.3,0.3-0.5,0.6-0.6c0.2-0.2,0.5-0.3,0.8-0.4c0.2-0.1,0.5-0.1,1-0.2
			c0.9-0.1,1.5-0.2,2-0.4c0-0.2,0-0.2,0-0.3c0-0.4-0.1-0.8-0.3-0.9c-0.3-0.2-0.7-0.4-1.3-0.4c-0.5,0-0.9,0.1-1.1,0.3s-0.4,0.5-0.5,1
			l-1.1-0.1c0.1-0.5,0.3-0.8,0.5-1.1c0.2-0.3,0.5-0.5,1-0.7c0.4-0.2,0.9-0.2,1.5-0.2c0.6,0,1,0.1,1.3,0.2c0.3,0.1,0.6,0.3,0.8,0.5
			c0.2,0.2,0.3,0.4,0.3,0.7c0,0.2,0.1,0.5,0.1,1v1.5c0,1,0,1.7,0.1,1.9s0.1,0.5,0.3,0.8H395C394.9,78.3,394.8,78,394.7,77.7z
			 M394.7,75.3c-0.4,0.2-1,0.3-1.8,0.4c-0.5,0.1-0.8,0.1-1,0.2c-0.2,0.1-0.3,0.2-0.4,0.4c-0.1,0.2-0.2,0.3-0.2,0.5
			c0,0.3,0.1,0.5,0.3,0.7s0.5,0.3,1,0.3c0.4,0,0.8-0.1,1.1-0.3c0.3-0.2,0.6-0.4,0.7-0.8c0.1-0.2,0.2-0.6,0.2-1.1V75.3z"/>
		<path class="st5" d="M397.4,78.5v-8.9h1.1v8.9H397.4z"/>
		<path class="st5" d="M295.4,92.7c-0.4,0.3-0.8,0.6-1.2,0.7s-0.8,0.2-1.2,0.2c-0.7,0-1.3-0.2-1.6-0.5c-0.4-0.3-0.6-0.8-0.6-1.3
			c0-0.3,0.1-0.6,0.2-0.9c0.1-0.3,0.3-0.5,0.6-0.6c0.2-0.2,0.5-0.3,0.8-0.4c0.2-0.1,0.5-0.1,1-0.2c0.9-0.1,1.5-0.2,2-0.4
			c0-0.2,0-0.2,0-0.3c0-0.4-0.1-0.8-0.3-0.9c-0.3-0.2-0.7-0.4-1.3-0.4c-0.5,0-0.9,0.1-1.1,0.3s-0.4,0.5-0.5,1l-1.1-0.1
			c0.1-0.5,0.3-0.8,0.5-1.1c0.2-0.3,0.5-0.5,1-0.7s0.9-0.2,1.5-0.2c0.6,0,1,0.1,1.3,0.2c0.3,0.1,0.6,0.3,0.8,0.5
			c0.2,0.2,0.3,0.4,0.3,0.7c0,0.2,0.1,0.5,0.1,1v1.5c0,1,0,1.7,0.1,1.9s0.1,0.5,0.3,0.8h-1.1C295.5,93.3,295.4,93,295.4,92.7z
			 M295.3,90.3c-0.4,0.2-1,0.3-1.8,0.4c-0.5,0.1-0.8,0.1-1,0.2c-0.2,0.1-0.3,0.2-0.4,0.4c-0.1,0.2-0.2,0.3-0.2,0.5
			c0,0.3,0.1,0.5,0.3,0.7s0.5,0.3,1,0.3c0.4,0,0.8-0.1,1.1-0.3c0.3-0.2,0.6-0.4,0.7-0.8c0.1-0.2,0.2-0.6,0.2-1.1V90.3z"/>
		<path class="st5" d="M298.1,93.5v-8.9h1.1v8.9H298.1z"/>
		<path class="st5" d="M300.9,85.9v-1.3h1.1v1.3H300.9z M300.9,93.5v-6.5h1.1v6.5H300.9z"/>
		<path class="st5" d="M303.5,94.1l1.1,0.2c0,0.3,0.2,0.6,0.4,0.7c0.3,0.2,0.6,0.3,1.1,0.3c0.5,0,0.9-0.1,1.2-0.3
			c0.3-0.2,0.5-0.5,0.6-0.9c0.1-0.2,0.1-0.7,0.1-1.4c-0.5,0.6-1.1,0.8-1.8,0.8c-0.9,0-1.6-0.3-2.1-1c-0.5-0.6-0.7-1.4-0.7-2.3
			c0-0.6,0.1-1.2,0.3-1.7c0.2-0.5,0.5-0.9,1-1.2c0.4-0.3,0.9-0.4,1.5-0.4c0.8,0,1.4,0.3,1.9,0.9v-0.8h1v5.6c0,1-0.1,1.7-0.3,2.1
			c-0.2,0.4-0.5,0.8-1,1c-0.4,0.2-1,0.4-1.6,0.4c-0.8,0-1.4-0.2-1.9-0.5C303.7,95.3,303.4,94.8,303.5,94.1z M304.4,90.2
			c0,0.9,0.2,1.5,0.5,1.9s0.8,0.6,1.3,0.6c0.5,0,0.9-0.2,1.3-0.6s0.5-1,0.5-1.8c0-0.8-0.2-1.4-0.5-1.8c-0.4-0.4-0.8-0.6-1.3-0.6
			c-0.5,0-0.9,0.2-1.2,0.6S304.4,89.4,304.4,90.2z"/>
		<path class="st5" d="M310.6,93.5v-6.5h1V88c0.5-0.7,1.2-1.1,2.1-1.1c0.4,0,0.7,0.1,1.1,0.2c0.3,0.1,0.6,0.3,0.7,0.6
			c0.2,0.2,0.3,0.5,0.3,0.8c0,0.2,0.1,0.6,0.1,1.1v4h-1.1v-3.9c0-0.4,0-0.8-0.1-1c-0.1-0.2-0.2-0.4-0.5-0.5
			c-0.2-0.1-0.5-0.2-0.8-0.2c-0.5,0-0.9,0.1-1.2,0.4s-0.5,0.9-0.5,1.7v3.5H310.6z"/>
		<path class="st5" d="M322,91.5l1.1,0.1c-0.2,0.7-0.5,1.2-1,1.5c-0.5,0.4-1.1,0.5-1.9,0.5c-0.9,0-1.7-0.3-2.3-0.9
			c-0.6-0.6-0.8-1.4-0.8-2.5c0-1.1,0.3-1.9,0.8-2.5c0.6-0.6,1.3-0.9,2.2-0.9c0.9,0,1.6,0.3,2.1,0.9c0.5,0.6,0.8,1.4,0.8,2.5
			c0,0.1,0,0.2,0,0.3h-4.8c0,0.7,0.2,1.3,0.6,1.6c0.4,0.4,0.8,0.6,1.4,0.6c0.4,0,0.7-0.1,1-0.3C321.6,92.3,321.8,91.9,322,91.5z
			 M318.4,89.7h3.6c0-0.5-0.2-1-0.4-1.2c-0.4-0.4-0.8-0.6-1.4-0.6c-0.5,0-0.9,0.2-1.3,0.5S318.4,89.1,318.4,89.7z"/>
		<path class="st5" d="M324.5,93.5v-6.5h1v1c0.3-0.5,0.5-0.8,0.7-0.9s0.4-0.2,0.7-0.2c0.4,0,0.7,0.1,1.1,0.4l-0.4,1
			c-0.3-0.2-0.5-0.2-0.8-0.2c-0.2,0-0.5,0.1-0.6,0.2s-0.3,0.3-0.4,0.6c-0.1,0.4-0.2,0.8-0.2,1.3v3.4H324.5z"/>
		<path class="st5" d="M328.2,91.6l1.1-0.2c0.1,0.4,0.2,0.8,0.5,1c0.3,0.2,0.7,0.3,1.2,0.3c0.5,0,0.9-0.1,1.1-0.3
			c0.2-0.2,0.4-0.4,0.4-0.7c0-0.2-0.1-0.4-0.3-0.6c-0.2-0.1-0.5-0.2-1.1-0.4c-0.8-0.2-1.4-0.4-1.7-0.5c-0.3-0.1-0.5-0.4-0.7-0.6
			c-0.2-0.3-0.2-0.6-0.2-0.9c0-0.3,0.1-0.6,0.2-0.8c0.1-0.2,0.3-0.5,0.5-0.6c0.2-0.1,0.4-0.2,0.7-0.3s0.6-0.1,0.9-0.1
			c0.5,0,1,0.1,1.3,0.2s0.7,0.3,0.9,0.6c0.2,0.3,0.3,0.6,0.4,1l-1.1,0.1c0-0.3-0.2-0.6-0.4-0.8s-0.6-0.3-1-0.3
			c-0.5,0-0.9,0.1-1.1,0.3s-0.3,0.4-0.3,0.6c0,0.1,0,0.3,0.1,0.4c0.1,0.1,0.2,0.2,0.4,0.3c0.1,0,0.4,0.1,1,0.3
			c0.8,0.2,1.3,0.4,1.6,0.5s0.5,0.3,0.7,0.6c0.2,0.3,0.3,0.6,0.3,0.9c0,0.4-0.1,0.7-0.3,1c-0.2,0.3-0.5,0.6-0.9,0.8
			c-0.4,0.2-0.9,0.3-1.4,0.3c-0.8,0-1.5-0.2-1.9-0.5C328.6,92.8,328.4,92.3,328.2,91.6z"/>
		<path class="st5" d="M338.7,93.5v-5.6h-1v-0.9h1v-0.7c0-0.4,0-0.8,0.1-1c0.1-0.3,0.3-0.5,0.6-0.7s0.6-0.3,1.1-0.3
			c0.3,0,0.7,0,1,0.1l-0.2,1c-0.2,0-0.4-0.1-0.6-0.1c-0.3,0-0.6,0.1-0.7,0.2c-0.1,0.1-0.2,0.4-0.2,0.8v0.6h1.3v0.9h-1.3v5.6H338.7z"
			/>
		<path class="st5" d="M341.5,90.3c0-1.2,0.3-2.1,1-2.7c0.6-0.5,1.2-0.7,2-0.7c0.9,0,1.6,0.3,2.2,0.9c0.6,0.6,0.8,1.4,0.8,2.4
			c0,0.8-0.1,1.5-0.4,2c-0.3,0.5-0.6,0.8-1.1,1.1c-0.5,0.3-1,0.4-1.6,0.4c-0.9,0-1.6-0.3-2.2-0.9S341.5,91.4,341.5,90.3z
			 M342.6,90.3c0,0.8,0.2,1.5,0.5,1.9s0.8,0.6,1.4,0.6c0.5,0,1-0.2,1.4-0.6c0.4-0.4,0.5-1,0.5-1.9c0-0.8-0.2-1.4-0.5-1.8
			s-0.8-0.6-1.4-0.6c-0.5,0-1,0.2-1.4,0.6S342.6,89.5,342.6,90.3z"/>
		<path class="st5" d="M348.8,93.5v-6.5h1v1c0.3-0.5,0.5-0.8,0.7-0.9s0.4-0.2,0.7-0.2c0.4,0,0.7,0.1,1.1,0.4l-0.4,1
			c-0.3-0.2-0.5-0.2-0.8-0.2c-0.2,0-0.5,0.1-0.6,0.2s-0.3,0.3-0.4,0.6c-0.1,0.4-0.2,0.8-0.2,1.3v3.4H348.8z"/>
		<path class="st5" d="M356.2,91.2l1.2-0.1c0.1,0.6,0.3,1,0.6,1.3c0.3,0.3,0.7,0.4,1.1,0.4c0.5,0,1-0.2,1.3-0.6
			c0.4-0.4,0.5-0.9,0.5-1.6c0-0.6-0.2-1.1-0.5-1.5c-0.4-0.4-0.8-0.5-1.4-0.5c-0.4,0-0.7,0.1-1,0.2c-0.3,0.2-0.5,0.4-0.7,0.6l-1-0.1
			l0.9-4.6h4.4v1.1h-3.6l-0.5,2.4c0.5-0.4,1.1-0.6,1.7-0.6c0.8,0,1.4,0.3,2,0.8s0.8,1.2,0.8,2.1c0,0.8-0.2,1.5-0.7,2.1
			c-0.6,0.7-1.4,1.1-2.3,1.1c-0.8,0-1.5-0.2-2-0.7C356.5,92.6,356.2,92,356.2,91.2z"/>
		<path class="st5" d="M366.8,96l-0.1-1c0.2,0.1,0.4,0.1,0.6,0.1c0.2,0,0.4,0,0.6-0.1s0.3-0.2,0.4-0.3c0.1-0.1,0.2-0.4,0.3-0.8
			c0-0.1,0.1-0.2,0.1-0.3l-2.5-6.5h1.2l1.3,3.8c0.2,0.5,0.3,1,0.5,1.5c0.1-0.5,0.3-1,0.5-1.5l1.4-3.8h1.1l-2.5,6.6
			c-0.3,0.7-0.5,1.2-0.6,1.5c-0.2,0.4-0.4,0.6-0.7,0.8c-0.3,0.2-0.6,0.3-0.9,0.3C367.3,96.2,367.1,96.1,366.8,96z"/>
		<path class="st5" d="M377.6,91.5l1.1,0.1c-0.2,0.7-0.5,1.2-1,1.5c-0.5,0.4-1.1,0.5-1.9,0.5c-0.9,0-1.7-0.3-2.3-0.9
			c-0.6-0.6-0.8-1.4-0.8-2.5c0-1.1,0.3-1.9,0.8-2.5c0.6-0.6,1.3-0.9,2.2-0.9c0.9,0,1.6,0.3,2.1,0.9c0.5,0.6,0.8,1.4,0.8,2.5
			c0,0.1,0,0.2,0,0.3h-4.8c0,0.7,0.2,1.3,0.6,1.6c0.4,0.4,0.8,0.6,1.4,0.6c0.4,0,0.7-0.1,1-0.3C377.2,92.3,377.4,91.9,377.6,91.5z
			 M374,89.7h3.6c0-0.5-0.2-1-0.4-1.2c-0.4-0.4-0.8-0.6-1.4-0.6c-0.5,0-0.9,0.2-1.3,0.5S374,89.1,374,89.7z"/>
		<path class="st5" d="M384.3,92.7c-0.4,0.3-0.8,0.6-1.2,0.7c-0.4,0.1-0.8,0.2-1.2,0.2c-0.7,0-1.3-0.2-1.6-0.5
			c-0.4-0.3-0.6-0.8-0.6-1.3c0-0.3,0.1-0.6,0.2-0.9c0.1-0.3,0.3-0.5,0.6-0.6c0.2-0.2,0.5-0.3,0.8-0.4c0.2-0.1,0.5-0.1,1-0.2
			c0.9-0.1,1.5-0.2,2-0.4c0-0.2,0-0.2,0-0.3c0-0.4-0.1-0.8-0.3-0.9c-0.3-0.2-0.7-0.4-1.3-0.4c-0.5,0-0.9,0.1-1.1,0.3s-0.4,0.5-0.5,1
			l-1.1-0.1c0.1-0.5,0.3-0.8,0.5-1.1c0.2-0.3,0.5-0.5,1-0.7c0.4-0.2,0.9-0.2,1.5-0.2c0.6,0,1,0.1,1.3,0.2c0.3,0.1,0.6,0.3,0.8,0.5
			c0.2,0.2,0.3,0.4,0.3,0.7c0,0.2,0.1,0.5,0.1,1v1.5c0,1,0,1.7,0.1,1.9s0.1,0.5,0.3,0.8h-1.1C384.4,93.3,384.4,93,384.3,92.7z
			 M384.2,90.3c-0.4,0.2-1,0.3-1.8,0.4c-0.5,0.1-0.8,0.1-1,0.2c-0.2,0.1-0.3,0.2-0.4,0.4c-0.1,0.2-0.2,0.3-0.2,0.5
			c0,0.3,0.1,0.5,0.3,0.7s0.5,0.3,1,0.3c0.4,0,0.8-0.1,1.1-0.3c0.3-0.2,0.6-0.4,0.7-0.8c0.1-0.2,0.2-0.6,0.2-1.1V90.3z"/>
		<path class="st5" d="M387,93.5v-6.5h1v1c0.3-0.5,0.5-0.8,0.7-0.9s0.4-0.2,0.7-0.2c0.4,0,0.7,0.1,1.1,0.4l-0.4,1
			c-0.3-0.2-0.5-0.2-0.8-0.2c-0.2,0-0.5,0.1-0.6,0.2s-0.3,0.3-0.4,0.6c-0.1,0.4-0.2,0.8-0.2,1.3v3.4H387z"/>
		<path class="st5" d="M390.8,91.6l1.1-0.2c0.1,0.4,0.2,0.8,0.5,1c0.3,0.2,0.7,0.3,1.2,0.3c0.5,0,0.9-0.1,1.1-0.3
			c0.2-0.2,0.4-0.4,0.4-0.7c0-0.2-0.1-0.4-0.3-0.6c-0.2-0.1-0.5-0.2-1.1-0.4c-0.8-0.2-1.4-0.4-1.7-0.5c-0.3-0.1-0.5-0.4-0.7-0.6
			c-0.2-0.3-0.2-0.6-0.2-0.9c0-0.3,0.1-0.6,0.2-0.8c0.1-0.2,0.3-0.5,0.5-0.6c0.2-0.1,0.4-0.2,0.7-0.3s0.6-0.1,0.9-0.1
			c0.5,0,1,0.1,1.3,0.2s0.7,0.3,0.9,0.6c0.2,0.3,0.3,0.6,0.4,1l-1.1,0.1c0-0.3-0.2-0.6-0.4-0.8s-0.6-0.3-1-0.3
			c-0.5,0-0.9,0.1-1.1,0.3s-0.3,0.4-0.3,0.6c0,0.1,0,0.3,0.1,0.4c0.1,0.1,0.2,0.2,0.4,0.3c0.1,0,0.4,0.1,1,0.3
			c0.8,0.2,1.3,0.4,1.6,0.5s0.5,0.3,0.7,0.6c0.2,0.3,0.3,0.6,0.3,0.9c0,0.4-0.1,0.7-0.3,1c-0.2,0.3-0.5,0.6-0.9,0.8
			c-0.4,0.2-0.9,0.3-1.4,0.3c-0.8,0-1.5-0.2-1.9-0.5C391.2,92.8,390.9,92.3,390.8,91.6z"/>
	</g>
	<g>
		<path class="st5" d="M437.5,69.6h1.2v5.2c0,0.9-0.1,1.6-0.3,2.1s-0.6,1-1.1,1.3s-1.2,0.5-2.1,0.5c-0.8,0-1.5-0.1-2.1-0.4
			c-0.5-0.3-0.9-0.7-1.1-1.3c-0.2-0.5-0.3-1.3-0.3-2.2v-5.2h1.2v5.2c0,0.8,0.1,1.3,0.2,1.7c0.1,0.4,0.4,0.7,0.7,0.9s0.8,0.3,1.3,0.3
			c0.9,0,1.5-0.2,1.9-0.6s0.6-1.2,0.6-2.3V69.6z"/>
		<path class="st5" d="M440.5,78.5v-6.5h1V73c0.5-0.7,1.2-1.1,2.1-1.1c0.4,0,0.7,0.1,1.1,0.2c0.3,0.1,0.6,0.3,0.7,0.6
			c0.2,0.2,0.3,0.5,0.3,0.8c0,0.2,0.1,0.6,0.1,1.1v4h-1.1v-3.9c0-0.4,0-0.8-0.1-1c-0.1-0.2-0.2-0.4-0.5-0.5
			c-0.2-0.1-0.5-0.2-0.8-0.2c-0.5,0-0.9,0.1-1.2,0.4s-0.5,0.9-0.5,1.7v3.5H440.5z"/>
		<path class="st5" d="M447.4,78.5v-8.9h1.1v8.9H447.4z"/>
		<path class="st5" d="M450.3,70.9v-1.3h1.1v1.3H450.3z M450.3,78.5v-6.5h1.1v6.5H450.3z"/>
		<path class="st5" d="M453,78.5v-6.5h1V73c0.2-0.3,0.5-0.6,0.8-0.8c0.3-0.2,0.7-0.3,1.2-0.3c0.5,0,0.9,0.1,1.2,0.3s0.5,0.5,0.6,0.8
			c0.5-0.8,1.2-1.1,2-1.1c0.6,0,1.1,0.2,1.5,0.5c0.3,0.4,0.5,0.9,0.5,1.6v4.4h-1.1v-4.1c0-0.4,0-0.8-0.1-0.9
			c-0.1-0.2-0.2-0.3-0.4-0.5c-0.2-0.1-0.4-0.2-0.7-0.2c-0.5,0-0.8,0.2-1.1,0.5c-0.3,0.3-0.5,0.8-0.5,1.5v3.8h-1.1v-4.2
			c0-0.5-0.1-0.9-0.3-1.1c-0.2-0.2-0.5-0.4-0.9-0.4c-0.3,0-0.6,0.1-0.9,0.2c-0.3,0.2-0.5,0.4-0.6,0.7s-0.2,0.8-0.2,1.4v3.4H453z"/>
		<path class="st5" d="M463.4,70.9v-1.3h1.1v1.3H463.4z M463.4,78.5v-6.5h1.1v6.5H463.4z"/>
		<path class="st5" d="M468.6,77.6l0.2,1c-0.3,0.1-0.6,0.1-0.8,0.1c-0.4,0-0.7-0.1-0.9-0.2c-0.2-0.1-0.4-0.3-0.5-0.5
			c-0.1-0.2-0.1-0.6-0.1-1.3v-3.7h-0.8v-0.9h0.8v-1.6l1.1-0.7v2.3h1.1v0.9h-1.1v3.8c0,0.3,0,0.5,0.1,0.6c0,0.1,0.1,0.2,0.2,0.2
			c0.1,0.1,0.2,0.1,0.4,0.1C468.3,77.6,468.4,77.6,468.6,77.6z"/>
		<path class="st5" d="M474.1,76.5l1.1,0.1c-0.2,0.7-0.5,1.2-1,1.5c-0.5,0.4-1.1,0.5-1.9,0.5c-0.9,0-1.7-0.3-2.3-0.9
			s-0.8-1.4-0.8-2.5c0-1.1,0.3-1.9,0.8-2.5c0.6-0.6,1.3-0.9,2.2-0.9c0.9,0,1.6,0.3,2.1,0.9c0.5,0.6,0.8,1.4,0.8,2.5
			c0,0.1,0,0.2,0,0.3h-4.8c0,0.7,0.2,1.3,0.6,1.6c0.4,0.4,0.8,0.6,1.4,0.6c0.4,0,0.7-0.1,1-0.3C473.7,77.3,474,76.9,474.1,76.5z
			 M470.5,74.7h3.6c0-0.5-0.2-1-0.4-1.2c-0.3-0.4-0.8-0.6-1.4-0.6c-0.5,0-0.9,0.2-1.3,0.5S470.6,74.1,470.5,74.7z"/>
		<path class="st5" d="M480.8,78.5v-0.8c-0.4,0.6-1,1-1.8,1c-0.5,0-1-0.1-1.4-0.4c-0.4-0.3-0.8-0.7-1-1.2c-0.2-0.5-0.4-1.1-0.4-1.8
			c0-0.6,0.1-1.2,0.3-1.8c0.2-0.5,0.5-0.9,1-1.2c0.4-0.3,0.9-0.4,1.4-0.4c0.4,0,0.7,0.1,1,0.2c0.3,0.2,0.6,0.4,0.7,0.6v-3.2h1.1v8.9
			H480.8z M477.4,75.3c0,0.8,0.2,1.5,0.5,1.9c0.4,0.4,0.8,0.6,1.2,0.6c0.5,0,0.9-0.2,1.2-0.6c0.3-0.4,0.5-1,0.5-1.8
			c0-0.9-0.2-1.5-0.5-2s-0.8-0.6-1.3-0.6c-0.5,0-0.9,0.2-1.2,0.6C477.5,73.8,477.4,74.5,477.4,75.3z"/>
		<path class="st5" d="M491.3,77.7c-0.4,0.3-0.8,0.6-1.2,0.7s-0.8,0.2-1.2,0.2c-0.7,0-1.3-0.2-1.6-0.5c-0.4-0.3-0.6-0.8-0.6-1.3
			c0-0.3,0.1-0.6,0.2-0.9c0.1-0.3,0.3-0.5,0.6-0.6c0.2-0.2,0.5-0.3,0.8-0.4c0.2-0.1,0.5-0.1,1-0.2c0.9-0.1,1.5-0.2,2-0.4
			c0-0.2,0-0.2,0-0.3c0-0.4-0.1-0.8-0.3-0.9c-0.3-0.2-0.7-0.4-1.3-0.4c-0.5,0-0.9,0.1-1.1,0.3s-0.4,0.5-0.5,1l-1.1-0.1
			c0.1-0.5,0.3-0.8,0.5-1.1c0.2-0.3,0.5-0.5,1-0.7s0.9-0.2,1.5-0.2c0.6,0,1,0.1,1.3,0.2c0.3,0.1,0.6,0.3,0.8,0.5
			c0.2,0.2,0.3,0.4,0.3,0.7c0,0.2,0.1,0.5,0.1,1v1.5c0,1,0,1.7,0.1,1.9s0.1,0.5,0.3,0.8h-1.1C491.4,78.3,491.3,78,491.3,77.7z
			 M491.2,75.3c-0.4,0.2-1,0.3-1.8,0.4c-0.5,0.1-0.8,0.1-1,0.2c-0.2,0.1-0.3,0.2-0.4,0.4c-0.1,0.2-0.2,0.3-0.2,0.5
			c0,0.3,0.1,0.5,0.3,0.7s0.5,0.3,1,0.3c0.4,0,0.8-0.1,1.1-0.3c0.3-0.2,0.6-0.4,0.7-0.8c0.1-0.2,0.2-0.6,0.2-1.1V75.3z"/>
		<path class="st5" d="M498.2,78.5v-0.8c-0.4,0.6-1,1-1.8,1c-0.5,0-1-0.1-1.4-0.4c-0.4-0.3-0.8-0.7-1-1.2c-0.2-0.5-0.4-1.1-0.4-1.8
			c0-0.6,0.1-1.2,0.3-1.8c0.2-0.5,0.5-0.9,1-1.2c0.4-0.3,0.9-0.4,1.4-0.4c0.4,0,0.7,0.1,1,0.2c0.3,0.2,0.6,0.4,0.7,0.6v-3.2h1.1v8.9
			H498.2z M494.7,75.3c0,0.8,0.2,1.5,0.5,1.9c0.4,0.4,0.8,0.6,1.2,0.6c0.5,0,0.9-0.2,1.2-0.6c0.3-0.4,0.5-1,0.5-1.8
			c0-0.9-0.2-1.5-0.5-2s-0.8-0.6-1.3-0.6c-0.5,0-0.9,0.2-1.2,0.6C494.9,73.8,494.7,74.5,494.7,75.3z"/>
		<path class="st5" d="M505.2,78.5v-0.8c-0.4,0.6-1,1-1.8,1c-0.5,0-1-0.1-1.4-0.4c-0.4-0.3-0.8-0.7-1-1.2s-0.4-1.1-0.4-1.8
			c0-0.6,0.1-1.2,0.3-1.8c0.2-0.5,0.5-0.9,1-1.2c0.4-0.3,0.9-0.4,1.4-0.4c0.4,0,0.7,0.1,1,0.2c0.3,0.2,0.6,0.4,0.7,0.6v-3.2h1.1v8.9
			H505.2z M501.7,75.3c0,0.8,0.2,1.5,0.5,1.9s0.8,0.6,1.2,0.6c0.5,0,0.9-0.2,1.2-0.6s0.5-1,0.5-1.8c0-0.9-0.2-1.5-0.5-2
			s-0.8-0.6-1.3-0.6c-0.5,0-0.9,0.2-1.2,0.6C501.9,73.8,501.7,74.5,501.7,75.3z"/>
		<path class="st5" d="M507.9,70.9v-1.3h1.1v1.3H507.9z M507.9,78.5v-6.5h1.1v6.5H507.9z"/>
		<path class="st5" d="M513.1,77.6l0.2,1c-0.3,0.1-0.6,0.1-0.8,0.1c-0.4,0-0.7-0.1-0.9-0.2c-0.2-0.1-0.4-0.3-0.5-0.5
			c-0.1-0.2-0.1-0.6-0.1-1.3v-3.7h-0.8v-0.9h0.8v-1.6l1.1-0.7v2.3h1.1v0.9H512v3.8c0,0.3,0,0.5,0.1,0.6c0,0.1,0.1,0.2,0.2,0.2
			s0.2,0.1,0.4,0.1C512.7,77.6,512.9,77.6,513.1,77.6z"/>
		<path class="st5" d="M514.2,70.9v-1.3h1.1v1.3H514.2z M514.2,78.5v-6.5h1.1v6.5H514.2z"/>
		<path class="st5" d="M516.5,75.3c0-1.2,0.3-2.1,1-2.7c0.6-0.5,1.2-0.7,2-0.7c0.9,0,1.6,0.3,2.2,0.9c0.6,0.6,0.8,1.4,0.8,2.4
			c0,0.8-0.1,1.5-0.4,2c-0.3,0.5-0.6,0.8-1.1,1.1c-0.5,0.3-1,0.4-1.6,0.4c-0.9,0-1.6-0.3-2.2-0.9C516.8,77.2,516.5,76.4,516.5,75.3z
			 M517.7,75.3c0,0.8,0.2,1.5,0.5,1.9c0.4,0.4,0.8,0.6,1.4,0.6c0.5,0,1-0.2,1.4-0.6c0.4-0.4,0.5-1,0.5-1.9c0-0.8-0.2-1.4-0.5-1.8
			s-0.8-0.6-1.4-0.6c-0.5,0-1,0.2-1.4,0.6C517.8,73.9,517.7,74.5,517.7,75.3z"/>
		<path class="st5" d="M523.9,78.5v-6.5h1V73c0.5-0.7,1.2-1.1,2.1-1.1c0.4,0,0.8,0.1,1.1,0.2s0.6,0.3,0.7,0.6
			c0.2,0.2,0.3,0.5,0.3,0.8c0,0.2,0.1,0.6,0.1,1.1v4h-1.1v-3.9c0-0.4,0-0.8-0.1-1c-0.1-0.2-0.2-0.4-0.5-0.5
			c-0.2-0.1-0.5-0.2-0.8-0.2c-0.5,0-0.9,0.1-1.2,0.4S525,74.2,525,75v3.5H523.9z"/>
		<path class="st5" d="M535.1,77.7c-0.4,0.3-0.8,0.6-1.2,0.7c-0.4,0.1-0.8,0.2-1.2,0.2c-0.7,0-1.3-0.2-1.6-0.5
			c-0.4-0.3-0.6-0.8-0.6-1.3c0-0.3,0.1-0.6,0.2-0.9c0.1-0.3,0.3-0.5,0.6-0.6c0.2-0.2,0.5-0.3,0.8-0.4c0.2-0.1,0.5-0.1,1-0.2
			c0.9-0.1,1.5-0.2,2-0.4c0-0.2,0-0.2,0-0.3c0-0.4-0.1-0.8-0.3-0.9c-0.3-0.2-0.7-0.4-1.3-0.4c-0.5,0-0.9,0.1-1.1,0.3s-0.4,0.5-0.5,1
			l-1.1-0.1c0.1-0.5,0.3-0.8,0.5-1.1c0.2-0.3,0.5-0.5,1-0.7c0.4-0.2,0.9-0.2,1.5-0.2c0.6,0,1,0.1,1.3,0.2c0.3,0.1,0.6,0.3,0.8,0.5
			c0.2,0.2,0.3,0.4,0.3,0.7c0,0.2,0.1,0.5,0.1,1v1.5c0,1,0,1.7,0.1,1.9s0.1,0.5,0.3,0.8h-1.1C535.2,78.3,535.1,78,535.1,77.7z
			 M535,75.3c-0.4,0.2-1,0.3-1.8,0.4c-0.5,0.1-0.8,0.1-1,0.2c-0.2,0.1-0.3,0.2-0.4,0.4c-0.1,0.2-0.2,0.3-0.2,0.5
			c0,0.3,0.1,0.5,0.3,0.7s0.5,0.3,1,0.3c0.4,0,0.8-0.1,1.1-0.3c0.3-0.2,0.6-0.4,0.7-0.8c0.1-0.2,0.2-0.6,0.2-1.1V75.3z"/>
		<path class="st5" d="M537.8,78.5v-8.9h1.1v8.9H537.8z"/>
		<path class="st5" d="M435.7,92.7c-0.4,0.3-0.8,0.6-1.2,0.7c-0.4,0.1-0.8,0.2-1.2,0.2c-0.7,0-1.3-0.2-1.6-0.5
			c-0.4-0.3-0.6-0.8-0.6-1.3c0-0.3,0.1-0.6,0.2-0.9c0.1-0.3,0.3-0.5,0.6-0.6c0.2-0.2,0.5-0.3,0.8-0.4c0.2-0.1,0.5-0.1,1-0.2
			c0.9-0.1,1.5-0.2,2-0.4c0-0.2,0-0.2,0-0.3c0-0.4-0.1-0.8-0.3-0.9c-0.3-0.2-0.7-0.4-1.3-0.4c-0.5,0-0.9,0.1-1.1,0.3s-0.4,0.5-0.5,1
			l-1.1-0.1c0.1-0.5,0.3-0.8,0.5-1.1c0.2-0.3,0.5-0.5,1-0.7c0.4-0.2,0.9-0.2,1.5-0.2c0.6,0,1,0.1,1.3,0.2c0.3,0.1,0.6,0.3,0.8,0.5
			c0.2,0.2,0.3,0.4,0.3,0.7c0,0.2,0.1,0.5,0.1,1v1.5c0,1,0,1.7,0.1,1.9s0.1,0.5,0.3,0.8h-1.1C435.8,93.3,435.8,93,435.7,92.7z
			 M435.6,90.3c-0.4,0.2-1,0.3-1.8,0.4c-0.5,0.1-0.8,0.1-1,0.2c-0.2,0.1-0.3,0.2-0.4,0.4c-0.1,0.2-0.2,0.3-0.2,0.5
			c0,0.3,0.1,0.5,0.3,0.7s0.5,0.3,1,0.3c0.4,0,0.8-0.1,1.1-0.3c0.3-0.2,0.6-0.4,0.7-0.8c0.1-0.2,0.2-0.6,0.2-1.1V90.3z"/>
		<path class="st5" d="M438.4,93.5v-8.9h1.1v8.9H438.4z"/>
		<path class="st5" d="M441.2,85.9v-1.3h1.1v1.3H441.2z M441.2,93.5v-6.5h1.1v6.5H441.2z"/>
		<path class="st5" d="M443.8,94.1l1.1,0.2c0,0.3,0.2,0.6,0.4,0.7c0.3,0.2,0.6,0.3,1.1,0.3c0.5,0,0.9-0.1,1.2-0.3
			c0.3-0.2,0.5-0.5,0.6-0.9c0.1-0.2,0.1-0.7,0.1-1.4c-0.5,0.6-1.1,0.8-1.8,0.8c-0.9,0-1.6-0.3-2.1-1c-0.5-0.6-0.7-1.4-0.7-2.3
			c0-0.6,0.1-1.2,0.3-1.7c0.2-0.5,0.5-0.9,1-1.2s0.9-0.4,1.5-0.4c0.8,0,1.4,0.3,1.9,0.9v-0.8h1v5.6c0,1-0.1,1.7-0.3,2.1
			s-0.5,0.8-1,1s-1,0.4-1.6,0.4c-0.8,0-1.4-0.2-1.9-0.5C444,95.3,443.8,94.8,443.8,94.1z M444.7,90.2c0,0.9,0.2,1.5,0.5,1.9
			s0.8,0.6,1.3,0.6c0.5,0,0.9-0.2,1.3-0.6s0.5-1,0.5-1.8c0-0.8-0.2-1.4-0.5-1.8c-0.4-0.4-0.8-0.6-1.3-0.6c-0.5,0-0.9,0.2-1.2,0.6
			S444.7,89.4,444.7,90.2z"/>
		<path class="st5" d="M450.9,93.5v-6.5h1V88c0.5-0.7,1.2-1.1,2.1-1.1c0.4,0,0.7,0.1,1.1,0.2c0.3,0.1,0.6,0.3,0.7,0.6
			c0.2,0.2,0.3,0.5,0.3,0.8c0,0.2,0.1,0.6,0.1,1.1v4h-1.1v-3.9c0-0.4,0-0.8-0.1-1c-0.1-0.2-0.2-0.4-0.5-0.5
			c-0.2-0.1-0.5-0.2-0.8-0.2c-0.5,0-0.9,0.1-1.2,0.4S452,89.2,452,90v3.5H450.9z"/>
		<path class="st5" d="M462.3,91.5l1.1,0.1c-0.2,0.7-0.5,1.2-1,1.5c-0.5,0.4-1.1,0.5-1.9,0.5c-0.9,0-1.7-0.3-2.3-0.9
			s-0.8-1.4-0.8-2.5c0-1.1,0.3-1.9,0.8-2.5c0.6-0.6,1.3-0.9,2.2-0.9c0.9,0,1.6,0.3,2.1,0.9c0.5,0.6,0.8,1.4,0.8,2.5
			c0,0.1,0,0.2,0,0.3h-4.8c0,0.7,0.2,1.3,0.6,1.6c0.4,0.4,0.8,0.6,1.4,0.6c0.4,0,0.7-0.1,1-0.3C461.9,92.3,462.2,91.9,462.3,91.5z
			 M458.7,89.7h3.6c0-0.5-0.2-1-0.4-1.2c-0.3-0.4-0.8-0.6-1.4-0.6c-0.5,0-0.9,0.2-1.3,0.5S458.8,89.1,458.7,89.7z"/>
		<path class="st5" d="M464.8,93.5v-6.5h1v1c0.3-0.5,0.5-0.8,0.7-0.9c0.2-0.1,0.4-0.2,0.7-0.2c0.4,0,0.7,0.1,1.1,0.4l-0.4,1
			c-0.3-0.2-0.5-0.2-0.8-0.2c-0.2,0-0.5,0.1-0.6,0.2s-0.3,0.3-0.4,0.6c-0.1,0.4-0.2,0.8-0.2,1.3v3.4H464.8z"/>
		<path class="st5" d="M468.6,91.6l1.1-0.2c0.1,0.4,0.2,0.8,0.5,1c0.3,0.2,0.7,0.3,1.2,0.3c0.5,0,0.9-0.1,1.1-0.3
			c0.2-0.2,0.4-0.4,0.4-0.7c0-0.2-0.1-0.4-0.3-0.6c-0.2-0.1-0.5-0.2-1.1-0.4c-0.8-0.2-1.4-0.4-1.7-0.5c-0.3-0.1-0.5-0.4-0.7-0.6
			c-0.2-0.3-0.2-0.6-0.2-0.9c0-0.3,0.1-0.6,0.2-0.8s0.3-0.5,0.5-0.6c0.2-0.1,0.4-0.2,0.7-0.3s0.6-0.1,0.9-0.1c0.5,0,1,0.1,1.3,0.2
			c0.4,0.1,0.7,0.3,0.9,0.6c0.2,0.3,0.3,0.6,0.4,1l-1.1,0.1c0-0.3-0.2-0.6-0.4-0.8s-0.6-0.3-1-0.3c-0.5,0-0.9,0.1-1.1,0.3
			c-0.2,0.2-0.3,0.4-0.3,0.6c0,0.1,0,0.3,0.1,0.4c0.1,0.1,0.2,0.2,0.4,0.3c0.1,0,0.4,0.1,1,0.3c0.8,0.2,1.3,0.4,1.6,0.5
			c0.3,0.1,0.5,0.3,0.7,0.6c0.2,0.3,0.3,0.6,0.3,0.9c0,0.4-0.1,0.7-0.3,1c-0.2,0.3-0.5,0.6-0.9,0.8s-0.9,0.3-1.4,0.3
			c-0.8,0-1.5-0.2-1.9-0.5C469,92.8,468.7,92.3,468.6,91.6z"/>
		<path class="st5" d="M479,93.5v-5.6h-1v-0.9h1v-0.7c0-0.4,0-0.8,0.1-1c0.1-0.3,0.3-0.5,0.6-0.7s0.6-0.3,1.1-0.3c0.3,0,0.7,0,1,0.1
			l-0.2,1c-0.2,0-0.4-0.1-0.6-0.1c-0.3,0-0.6,0.1-0.7,0.2c-0.1,0.1-0.2,0.4-0.2,0.8v0.6h1.3v0.9h-1.3v5.6H479z"/>
		<path class="st5" d="M481.8,90.3c0-1.2,0.3-2.1,1-2.7c0.6-0.5,1.2-0.7,2-0.7c0.9,0,1.6,0.3,2.2,0.9c0.6,0.6,0.8,1.4,0.8,2.4
			c0,0.8-0.1,1.5-0.4,2c-0.3,0.5-0.6,0.8-1.1,1.1c-0.5,0.3-1,0.4-1.6,0.4c-0.9,0-1.6-0.3-2.2-0.9C482.1,92.2,481.8,91.4,481.8,90.3z
			 M482.9,90.3c0,0.8,0.2,1.5,0.5,1.9c0.4,0.4,0.8,0.6,1.4,0.6c0.5,0,1-0.2,1.4-0.6c0.4-0.4,0.5-1,0.5-1.9c0-0.8-0.2-1.4-0.5-1.8
			s-0.8-0.6-1.4-0.6c-0.5,0-1,0.2-1.4,0.6C483.1,88.9,482.9,89.5,482.9,90.3z"/>
		<path class="st5" d="M489.2,93.5v-6.5h1v1c0.3-0.5,0.5-0.8,0.7-0.9c0.2-0.1,0.4-0.2,0.7-0.2c0.4,0,0.7,0.1,1.1,0.4l-0.4,1
			c-0.3-0.2-0.5-0.2-0.8-0.2c-0.2,0-0.5,0.1-0.6,0.2s-0.3,0.3-0.4,0.6c-0.1,0.4-0.2,0.8-0.2,1.3v3.4H489.2z"/>
		<path class="st5" d="M496.5,91.2l1.2-0.1c0.1,0.6,0.3,1,0.6,1.3s0.7,0.4,1.1,0.4c0.5,0,1-0.2,1.3-0.6c0.4-0.4,0.5-0.9,0.5-1.6
			c0-0.6-0.2-1.1-0.5-1.5c-0.4-0.4-0.8-0.5-1.4-0.5c-0.4,0-0.7,0.1-1,0.2c-0.3,0.2-0.5,0.4-0.7,0.6l-1-0.1l0.9-4.6h4.4v1.1h-3.6
			l-0.5,2.4c0.5-0.4,1.1-0.6,1.7-0.6c0.8,0,1.4,0.3,2,0.8s0.8,1.2,0.8,2.1c0,0.8-0.2,1.5-0.7,2.1c-0.6,0.7-1.4,1.1-2.3,1.1
			c-0.8,0-1.5-0.2-2-0.7C496.9,92.6,496.6,92,496.5,91.2z"/>
		<path class="st5" d="M507.2,96l-0.1-1c0.2,0.1,0.4,0.1,0.6,0.1c0.2,0,0.4,0,0.6-0.1s0.3-0.2,0.4-0.3c0.1-0.1,0.2-0.4,0.3-0.8
			c0-0.1,0.1-0.2,0.1-0.3l-2.5-6.5h1.2l1.3,3.8c0.2,0.5,0.3,1,0.5,1.5c0.1-0.5,0.3-1,0.5-1.5l1.4-3.8h1.1l-2.5,6.6
			c-0.3,0.7-0.5,1.2-0.6,1.5c-0.2,0.4-0.4,0.6-0.7,0.8s-0.6,0.3-0.9,0.3C507.7,96.2,507.4,96.1,507.2,96z"/>
		<path class="st5" d="M517.9,91.5l1.1,0.1c-0.2,0.7-0.5,1.2-1,1.5c-0.5,0.4-1.1,0.5-1.9,0.5c-0.9,0-1.7-0.3-2.3-0.9
			c-0.6-0.6-0.8-1.4-0.8-2.5c0-1.1,0.3-1.9,0.8-2.5c0.6-0.6,1.3-0.9,2.2-0.9c0.9,0,1.6,0.3,2.1,0.9c0.5,0.6,0.8,1.4,0.8,2.5
			c0,0.1,0,0.2,0,0.3h-4.8c0,0.7,0.2,1.3,0.6,1.6c0.4,0.4,0.8,0.6,1.4,0.6c0.4,0,0.7-0.1,1-0.3S517.7,91.9,517.9,91.5z M514.3,89.7
			h3.6c0-0.5-0.2-1-0.4-1.2c-0.4-0.4-0.8-0.6-1.4-0.6c-0.5,0-0.9,0.2-1.3,0.5S514.3,89.1,514.3,89.7z"/>
		<path class="st5" d="M524.7,92.7c-0.4,0.3-0.8,0.6-1.2,0.7s-0.8,0.2-1.2,0.2c-0.7,0-1.3-0.2-1.6-0.5c-0.4-0.3-0.6-0.8-0.6-1.3
			c0-0.3,0.1-0.6,0.2-0.9c0.1-0.3,0.3-0.5,0.6-0.6c0.2-0.2,0.5-0.3,0.8-0.4c0.2-0.1,0.5-0.1,1-0.2c0.9-0.1,1.5-0.2,2-0.4
			c0-0.2,0-0.2,0-0.3c0-0.4-0.1-0.8-0.3-0.9c-0.3-0.2-0.7-0.4-1.3-0.4c-0.5,0-0.9,0.1-1.1,0.3s-0.4,0.5-0.5,1l-1.1-0.1
			c0.1-0.5,0.3-0.8,0.5-1.1c0.2-0.3,0.5-0.5,1-0.7s0.9-0.2,1.5-0.2c0.6,0,1,0.1,1.3,0.2c0.3,0.1,0.6,0.3,0.8,0.5
			c0.2,0.2,0.3,0.4,0.3,0.7c0,0.2,0.1,0.5,0.1,1v1.5c0,1,0,1.7,0.1,1.9s0.1,0.5,0.3,0.8h-1.1C524.8,93.3,524.7,93,524.7,92.7z
			 M524.6,90.3c-0.4,0.2-1,0.3-1.8,0.4c-0.5,0.1-0.8,0.1-1,0.2c-0.2,0.1-0.3,0.2-0.4,0.4c-0.1,0.2-0.2,0.3-0.2,0.5
			c0,0.3,0.1,0.5,0.3,0.7s0.5,0.3,1,0.3c0.4,0,0.8-0.1,1.1-0.3c0.3-0.2,0.6-0.4,0.7-0.8c0.1-0.2,0.2-0.6,0.2-1.1V90.3z"/>
		<path class="st5" d="M527.4,93.5v-6.5h1v1c0.3-0.5,0.5-0.8,0.7-0.9c0.2-0.1,0.4-0.2,0.7-0.2c0.4,0,0.7,0.1,1.1,0.4l-0.4,1
			c-0.3-0.2-0.5-0.2-0.8-0.2c-0.2,0-0.5,0.1-0.6,0.2s-0.3,0.3-0.4,0.6c-0.1,0.4-0.2,0.8-0.2,1.3v3.4H527.4z"/>
		<path class="st5" d="M531.1,91.6l1.1-0.2c0.1,0.4,0.2,0.8,0.5,1c0.3,0.2,0.7,0.3,1.2,0.3c0.5,0,0.9-0.1,1.1-0.3
			c0.2-0.2,0.4-0.4,0.4-0.7c0-0.2-0.1-0.4-0.3-0.6c-0.2-0.1-0.5-0.2-1.1-0.4c-0.8-0.2-1.4-0.4-1.7-0.5c-0.3-0.1-0.5-0.4-0.7-0.6
			c-0.2-0.3-0.2-0.6-0.2-0.9c0-0.3,0.1-0.6,0.2-0.8s0.3-0.5,0.5-0.6c0.2-0.1,0.4-0.2,0.7-0.3s0.6-0.1,0.9-0.1c0.5,0,1,0.1,1.3,0.2
			c0.4,0.1,0.7,0.3,0.9,0.6c0.2,0.3,0.3,0.6,0.4,1l-1.1,0.1c0-0.3-0.2-0.6-0.4-0.8s-0.6-0.3-1-0.3c-0.5,0-0.9,0.1-1.1,0.3
			c-0.2,0.2-0.3,0.4-0.3,0.6c0,0.1,0,0.3,0.1,0.4c0.1,0.1,0.2,0.2,0.4,0.3c0.1,0,0.4,0.1,1,0.3c0.8,0.2,1.3,0.4,1.6,0.5
			c0.3,0.1,0.5,0.3,0.7,0.6c0.2,0.3,0.3,0.6,0.3,0.9c0,0.4-0.1,0.7-0.3,1c-0.2,0.3-0.5,0.6-0.9,0.8s-0.9,0.3-1.4,0.3
			c-0.8,0-1.5-0.2-1.9-0.5C531.5,92.8,531.2,92.3,531.1,91.6z"/>
	</g>
	<g>
		<path class="st5" d="M156.8,34.5h1.2v5.2c0,0.9-0.1,1.6-0.3,2.1s-0.6,1-1.1,1.3c-0.5,0.3-1.2,0.5-2.1,0.5c-0.8,0-1.5-0.1-2.1-0.4
			c-0.5-0.3-0.9-0.7-1.1-1.3c-0.2-0.5-0.3-1.3-0.3-2.2v-5.2h1.2v5.2c0,0.8,0.1,1.3,0.2,1.7c0.1,0.4,0.4,0.7,0.7,0.9s0.8,0.3,1.3,0.3
			c0.9,0,1.5-0.2,1.9-0.6c0.4-0.4,0.6-1.2,0.6-2.3V34.5z"/>
		<path class="st5" d="M159.9,45.9v-9h1v0.8c0.2-0.3,0.5-0.6,0.8-0.7c0.3-0.2,0.7-0.2,1.1-0.2c0.6,0,1,0.1,1.5,0.4
			c0.4,0.3,0.7,0.7,1,1.2c0.2,0.5,0.3,1.1,0.3,1.7c0,0.7-0.1,1.3-0.4,1.8c-0.2,0.5-0.6,0.9-1,1.2c-0.5,0.3-0.9,0.4-1.4,0.4
			c-0.4,0-0.7-0.1-1-0.2c-0.3-0.2-0.5-0.3-0.7-0.6v3.2H159.9z M160.8,40.2c0,0.8,0.2,1.5,0.5,1.8c0.3,0.4,0.7,0.6,1.2,0.6
			c0.5,0,0.9-0.2,1.3-0.6c0.3-0.4,0.5-1.1,0.5-1.9c0-0.8-0.2-1.4-0.5-1.9c-0.3-0.4-0.7-0.6-1.2-0.6c-0.5,0-0.9,0.2-1.2,0.7
			C161,38.8,160.8,39.4,160.8,40.2z"/>
		<path class="st5" d="M172.7,42.5l0.2,1c-0.3,0.1-0.6,0.1-0.8,0.1c-0.4,0-0.7-0.1-0.9-0.2s-0.4-0.3-0.5-0.5
			c-0.1-0.2-0.1-0.6-0.1-1.3v-3.7h-0.8V37h0.8v-1.6l1.1-0.7V37h1.1v0.9h-1.1v3.8c0,0.3,0,0.5,0.1,0.6c0,0.1,0.1,0.2,0.2,0.2
			c0.1,0.1,0.2,0.1,0.4,0.1C172.3,42.5,172.5,42.5,172.7,42.5z"/>
		<path class="st5" d="M173.3,40.2c0-1.2,0.3-2.1,1-2.7c0.6-0.5,1.2-0.7,2-0.7c0.9,0,1.6,0.3,2.2,0.9c0.6,0.6,0.8,1.4,0.8,2.4
			c0,0.8-0.1,1.5-0.4,2c-0.3,0.5-0.6,0.8-1.1,1.1s-1,0.4-1.6,0.4c-0.9,0-1.6-0.3-2.2-0.9C173.6,42.1,173.3,41.3,173.3,40.2z
			 M174.5,40.2c0,0.8,0.2,1.5,0.5,1.9s0.8,0.6,1.4,0.6c0.5,0,1-0.2,1.4-0.6c0.4-0.4,0.5-1,0.5-1.9c0-0.8-0.2-1.4-0.5-1.8
			s-0.8-0.6-1.4-0.6c-0.5,0-1,0.2-1.4,0.6S174.5,39.4,174.5,40.2z"/>
		<path class="st5" d="M188,43.5h-1.1v-7c-0.3,0.3-0.6,0.5-1,0.8c-0.4,0.3-0.8,0.4-1.2,0.6v-1.1c0.6-0.3,1.2-0.6,1.6-1
			c0.5-0.4,0.8-0.8,1-1.2h0.7V43.5z"/>
		<path class="st5" d="M194.3,43.5v-2.1h-3.9v-1l4.1-5.8h0.9v5.8h1.2v1h-1.2v2.1H194.3z M194.3,40.3v-4l-2.8,4H194.3z"/>
		<path class="st5" d="M200,43.5l3.4-8.9h1.3l3.7,8.9H207l-1-2.7h-3.7l-1,2.7H200z M202.6,39.8h3l-0.9-2.5c-0.3-0.8-0.5-1.4-0.6-1.9
			c-0.1,0.6-0.3,1.1-0.5,1.7L202.6,39.8z"/>
		<path class="st5" d="M209.2,43.5v-8.9h1.1v8.9H209.2z"/>
		<path class="st5" d="M212,35.8v-1.3h1.1v1.3H212z M212,43.5V37h1.1v6.5H212z"/>
		<path class="st5" d="M214.6,44l1.1,0.2c0,0.3,0.2,0.6,0.4,0.7c0.3,0.2,0.6,0.3,1.1,0.3c0.5,0,0.9-0.1,1.2-0.3s0.5-0.5,0.6-0.9
			c0.1-0.2,0.1-0.7,0.1-1.4c-0.5,0.6-1.1,0.8-1.8,0.8c-0.9,0-1.6-0.3-2.1-1c-0.5-0.6-0.7-1.4-0.7-2.3c0-0.6,0.1-1.2,0.3-1.7
			c0.2-0.5,0.5-0.9,1-1.2s0.9-0.4,1.5-0.4c0.8,0,1.4,0.3,1.9,0.9V37h1v5.6c0,1-0.1,1.7-0.3,2.1c-0.2,0.4-0.5,0.8-1,1
			c-0.4,0.2-1,0.4-1.6,0.4c-0.8,0-1.4-0.2-1.9-0.5C214.8,45.2,214.5,44.7,214.6,44z M215.5,40.1c0,0.9,0.2,1.5,0.5,1.9
			s0.8,0.6,1.3,0.6c0.5,0,0.9-0.2,1.3-0.6s0.5-1,0.5-1.8c0-0.8-0.2-1.4-0.5-1.8c-0.4-0.4-0.8-0.6-1.3-0.6c-0.5,0-0.9,0.2-1.2,0.6
			S215.5,39.3,215.5,40.1z"/>
		<path class="st5" d="M221.7,43.5V37h1v0.9c0.5-0.7,1.2-1.1,2.1-1.1c0.4,0,0.7,0.1,1.1,0.2c0.3,0.1,0.6,0.3,0.7,0.6
			c0.2,0.2,0.3,0.5,0.3,0.8c0,0.2,0.1,0.6,0.1,1.1v4h-1.1v-3.9c0-0.4,0-0.8-0.1-1c-0.1-0.2-0.2-0.4-0.5-0.5
			c-0.2-0.1-0.5-0.2-0.8-0.2c-0.5,0-0.9,0.1-1.2,0.4s-0.5,0.9-0.5,1.7v3.5H221.7z"/>
		<path class="st5" d="M233.1,41.4l1.1,0.1c-0.2,0.7-0.5,1.2-1,1.5c-0.5,0.4-1.1,0.5-1.9,0.5c-0.9,0-1.7-0.3-2.3-0.9
			c-0.6-0.6-0.8-1.4-0.8-2.5c0-1.1,0.3-1.9,0.8-2.5c0.6-0.6,1.3-0.9,2.2-0.9c0.9,0,1.6,0.3,2.1,0.9c0.5,0.6,0.8,1.4,0.8,2.5
			c0,0.1,0,0.2,0,0.3h-4.8c0,0.7,0.2,1.3,0.6,1.6c0.4,0.4,0.8,0.6,1.4,0.6c0.4,0,0.7-0.1,1-0.3C232.7,42.2,232.9,41.8,233.1,41.4z
			 M229.5,39.6h3.6c0-0.5-0.2-1-0.4-1.2c-0.4-0.4-0.8-0.6-1.4-0.6c-0.5,0-0.9,0.2-1.3,0.5S229.5,39,229.5,39.6z"/>
		<path class="st5" d="M235.6,43.5V37h1v1c0.3-0.5,0.5-0.8,0.7-0.9c0.2-0.1,0.4-0.2,0.7-0.2c0.4,0,0.7,0.1,1.1,0.4l-0.4,1
			c-0.3-0.2-0.5-0.2-0.8-0.2c-0.2,0-0.5,0.1-0.6,0.2s-0.3,0.3-0.4,0.6c-0.1,0.4-0.2,0.8-0.2,1.3v3.4H235.6z"/>
		<path class="st5" d="M239.3,41.5l1.1-0.2c0.1,0.4,0.2,0.8,0.5,1c0.3,0.2,0.7,0.3,1.2,0.3c0.5,0,0.9-0.1,1.1-0.3
			c0.2-0.2,0.4-0.4,0.4-0.7c0-0.2-0.1-0.4-0.3-0.6c-0.2-0.1-0.5-0.2-1.1-0.4c-0.8-0.2-1.4-0.4-1.7-0.5c-0.3-0.1-0.5-0.4-0.7-0.6
			c-0.2-0.3-0.2-0.6-0.2-0.9c0-0.3,0.1-0.6,0.2-0.8c0.1-0.2,0.3-0.5,0.5-0.6c0.2-0.1,0.4-0.2,0.7-0.3s0.6-0.1,0.9-0.1
			c0.5,0,1,0.1,1.3,0.2c0.4,0.1,0.7,0.3,0.9,0.6c0.2,0.3,0.3,0.6,0.4,1l-1.1,0.1c0-0.3-0.2-0.6-0.4-0.8c-0.2-0.2-0.6-0.3-1-0.3
			c-0.5,0-0.9,0.1-1.1,0.3s-0.3,0.4-0.3,0.6c0,0.1,0,0.3,0.1,0.4c0.1,0.1,0.2,0.2,0.4,0.3c0.1,0,0.4,0.1,1,0.3
			c0.8,0.2,1.3,0.4,1.6,0.5c0.3,0.1,0.5,0.3,0.7,0.6c0.2,0.3,0.3,0.6,0.3,0.9c0,0.4-0.1,0.7-0.3,1c-0.2,0.3-0.5,0.6-0.9,0.8
			c-0.4,0.2-0.9,0.3-1.4,0.3c-0.8,0-1.5-0.2-1.9-0.5C239.7,42.7,239.5,42.2,239.3,41.5z"/>
	</g>
	<g>
		<path class="st5" d="M297.2,34.5h1.2v5.2c0,0.9-0.1,1.6-0.3,2.1c-0.2,0.5-0.6,1-1.1,1.3s-1.2,0.5-2.1,0.5c-0.8,0-1.5-0.1-2.1-0.4
			c-0.5-0.3-0.9-0.7-1.1-1.3c-0.2-0.5-0.3-1.3-0.3-2.2v-5.2h1.2v5.2c0,0.8,0.1,1.3,0.2,1.7c0.1,0.4,0.4,0.7,0.7,0.9
			c0.4,0.2,0.8,0.3,1.3,0.3c0.9,0,1.5-0.2,1.9-0.6c0.4-0.4,0.6-1.2,0.6-2.3V34.5z"/>
		<path class="st5" d="M300.2,45.9v-9h1v0.8c0.2-0.3,0.5-0.6,0.8-0.7c0.3-0.2,0.7-0.2,1.1-0.2c0.6,0,1,0.1,1.5,0.4
			c0.4,0.3,0.7,0.7,1,1.2c0.2,0.5,0.3,1.1,0.3,1.7c0,0.7-0.1,1.3-0.4,1.8c-0.2,0.5-0.6,0.9-1,1.2c-0.5,0.3-0.9,0.4-1.4,0.4
			c-0.4,0-0.7-0.1-1-0.2c-0.3-0.2-0.5-0.3-0.7-0.6v3.2H300.2z M301.2,40.2c0,0.8,0.2,1.5,0.5,1.8c0.3,0.4,0.7,0.6,1.2,0.6
			c0.5,0,0.9-0.2,1.3-0.6c0.3-0.4,0.5-1.1,0.5-1.9c0-0.8-0.2-1.4-0.5-1.9s-0.7-0.6-1.2-0.6c-0.5,0-0.9,0.2-1.2,0.7
			C301.4,38.8,301.2,39.4,301.2,40.2z"/>
		<path class="st5" d="M313,42.5l0.2,1c-0.3,0.1-0.6,0.1-0.8,0.1c-0.4,0-0.7-0.1-0.9-0.2s-0.4-0.3-0.5-0.5c-0.1-0.2-0.1-0.6-0.1-1.3
			v-3.7H310V37h0.8v-1.6l1.1-0.7V37h1.1v0.9h-1.1v3.8c0,0.3,0,0.5,0.1,0.6c0,0.1,0.1,0.2,0.2,0.2c0.1,0.1,0.2,0.1,0.4,0.1
			C312.6,42.5,312.8,42.5,313,42.5z"/>
		<path class="st5" d="M313.7,40.2c0-1.2,0.3-2.1,1-2.7c0.6-0.5,1.2-0.7,2-0.7c0.9,0,1.6,0.3,2.2,0.9c0.6,0.6,0.8,1.4,0.8,2.4
			c0,0.8-0.1,1.5-0.4,2c-0.3,0.5-0.6,0.8-1.1,1.1c-0.5,0.3-1,0.4-1.6,0.4c-0.9,0-1.6-0.3-2.2-0.9S313.7,41.3,313.7,40.2z
			 M314.8,40.2c0,0.8,0.2,1.5,0.5,1.9s0.8,0.6,1.4,0.6c0.5,0,1-0.2,1.4-0.6c0.4-0.4,0.5-1,0.5-1.9c0-0.8-0.2-1.4-0.5-1.8
			s-0.8-0.6-1.4-0.6c-0.5,0-1,0.2-1.4,0.6S314.8,39.4,314.8,40.2z"/>
		<path class="st5" d="M330,42.4v1.1h-5.9c0-0.3,0-0.5,0.1-0.8c0.2-0.4,0.4-0.8,0.7-1.2s0.8-0.8,1.4-1.4c1-0.8,1.6-1.4,2-1.9
			s0.5-0.9,0.5-1.3c0-0.4-0.2-0.8-0.5-1.1c-0.3-0.3-0.7-0.4-1.2-0.4c-0.5,0-1,0.2-1.3,0.5s-0.5,0.8-0.5,1.3l-1.1-0.1
			c0.1-0.8,0.4-1.5,0.9-1.9c0.5-0.4,1.2-0.7,2-0.7c0.9,0,1.5,0.2,2,0.7c0.5,0.5,0.8,1.1,0.8,1.8c0,0.4-0.1,0.7-0.2,1.1
			s-0.4,0.7-0.7,1.1c-0.3,0.4-0.9,0.9-1.7,1.6c-0.7,0.6-1.1,0.9-1.3,1.1c-0.2,0.2-0.3,0.4-0.5,0.6H330z"/>
		<path class="st5" d="M336.9,36.7l-1.1,0.1c-0.1-0.4-0.2-0.7-0.4-0.9c-0.3-0.3-0.7-0.5-1.1-0.5c-0.4,0-0.7,0.1-0.9,0.3
			c-0.3,0.3-0.6,0.6-0.8,1.1c-0.2,0.5-0.3,1.2-0.3,2.1c0.3-0.4,0.6-0.7,1-0.9c0.4-0.2,0.8-0.3,1.2-0.3c0.7,0,1.4,0.3,1.9,0.8
			c0.5,0.5,0.8,1.2,0.8,2.1c0,0.6-0.1,1.1-0.4,1.6s-0.6,0.9-1,1.1c-0.4,0.3-0.9,0.4-1.4,0.4c-0.9,0-1.7-0.3-2.2-1
			c-0.6-0.7-0.9-1.8-0.9-3.3c0-1.7,0.3-3,1-3.8c0.6-0.7,1.3-1,2.3-1c0.7,0,1.3,0.2,1.7,0.6C336.5,35.5,336.8,36,336.9,36.7z
			 M332.4,40.6c0,0.4,0.1,0.7,0.2,1.1c0.2,0.3,0.4,0.6,0.7,0.8c0.3,0.2,0.6,0.3,0.9,0.3c0.5,0,0.9-0.2,1.2-0.6
			c0.3-0.4,0.5-0.9,0.5-1.5c0-0.6-0.2-1.1-0.5-1.5c-0.3-0.4-0.7-0.5-1.2-0.5c-0.5,0-0.9,0.2-1.3,0.5S332.4,40,332.4,40.6z"/>
		<path class="st5" d="M340.4,43.5l3.4-8.9h1.3l3.7,8.9h-1.3l-1-2.7h-3.7l-1,2.7H340.4z M342.9,39.8h3l-0.9-2.5
			c-0.3-0.8-0.5-1.4-0.6-1.9c-0.1,0.6-0.3,1.1-0.5,1.7L342.9,39.8z"/>
		<path class="st5" d="M349.5,43.5v-8.9h1.1v8.9H349.5z"/>
		<path class="st5" d="M352.3,35.8v-1.3h1.1v1.3H352.3z M352.3,43.5V37h1.1v6.5H352.3z"/>
		<path class="st5" d="M354.9,44l1.1,0.2c0,0.3,0.2,0.6,0.4,0.7c0.3,0.2,0.6,0.3,1.1,0.3c0.5,0,0.9-0.1,1.2-0.3
			c0.3-0.2,0.5-0.5,0.6-0.9c0.1-0.2,0.1-0.7,0.1-1.4c-0.5,0.6-1.1,0.8-1.8,0.8c-0.9,0-1.6-0.3-2.1-1c-0.5-0.6-0.7-1.4-0.7-2.3
			c0-0.6,0.1-1.2,0.3-1.7c0.2-0.5,0.5-0.9,1-1.2c0.4-0.3,0.9-0.4,1.5-0.4c0.8,0,1.4,0.3,1.9,0.9V37h1v5.6c0,1-0.1,1.7-0.3,2.1
			c-0.2,0.4-0.5,0.8-1,1c-0.4,0.2-1,0.4-1.6,0.4c-0.8,0-1.4-0.2-1.9-0.5C355.1,45.2,354.9,44.7,354.9,44z M355.8,40.1
			c0,0.9,0.2,1.5,0.5,1.9s0.8,0.6,1.3,0.6c0.5,0,0.9-0.2,1.3-0.6s0.5-1,0.5-1.8c0-0.8-0.2-1.4-0.5-1.8c-0.4-0.4-0.8-0.6-1.3-0.6
			c-0.5,0-0.9,0.2-1.2,0.6S355.8,39.3,355.8,40.1z"/>
		<path class="st5" d="M362,43.5V37h1v0.9c0.5-0.7,1.2-1.1,2.1-1.1c0.4,0,0.7,0.1,1.1,0.2c0.3,0.1,0.6,0.3,0.7,0.6
			c0.2,0.2,0.3,0.5,0.3,0.8c0,0.2,0.1,0.6,0.1,1.1v4h-1.1v-3.9c0-0.4,0-0.8-0.1-1c-0.1-0.2-0.2-0.4-0.5-0.5
			c-0.2-0.1-0.5-0.2-0.8-0.2c-0.5,0-0.9,0.1-1.2,0.4s-0.5,0.9-0.5,1.7v3.5H362z"/>
		<path class="st5" d="M373.4,41.4l1.1,0.1c-0.2,0.7-0.5,1.2-1,1.5c-0.5,0.4-1.1,0.5-1.9,0.5c-0.9,0-1.7-0.3-2.3-0.9
			c-0.6-0.6-0.8-1.4-0.8-2.5c0-1.1,0.3-1.9,0.8-2.5c0.6-0.6,1.3-0.9,2.2-0.9c0.9,0,1.6,0.3,2.1,0.9c0.5,0.6,0.8,1.4,0.8,2.5
			c0,0.1,0,0.2,0,0.3h-4.8c0,0.7,0.2,1.3,0.6,1.6c0.4,0.4,0.8,0.6,1.4,0.6c0.4,0,0.7-0.1,1-0.3C373,42.2,373.3,41.8,373.4,41.4z
			 M369.8,39.6h3.6c0-0.5-0.2-1-0.4-1.2c-0.4-0.4-0.8-0.6-1.4-0.6c-0.5,0-0.9,0.2-1.3,0.5S369.9,39,369.8,39.6z"/>
		<path class="st5" d="M375.9,43.5V37h1v1c0.3-0.5,0.5-0.8,0.7-0.9s0.4-0.2,0.7-0.2c0.4,0,0.7,0.1,1.1,0.4l-0.4,1
			c-0.3-0.2-0.5-0.2-0.8-0.2c-0.2,0-0.5,0.1-0.6,0.2s-0.3,0.3-0.4,0.6c-0.1,0.4-0.2,0.8-0.2,1.3v3.4H375.9z"/>
		<path class="st5" d="M379.7,41.5l1.1-0.2c0.1,0.4,0.2,0.8,0.5,1c0.3,0.2,0.7,0.3,1.2,0.3c0.5,0,0.9-0.1,1.1-0.3
			c0.2-0.2,0.4-0.4,0.4-0.7c0-0.2-0.1-0.4-0.3-0.6c-0.2-0.1-0.5-0.2-1.1-0.4c-0.8-0.2-1.4-0.4-1.7-0.5s-0.5-0.4-0.7-0.6
			c-0.2-0.3-0.2-0.6-0.2-0.9c0-0.3,0.1-0.6,0.2-0.8s0.3-0.5,0.5-0.6c0.2-0.1,0.4-0.2,0.7-0.3s0.6-0.1,0.9-0.1c0.5,0,1,0.1,1.3,0.2
			c0.4,0.1,0.7,0.3,0.9,0.6c0.2,0.3,0.3,0.6,0.4,1l-1.1,0.1c0-0.3-0.2-0.6-0.4-0.8c-0.2-0.2-0.6-0.3-1-0.3c-0.5,0-0.9,0.1-1.1,0.3
			s-0.3,0.4-0.3,0.6c0,0.1,0,0.3,0.1,0.4c0.1,0.1,0.2,0.2,0.4,0.3c0.1,0,0.4,0.1,1,0.3c0.8,0.2,1.3,0.4,1.6,0.5
			c0.3,0.1,0.5,0.3,0.7,0.6c0.2,0.3,0.3,0.6,0.3,0.9c0,0.4-0.1,0.7-0.3,1c-0.2,0.3-0.5,0.6-0.9,0.8c-0.4,0.2-0.9,0.3-1.4,0.3
			c-0.8,0-1.5-0.2-1.9-0.5C380.1,42.7,379.8,42.2,379.7,41.5z"/>
	</g>
	<g>
		<path class="st5" d="M437.5,35.1h1.2v5.2c0,0.9-0.1,1.6-0.3,2.1s-0.6,1-1.1,1.3s-1.2,0.5-2.1,0.5c-0.8,0-1.5-0.1-2.1-0.4
			c-0.5-0.3-0.9-0.7-1.1-1.3c-0.2-0.5-0.3-1.3-0.3-2.2v-5.2h1.2v5.2c0,0.8,0.1,1.3,0.2,1.7c0.1,0.4,0.4,0.7,0.7,0.9s0.8,0.3,1.3,0.3
			c0.9,0,1.5-0.2,1.9-0.6s0.6-1.2,0.6-2.3V35.1z"/>
		<path class="st5" d="M440.5,44.1v-6.5h1v0.9c0.5-0.7,1.2-1.1,2.1-1.1c0.4,0,0.7,0.1,1.1,0.2c0.3,0.1,0.6,0.3,0.7,0.6
			c0.2,0.2,0.3,0.5,0.3,0.8c0,0.2,0.1,0.6,0.1,1.1v4h-1.1v-3.9c0-0.4,0-0.8-0.1-1c-0.1-0.2-0.2-0.4-0.5-0.5
			c-0.2-0.1-0.5-0.2-0.8-0.2c-0.5,0-0.9,0.1-1.2,0.4s-0.5,0.9-0.5,1.7v3.5H440.5z"/>
		<path class="st5" d="M447.4,44.1v-8.9h1.1v8.9H447.4z"/>
		<path class="st5" d="M450.3,36.4v-1.3h1.1v1.3H450.3z M450.3,44.1v-6.5h1.1v6.5H450.3z"/>
		<path class="st5" d="M453,44.1v-6.5h1v0.9c0.2-0.3,0.5-0.6,0.8-0.8c0.3-0.2,0.7-0.3,1.2-0.3c0.5,0,0.9,0.1,1.2,0.3
			s0.5,0.5,0.6,0.8c0.5-0.8,1.2-1.1,2-1.1c0.6,0,1.1,0.2,1.5,0.5c0.3,0.4,0.5,0.9,0.5,1.6v4.4h-1.1V40c0-0.4,0-0.8-0.1-0.9
			c-0.1-0.2-0.2-0.3-0.4-0.5c-0.2-0.1-0.4-0.2-0.7-0.2c-0.5,0-0.8,0.2-1.1,0.5c-0.3,0.3-0.5,0.8-0.5,1.5v3.8h-1.1v-4.2
			c0-0.5-0.1-0.9-0.3-1.1c-0.2-0.2-0.5-0.4-0.9-0.4c-0.3,0-0.6,0.1-0.9,0.2c-0.3,0.2-0.5,0.4-0.6,0.7s-0.2,0.8-0.2,1.4v3.4H453z"/>
		<path class="st5" d="M463.4,36.4v-1.3h1.1v1.3H463.4z M463.4,44.1v-6.5h1.1v6.5H463.4z"/>
		<path class="st5" d="M468.6,43.1l0.2,1c-0.3,0.1-0.6,0.1-0.8,0.1c-0.4,0-0.7-0.1-0.9-0.2c-0.2-0.1-0.4-0.3-0.5-0.5
			c-0.1-0.2-0.1-0.6-0.1-1.3v-3.7h-0.8v-0.9h0.8V36l1.1-0.7v2.3h1.1v0.9h-1.1v3.8c0,0.3,0,0.5,0.1,0.6c0,0.1,0.1,0.2,0.2,0.2
			c0.1,0.1,0.2,0.1,0.4,0.1C468.3,43.1,468.4,43.1,468.6,43.1z"/>
		<path class="st5" d="M474.1,42l1.1,0.1c-0.2,0.7-0.5,1.2-1,1.5c-0.5,0.4-1.1,0.5-1.9,0.5c-0.9,0-1.7-0.3-2.3-0.9s-0.8-1.4-0.8-2.5
			c0-1.1,0.3-1.9,0.8-2.5c0.6-0.6,1.3-0.9,2.2-0.9c0.9,0,1.6,0.3,2.1,0.9c0.5,0.6,0.8,1.4,0.8,2.5c0,0.1,0,0.2,0,0.3h-4.8
			c0,0.7,0.2,1.3,0.6,1.6c0.4,0.4,0.8,0.6,1.4,0.6c0.4,0,0.7-0.1,1-0.3C473.7,42.8,474,42.5,474.1,42z M470.5,40.2h3.6
			c0-0.5-0.2-1-0.4-1.2c-0.3-0.4-0.8-0.6-1.4-0.6c-0.5,0-0.9,0.2-1.3,0.5S470.6,39.6,470.5,40.2z"/>
		<path class="st5" d="M480.8,44.1v-0.8c-0.4,0.6-1,1-1.8,1c-0.5,0-1-0.1-1.4-0.4c-0.4-0.3-0.8-0.7-1-1.2c-0.2-0.5-0.4-1.1-0.4-1.8
			c0-0.6,0.1-1.2,0.3-1.8c0.2-0.5,0.5-0.9,1-1.2c0.4-0.3,0.9-0.4,1.4-0.4c0.4,0,0.7,0.1,1,0.2c0.3,0.2,0.6,0.4,0.7,0.6v-3.2h1.1v8.9
			H480.8z M477.4,40.8c0,0.8,0.2,1.5,0.5,1.9c0.4,0.4,0.8,0.6,1.2,0.6c0.5,0,0.9-0.2,1.2-0.6c0.3-0.4,0.5-1,0.5-1.8
			c0-0.9-0.2-1.5-0.5-2s-0.8-0.6-1.3-0.6c-0.5,0-0.9,0.2-1.2,0.6C477.5,39.4,477.4,40,477.4,40.8z"/>
		<path class="st5" d="M485.5,44.1l3.4-8.9h1.3l3.7,8.9h-1.3l-1-2.7h-3.7l-1,2.7H485.5z M488.1,40.4h3l-0.9-2.5
			c-0.3-0.8-0.5-1.4-0.6-1.9c-0.1,0.6-0.3,1.1-0.5,1.7L488.1,40.4z"/>
		<path class="st5" d="M494.7,44.1v-8.9h1.1v8.9H494.7z"/>
		<path class="st5" d="M497.5,36.4v-1.3h1.1v1.3H497.5z M497.5,44.1v-6.5h1.1v6.5H497.5z"/>
		<path class="st5" d="M500.1,44.6l1.1,0.2c0,0.3,0.2,0.6,0.4,0.7c0.3,0.2,0.6,0.3,1.1,0.3c0.5,0,0.9-0.1,1.2-0.3
			c0.3-0.2,0.5-0.5,0.6-0.9c0.1-0.2,0.1-0.7,0.1-1.4c-0.5,0.6-1.1,0.8-1.8,0.8c-0.9,0-1.6-0.3-2.1-1c-0.5-0.6-0.7-1.4-0.7-2.3
			c0-0.6,0.1-1.2,0.3-1.7c0.2-0.5,0.5-0.9,1-1.2s0.9-0.4,1.5-0.4c0.8,0,1.4,0.3,1.9,0.9v-0.8h1v5.6c0,1-0.1,1.7-0.3,2.1
			c-0.2,0.4-0.5,0.8-1,1c-0.4,0.2-1,0.4-1.6,0.4c-0.8,0-1.4-0.2-1.9-0.5C500.3,45.8,500,45.3,500.1,44.6z M501,40.7
			c0,0.9,0.2,1.5,0.5,1.9s0.8,0.6,1.3,0.6c0.5,0,0.9-0.2,1.3-0.6s0.5-1,0.5-1.8c0-0.8-0.2-1.4-0.5-1.8c-0.4-0.4-0.8-0.6-1.3-0.6
			c-0.5,0-0.9,0.2-1.2,0.6S501,39.9,501,40.7z"/>
		<path class="st5" d="M507.2,44.1v-6.5h1v0.9c0.5-0.7,1.2-1.1,2.1-1.1c0.4,0,0.8,0.1,1.1,0.2s0.6,0.3,0.7,0.6
			c0.2,0.2,0.3,0.5,0.3,0.8c0,0.2,0.1,0.6,0.1,1.1v4h-1.1v-3.9c0-0.4,0-0.8-0.1-1c-0.1-0.2-0.2-0.4-0.5-0.5
			c-0.2-0.1-0.5-0.2-0.8-0.2c-0.5,0-0.9,0.1-1.2,0.4s-0.5,0.9-0.5,1.7v3.5H507.2z"/>
		<path class="st5" d="M518.6,42l1.1,0.1c-0.2,0.7-0.5,1.2-1,1.5c-0.5,0.4-1.1,0.5-1.9,0.5c-0.9,0-1.7-0.3-2.3-0.9
			c-0.6-0.6-0.8-1.4-0.8-2.5c0-1.1,0.3-1.9,0.8-2.5c0.6-0.6,1.3-0.9,2.2-0.9c0.9,0,1.6,0.3,2.1,0.9c0.5,0.6,0.8,1.4,0.8,2.5
			c0,0.1,0,0.2,0,0.3h-4.8c0,0.7,0.2,1.3,0.6,1.6c0.4,0.4,0.8,0.6,1.4,0.6c0.4,0,0.7-0.1,1-0.3S518.4,42.5,518.6,42z M515,40.2h3.6
			c0-0.5-0.2-1-0.4-1.2c-0.4-0.4-0.8-0.6-1.4-0.6c-0.5,0-0.9,0.2-1.3,0.5S515,39.6,515,40.2z"/>
		<path class="st5" d="M521.1,44.1v-6.5h1v1c0.3-0.5,0.5-0.8,0.7-0.9c0.2-0.1,0.4-0.2,0.7-0.2c0.4,0,0.7,0.1,1.1,0.4l-0.4,1
			c-0.3-0.2-0.5-0.2-0.8-0.2c-0.2,0-0.5,0.1-0.6,0.2s-0.3,0.3-0.4,0.6c-0.1,0.4-0.2,0.8-0.2,1.3v3.4H521.1z"/>
		<path class="st5" d="M524.8,42.1l1.1-0.2c0.1,0.4,0.2,0.8,0.5,1c0.3,0.2,0.7,0.3,1.2,0.3c0.5,0,0.9-0.1,1.1-0.3
			c0.2-0.2,0.4-0.4,0.4-0.7c0-0.2-0.1-0.4-0.3-0.6c-0.2-0.1-0.5-0.2-1.1-0.4c-0.8-0.2-1.4-0.4-1.7-0.5c-0.3-0.1-0.5-0.4-0.7-0.6
			c-0.2-0.3-0.2-0.6-0.2-0.9c0-0.3,0.1-0.6,0.2-0.8c0.1-0.2,0.3-0.5,0.5-0.6c0.2-0.1,0.4-0.2,0.7-0.3s0.6-0.1,0.9-0.1
			c0.5,0,1,0.1,1.3,0.2s0.7,0.3,0.9,0.6c0.2,0.3,0.3,0.6,0.4,1l-1.1,0.1c0-0.3-0.2-0.6-0.4-0.8c-0.2-0.2-0.6-0.3-1-0.3
			c-0.5,0-0.9,0.1-1.1,0.3s-0.3,0.4-0.3,0.6c0,0.1,0,0.3,0.1,0.4c0.1,0.1,0.2,0.2,0.4,0.3c0.1,0,0.4,0.1,1,0.3
			c0.8,0.2,1.3,0.4,1.6,0.5c0.3,0.1,0.5,0.3,0.7,0.6c0.2,0.3,0.3,0.6,0.3,0.9c0,0.4-0.1,0.7-0.3,1c-0.2,0.3-0.5,0.6-0.9,0.8
			c-0.4,0.2-0.9,0.3-1.4,0.3c-0.8,0-1.5-0.2-1.9-0.5C525.2,43.3,525,42.8,524.8,42.1z"/>
	</g>
	<g>
		<path class="st3" d="M10.5,17.5V8.5h1.8v8.9H10.5z"/>
		<path class="st3" d="M19.9,17.5h-1.7v-3.3c0-0.7,0-1.2-0.1-1.4s-0.2-0.4-0.4-0.5c-0.2-0.1-0.4-0.2-0.6-0.2c-0.3,0-0.6,0.1-0.8,0.2
			c-0.2,0.2-0.4,0.4-0.5,0.6c-0.1,0.3-0.1,0.8-0.1,1.5v2.9H14V11h1.6v1c0.6-0.7,1.3-1.1,2.1-1.1c0.4,0,0.7,0.1,1,0.2
			s0.6,0.3,0.7,0.5c0.2,0.2,0.3,0.5,0.3,0.7c0.1,0.3,0.1,0.7,0.1,1.2V17.5z"/>
		<path class="st3" d="M23.5,17.5L20.8,11h1.8l1.2,3.3l0.4,1.1c0.1-0.3,0.2-0.5,0.2-0.6c0.1-0.2,0.1-0.4,0.2-0.5l1.2-3.3h1.8
			L25,17.5H23.5z"/>
		<path class="st3" d="M28.6,10.1V8.5h1.7v1.6H28.6z M28.6,17.5V11h1.7v6.5H28.6z"/>
		<path class="st3" d="M31.5,15.6l1.7-0.3c0.1,0.3,0.2,0.6,0.4,0.8c0.2,0.2,0.5,0.3,0.9,0.3c0.4,0,0.8-0.1,1-0.2
			c0.2-0.1,0.2-0.3,0.2-0.5c0-0.1,0-0.2-0.1-0.3c-0.1-0.1-0.3-0.2-0.6-0.2c-1.4-0.3-2.3-0.6-2.6-0.8c-0.5-0.4-0.8-0.8-0.8-1.5
			c0-0.6,0.2-1,0.7-1.4c0.4-0.4,1.1-0.6,2.1-0.6c0.9,0,1.5,0.1,2,0.4s0.7,0.7,0.9,1.3l-1.6,0.3c-0.1-0.3-0.2-0.4-0.4-0.6
			c-0.2-0.1-0.5-0.2-0.8-0.2c-0.5,0-0.8,0.1-1,0.2c-0.1,0.1-0.2,0.2-0.2,0.3c0,0.1,0.1,0.2,0.2,0.3c0.2,0.1,0.7,0.3,1.6,0.5
			c0.9,0.2,1.6,0.5,1.9,0.8c0.4,0.3,0.5,0.7,0.5,1.3c0,0.6-0.2,1.1-0.7,1.5c-0.5,0.4-1.2,0.6-2.2,0.6c-0.9,0-1.6-0.2-2.1-0.5
			C32,16.7,31.7,16.2,31.5,15.6z"/>
		<path class="st3" d="M40.3,12.9l-1.6-0.3c0.2-0.6,0.5-1.1,0.9-1.4s1.1-0.5,1.9-0.5c0.8,0,1.3,0.1,1.7,0.3c0.4,0.2,0.6,0.4,0.8,0.7
			c0.2,0.3,0.2,0.8,0.2,1.5l0,2c0,0.6,0,1,0.1,1.3c0.1,0.3,0.2,0.6,0.3,0.9H43c0-0.1-0.1-0.3-0.2-0.5c0-0.1,0-0.2-0.1-0.2
			c-0.3,0.3-0.6,0.5-0.9,0.6c-0.3,0.1-0.7,0.2-1.1,0.2c-0.7,0-1.2-0.2-1.6-0.5c-0.4-0.4-0.6-0.8-0.6-1.4c0-0.4,0.1-0.7,0.3-1
			c0.2-0.3,0.4-0.5,0.7-0.7c0.3-0.2,0.8-0.3,1.4-0.4c0.8-0.2,1.4-0.3,1.7-0.4V13c0-0.3-0.1-0.6-0.2-0.7c-0.2-0.1-0.5-0.2-0.9-0.2
			c-0.3,0-0.5,0.1-0.7,0.2S40.4,12.6,40.3,12.9z M42.6,14.3c-0.2,0.1-0.6,0.2-1,0.3s-0.8,0.2-0.9,0.3c-0.2,0.2-0.3,0.4-0.3,0.6
			c0,0.2,0.1,0.4,0.3,0.6s0.4,0.3,0.7,0.3c0.3,0,0.6-0.1,0.9-0.3c0.2-0.2,0.3-0.3,0.4-0.6c0-0.1,0.1-0.4,0.1-0.8V14.3z"/>
		<path class="st3" d="M46,17.5V8.5h1.7v8.9H46z"/>
		<path class="st3" d="M49.5,10.1V8.5h1.7v1.6H49.5z M49.5,17.5V11h1.7v6.5H49.5z"/>
		<path class="st3" d="M52.8,17.9l2,0.2c0,0.2,0.1,0.4,0.2,0.5c0.2,0.1,0.4,0.2,0.8,0.2c0.4,0,0.8-0.1,1-0.2
			c0.2-0.1,0.3-0.2,0.3-0.4c0.1-0.1,0.1-0.4,0.1-0.8v-0.9c-0.5,0.7-1.2,1-1.9,1c-0.9,0-1.6-0.4-2.1-1.1c-0.4-0.6-0.6-1.3-0.6-2.2
			c0-1.1,0.3-1.9,0.8-2.5c0.5-0.6,1.2-0.9,2-0.9c0.8,0,1.5,0.4,2,1.1V11h1.6v5.8c0,0.8-0.1,1.3-0.2,1.7c-0.1,0.4-0.3,0.7-0.5,0.9
			c-0.2,0.2-0.5,0.4-0.9,0.5s-0.9,0.2-1.4,0.2c-1.1,0-1.9-0.2-2.3-0.6c-0.5-0.4-0.7-0.9-0.7-1.4C52.8,18,52.8,18,52.8,17.9z
			 M54.3,14.1c0,0.7,0.1,1.2,0.4,1.5c0.3,0.3,0.6,0.5,1,0.5c0.4,0,0.8-0.2,1.1-0.5c0.3-0.3,0.4-0.8,0.4-1.5c0-0.7-0.1-1.2-0.4-1.5
			c-0.3-0.3-0.6-0.5-1-0.5c-0.4,0-0.8,0.2-1,0.5C54.5,12.9,54.3,13.4,54.3,14.1z"/>
		<path class="st3" d="M66.5,17.5h-1.7v-3.3c0-0.7,0-1.2-0.1-1.4s-0.2-0.4-0.4-0.5c-0.2-0.1-0.4-0.2-0.6-0.2c-0.3,0-0.6,0.1-0.8,0.2
			c-0.2,0.2-0.4,0.4-0.5,0.6c-0.1,0.3-0.1,0.8-0.1,1.5v2.9h-1.7V11h1.6v1c0.6-0.7,1.3-1.1,2.1-1.1c0.4,0,0.7,0.1,1,0.2
			s0.6,0.3,0.7,0.5c0.2,0.2,0.3,0.5,0.3,0.7c0.1,0.3,0.1,0.7,0.1,1.2V17.5z"/>
		<path class="st3" d="M71.7,10.1V8.5h1.7v1.6H71.7z M71.7,17.5V11h1.7v6.5H71.7z"/>
		<path class="st3" d="M74.8,10.2V8.6h5.9v1.2c-0.5,0.5-1,1.2-1.5,2.1c-0.5,0.9-0.9,1.8-1.1,2.8c-0.3,1-0.4,1.9-0.4,2.7H76
			c0-1.2,0.3-2.5,0.8-3.8c0.5-1.3,1.1-2.4,1.9-3.4H74.8z"/>
	</g>
	<g>
		<path class="st3" d="M150.9,17.5V8.5h1.8v8.9H150.9z"/>
		<path class="st3" d="M160.3,17.5h-1.7v-3.3c0-0.7,0-1.2-0.1-1.4s-0.2-0.4-0.4-0.5c-0.2-0.1-0.4-0.2-0.6-0.2
			c-0.3,0-0.6,0.1-0.8,0.2c-0.2,0.2-0.4,0.4-0.5,0.6c-0.1,0.3-0.1,0.8-0.1,1.5v2.9h-1.7V11h1.6v1c0.6-0.7,1.3-1.1,2.1-1.1
			c0.4,0,0.7,0.1,1,0.2s0.6,0.3,0.7,0.5c0.2,0.2,0.3,0.5,0.3,0.7c0.1,0.3,0.1,0.7,0.1,1.2V17.5z"/>
		<path class="st3" d="M163.8,17.5l-2.6-6.5h1.8l1.2,3.3l0.4,1.1c0.1-0.3,0.2-0.5,0.2-0.6c0.1-0.2,0.1-0.4,0.2-0.5l1.2-3.3h1.8
			l-2.6,6.5H163.8z"/>
		<path class="st3" d="M169,10.1V8.5h1.7v1.6H169z M169,17.5V11h1.7v6.5H169z"/>
		<path class="st3" d="M171.8,15.6l1.7-0.3c0.1,0.3,0.2,0.6,0.4,0.8c0.2,0.2,0.5,0.3,0.9,0.3c0.4,0,0.8-0.1,1-0.2
			c0.2-0.1,0.2-0.3,0.2-0.5c0-0.1,0-0.2-0.1-0.3c-0.1-0.1-0.3-0.2-0.6-0.2c-1.4-0.3-2.3-0.6-2.6-0.8c-0.5-0.4-0.8-0.8-0.8-1.5
			c0-0.6,0.2-1,0.7-1.4s1.1-0.6,2.1-0.6c0.9,0,1.5,0.1,2,0.4s0.7,0.7,0.9,1.3l-1.6,0.3c-0.1-0.3-0.2-0.4-0.4-0.6
			c-0.2-0.1-0.5-0.2-0.8-0.2c-0.5,0-0.8,0.1-1,0.2c-0.1,0.1-0.2,0.2-0.2,0.3c0,0.1,0.1,0.2,0.2,0.3c0.2,0.1,0.7,0.3,1.6,0.5
			c0.9,0.2,1.6,0.5,1.9,0.8c0.4,0.3,0.5,0.7,0.5,1.3c0,0.6-0.2,1.1-0.7,1.5c-0.5,0.4-1.2,0.6-2.2,0.6c-0.9,0-1.6-0.2-2.1-0.5
			C172.3,16.7,172,16.2,171.8,15.6z"/>
		<path class="st3" d="M180.7,12.9l-1.6-0.3c0.2-0.6,0.5-1.1,0.9-1.4s1.1-0.5,1.9-0.5c0.8,0,1.3,0.1,1.7,0.3
			c0.4,0.2,0.6,0.4,0.8,0.7c0.2,0.3,0.2,0.8,0.2,1.5l0,2c0,0.6,0,1,0.1,1.3c0.1,0.3,0.2,0.6,0.3,0.9h-1.7c0-0.1-0.1-0.3-0.2-0.5
			c0-0.1,0-0.2-0.1-0.2c-0.3,0.3-0.6,0.5-0.9,0.6c-0.3,0.1-0.7,0.2-1.1,0.2c-0.7,0-1.2-0.2-1.6-0.5c-0.4-0.4-0.6-0.8-0.6-1.4
			c0-0.4,0.1-0.7,0.3-1c0.2-0.3,0.4-0.5,0.7-0.7c0.3-0.2,0.8-0.3,1.4-0.4c0.8-0.2,1.4-0.3,1.7-0.4V13c0-0.3-0.1-0.6-0.2-0.7
			c-0.2-0.1-0.5-0.2-0.9-0.2c-0.3,0-0.5,0.1-0.7,0.2S180.8,12.6,180.7,12.9z M183,14.3c-0.2,0.1-0.6,0.2-1,0.3s-0.8,0.2-0.9,0.3
			c-0.2,0.2-0.3,0.4-0.3,0.6c0,0.2,0.1,0.4,0.3,0.6s0.4,0.3,0.7,0.3c0.3,0,0.6-0.1,0.9-0.3c0.2-0.2,0.3-0.3,0.4-0.6
			c0-0.1,0.1-0.4,0.1-0.8V14.3z"/>
		<path class="st3" d="M186.3,17.5V8.5h1.7v8.9H186.3z"/>
		<path class="st3" d="M189.8,10.1V8.5h1.7v1.6H189.8z M189.8,17.5V11h1.7v6.5H189.8z"/>
		<path class="st3" d="M193.1,17.9l2,0.2c0,0.2,0.1,0.4,0.2,0.5c0.2,0.1,0.4,0.2,0.8,0.2c0.4,0,0.8-0.1,1-0.2
			c0.2-0.1,0.3-0.2,0.3-0.4c0.1-0.1,0.1-0.4,0.1-0.8v-0.9c-0.5,0.7-1.2,1-1.9,1c-0.9,0-1.6-0.4-2.1-1.1c-0.4-0.6-0.6-1.3-0.6-2.2
			c0-1.1,0.3-1.9,0.8-2.5c0.5-0.6,1.2-0.9,2-0.9c0.8,0,1.5,0.4,2,1.1V11h1.6v5.8c0,0.8-0.1,1.3-0.2,1.7c-0.1,0.4-0.3,0.7-0.5,0.9
			c-0.2,0.2-0.5,0.4-0.9,0.5s-0.9,0.2-1.4,0.2c-1.1,0-1.9-0.2-2.3-0.6c-0.5-0.4-0.7-0.9-0.7-1.4C193.1,18,193.1,18,193.1,17.9z
			 M194.7,14.1c0,0.7,0.1,1.2,0.4,1.5c0.3,0.3,0.6,0.5,1,0.5c0.4,0,0.8-0.2,1.1-0.5c0.3-0.3,0.4-0.8,0.4-1.5c0-0.7-0.1-1.2-0.4-1.5
			c-0.3-0.3-0.6-0.5-1-0.5c-0.4,0-0.8,0.2-1,0.5C194.8,12.9,194.7,13.4,194.7,14.1z"/>
		<path class="st3" d="M206.8,17.5h-1.7v-3.3c0-0.7,0-1.2-0.1-1.4s-0.2-0.4-0.4-0.5c-0.2-0.1-0.4-0.2-0.6-0.2
			c-0.3,0-0.6,0.1-0.8,0.2c-0.2,0.2-0.4,0.4-0.5,0.6c-0.1,0.3-0.1,0.8-0.1,1.5v2.9h-1.7V11h1.6v1c0.6-0.7,1.3-1.1,2.1-1.1
			c0.4,0,0.7,0.1,1,0.2s0.6,0.3,0.7,0.5c0.2,0.2,0.3,0.5,0.3,0.7c0.1,0.3,0.1,0.7,0.1,1.2V17.5z"/>
		<path class="st3" d="M212.1,17.5V8.6h1.8v7.4h4.5v1.5H212.1z"/>
		<path class="st3" d="M219.7,10.1V8.5h1.7v1.6H219.7z M219.7,17.5V11h1.7v6.5H219.7z"/>
		<path class="st3" d="M226.1,11v1.4h-1.2v2.6c0,0.5,0,0.8,0,0.9c0,0.1,0.1,0.2,0.2,0.2c0.1,0.1,0.2,0.1,0.3,0.1
			c0.2,0,0.4-0.1,0.7-0.2l0.1,1.3c-0.4,0.2-0.9,0.3-1.4,0.3c-0.3,0-0.6-0.1-0.8-0.2c-0.2-0.1-0.4-0.2-0.5-0.4
			c-0.1-0.2-0.2-0.4-0.2-0.7c0-0.2-0.1-0.6-0.1-1.2v-2.8h-0.8V11h0.8V9.7l1.7-1V11H226.1z"/>
		<path class="st3" d="M231,15.4l1.7,0.3c-0.2,0.6-0.6,1.1-1,1.4c-0.5,0.3-1.1,0.5-1.8,0.5c-1.1,0-2-0.4-2.5-1.1
			c-0.4-0.6-0.6-1.3-0.6-2.2c0-1.1,0.3-1.9,0.8-2.5s1.3-0.9,2.1-0.9c1,0,1.7,0.3,2.3,1s0.8,1.6,0.8,2.9h-4.3c0,0.5,0.2,0.9,0.4,1.2
			c0.3,0.3,0.6,0.4,1,0.4c0.3,0,0.5-0.1,0.7-0.2S231,15.7,231,15.4z M231.1,13.7c0-0.5-0.1-0.9-0.4-1.1c-0.2-0.3-0.5-0.4-0.9-0.4
			c-0.4,0-0.7,0.1-0.9,0.4s-0.4,0.6-0.4,1.1H231.1z"/>
	</g>
	<g>
		<path class="st3" d="M291.2,17.5V8.5h1.8v8.9H291.2z"/>
		<path class="st3" d="M300.6,17.5h-1.7v-3.3c0-0.7,0-1.2-0.1-1.4s-0.2-0.4-0.4-0.5c-0.2-0.1-0.4-0.2-0.6-0.2
			c-0.3,0-0.6,0.1-0.8,0.2c-0.2,0.2-0.4,0.4-0.5,0.6c-0.1,0.3-0.1,0.8-0.1,1.5v2.9h-1.7V11h1.6v1c0.6-0.7,1.3-1.1,2.1-1.1
			c0.4,0,0.7,0.1,1,0.2s0.6,0.3,0.7,0.5c0.2,0.2,0.3,0.5,0.3,0.7s0.1,0.7,0.1,1.2V17.5z"/>
		<path class="st3" d="M304.1,17.5l-2.6-6.5h1.8l1.2,3.3l0.4,1.1c0.1-0.3,0.2-0.5,0.2-0.6c0.1-0.2,0.1-0.4,0.2-0.5l1.2-3.3h1.8
			l-2.6,6.5H304.1z"/>
		<path class="st3" d="M309.3,10.1V8.5h1.7v1.6H309.3z M309.3,17.5V11h1.7v6.5H309.3z"/>
		<path class="st3" d="M312.2,15.6l1.7-0.3c0.1,0.3,0.2,0.6,0.4,0.8c0.2,0.2,0.5,0.3,0.9,0.3c0.4,0,0.8-0.1,1-0.2
			c0.2-0.1,0.2-0.3,0.2-0.5c0-0.1,0-0.2-0.1-0.3c-0.1-0.1-0.3-0.2-0.6-0.2c-1.4-0.3-2.3-0.6-2.6-0.8c-0.5-0.4-0.8-0.8-0.8-1.5
			c0-0.6,0.2-1,0.7-1.4s1.1-0.6,2.1-0.6c0.9,0,1.5,0.1,2,0.4c0.4,0.3,0.7,0.7,0.9,1.3l-1.6,0.3c-0.1-0.3-0.2-0.4-0.4-0.6
			c-0.2-0.1-0.5-0.2-0.8-0.2c-0.5,0-0.8,0.1-1,0.2c-0.1,0.1-0.2,0.2-0.2,0.3c0,0.1,0.1,0.2,0.2,0.3c0.2,0.1,0.7,0.3,1.6,0.5
			c0.9,0.2,1.6,0.5,1.9,0.8c0.4,0.3,0.5,0.7,0.5,1.3c0,0.6-0.2,1.1-0.7,1.5c-0.5,0.4-1.2,0.6-2.2,0.6c-0.9,0-1.6-0.2-2.1-0.5
			S312.3,16.2,312.2,15.6z"/>
		<path class="st3" d="M321,12.9l-1.6-0.3c0.2-0.6,0.5-1.1,0.9-1.4c0.4-0.3,1.1-0.5,1.9-0.5c0.8,0,1.3,0.1,1.7,0.3
			c0.4,0.2,0.6,0.4,0.8,0.7c0.2,0.3,0.2,0.8,0.2,1.5l0,2c0,0.6,0,1,0.1,1.3c0.1,0.3,0.2,0.6,0.3,0.9h-1.7c0-0.1-0.1-0.3-0.2-0.5
			c0-0.1,0-0.2-0.1-0.2c-0.3,0.3-0.6,0.5-0.9,0.6s-0.7,0.2-1.1,0.2c-0.7,0-1.2-0.2-1.6-0.5c-0.4-0.4-0.6-0.8-0.6-1.4
			c0-0.4,0.1-0.7,0.3-1c0.2-0.3,0.4-0.5,0.7-0.7c0.3-0.2,0.8-0.3,1.4-0.4c0.8-0.2,1.4-0.3,1.7-0.4V13c0-0.3-0.1-0.6-0.2-0.7
			s-0.5-0.2-0.9-0.2c-0.3,0-0.5,0.1-0.7,0.2S321.1,12.6,321,12.9z M323.3,14.3c-0.2,0.1-0.6,0.2-1,0.3c-0.5,0.1-0.8,0.2-0.9,0.3
			c-0.2,0.2-0.3,0.4-0.3,0.6c0,0.2,0.1,0.4,0.3,0.6c0.2,0.2,0.4,0.3,0.7,0.3c0.3,0,0.6-0.1,0.9-0.3c0.2-0.2,0.3-0.3,0.4-0.6
			c0-0.1,0.1-0.4,0.1-0.8V14.3z"/>
		<path class="st3" d="M326.7,17.5V8.5h1.7v8.9H326.7z"/>
		<path class="st3" d="M330.1,10.1V8.5h1.7v1.6H330.1z M330.1,17.5V11h1.7v6.5H330.1z"/>
		<path class="st3" d="M333.5,17.9l2,0.2c0,0.2,0.1,0.4,0.2,0.5c0.2,0.1,0.4,0.2,0.8,0.2c0.4,0,0.8-0.1,1-0.2
			c0.2-0.1,0.3-0.2,0.3-0.4c0.1-0.1,0.1-0.4,0.1-0.8v-0.9c-0.5,0.7-1.2,1-1.9,1c-0.9,0-1.6-0.4-2.1-1.1c-0.4-0.6-0.6-1.3-0.6-2.2
			c0-1.1,0.3-1.9,0.8-2.5c0.5-0.6,1.2-0.9,2-0.9c0.8,0,1.5,0.4,2,1.1V11h1.6v5.8c0,0.8-0.1,1.3-0.2,1.7s-0.3,0.7-0.5,0.9
			c-0.2,0.2-0.5,0.4-0.9,0.5c-0.4,0.1-0.9,0.2-1.4,0.2c-1.1,0-1.9-0.2-2.3-0.6c-0.5-0.4-0.7-0.9-0.7-1.4
			C333.4,18,333.5,18,333.5,17.9z M335,14.1c0,0.7,0.1,1.2,0.4,1.5s0.6,0.5,1,0.5c0.4,0,0.8-0.2,1.1-0.5c0.3-0.3,0.4-0.8,0.4-1.5
			c0-0.7-0.1-1.2-0.4-1.5c-0.3-0.3-0.6-0.5-1-0.5c-0.4,0-0.8,0.2-1,0.5S335,13.4,335,14.1z"/>
		<path class="st3" d="M347.1,17.5h-1.7v-3.3c0-0.7,0-1.2-0.1-1.4s-0.2-0.4-0.4-0.5c-0.2-0.1-0.4-0.2-0.6-0.2
			c-0.3,0-0.6,0.1-0.8,0.2c-0.2,0.2-0.4,0.4-0.5,0.6c-0.1,0.3-0.1,0.8-0.1,1.5v2.9h-1.7V11h1.6v1c0.6-0.7,1.3-1.1,2.1-1.1
			c0.4,0,0.7,0.1,1,0.2s0.6,0.3,0.7,0.5c0.2,0.2,0.3,0.5,0.3,0.7s0.1,0.7,0.1,1.2V17.5z"/>
		<path class="st3" d="M352.4,17.5V8.5h6.1V10h-4.3v2.1h3.7v1.5h-3.7v3.8H352.4z"/>
		<path class="st3" d="M364.3,17.5v-1c-0.2,0.3-0.5,0.6-0.9,0.8s-0.8,0.3-1.2,0.3c-0.4,0-0.8-0.1-1.2-0.3s-0.6-0.5-0.8-0.8
			c-0.2-0.3-0.2-0.8-0.2-1.4V11h1.7v3c0,0.9,0,1.5,0.1,1.7c0.1,0.2,0.2,0.4,0.3,0.5s0.4,0.2,0.6,0.2c0.3,0,0.6-0.1,0.8-0.2
			c0.2-0.2,0.4-0.4,0.5-0.6c0.1-0.2,0.1-0.8,0.1-1.7V11h1.7v6.5H364.3z"/>
		<path class="st3" d="M367.6,17.5V8.5h1.7v8.9H367.6z"/>
		<path class="st3" d="M371.1,17.5V8.5h1.7v8.9H371.1z"/>
	</g>
	<g>
		<path class="st3" d="M431.5,18.1V9.1h1.8v8.9H431.5z"/>
		<path class="st3" d="M440.9,18.1h-1.7v-3.3c0-0.7,0-1.2-0.1-1.4c-0.1-0.2-0.2-0.4-0.4-0.5c-0.2-0.1-0.4-0.2-0.6-0.2
			c-0.3,0-0.6,0.1-0.8,0.2c-0.2,0.2-0.4,0.4-0.5,0.6c-0.1,0.3-0.1,0.8-0.1,1.5v2.9H435v-6.5h1.6v1c0.6-0.7,1.3-1.1,2.1-1.1
			c0.4,0,0.7,0.1,1,0.2c0.3,0.1,0.5,0.3,0.7,0.5c0.2,0.2,0.3,0.5,0.3,0.7c0.1,0.3,0.1,0.7,0.1,1.2V18.1z"/>
		<path class="st3" d="M444.5,18.1l-2.6-6.5h1.8l1.2,3.3l0.4,1.1c0.1-0.3,0.2-0.5,0.2-0.6c0.1-0.2,0.1-0.4,0.2-0.5l1.2-3.3h1.8
			l-2.6,6.5H444.5z"/>
		<path class="st3" d="M449.6,10.7V9.1h1.7v1.6H449.6z M449.6,18.1v-6.5h1.7v6.5H449.6z"/>
		<path class="st3" d="M452.5,16.2l1.7-0.3c0.1,0.3,0.2,0.6,0.4,0.8s0.5,0.3,0.9,0.3c0.4,0,0.8-0.1,1-0.2c0.2-0.1,0.2-0.3,0.2-0.5
			c0-0.1,0-0.2-0.1-0.3c-0.1-0.1-0.3-0.2-0.6-0.2c-1.4-0.3-2.3-0.6-2.6-0.8c-0.5-0.4-0.8-0.8-0.8-1.5c0-0.6,0.2-1,0.7-1.4
			s1.1-0.6,2.1-0.6c0.9,0,1.5,0.1,2,0.4c0.4,0.3,0.7,0.7,0.9,1.3l-1.6,0.3c-0.1-0.3-0.2-0.4-0.4-0.6c-0.2-0.1-0.5-0.2-0.8-0.2
			c-0.5,0-0.8,0.1-1,0.2c-0.1,0.1-0.2,0.2-0.2,0.3c0,0.1,0.1,0.2,0.2,0.3c0.2,0.1,0.7,0.3,1.6,0.5c0.9,0.2,1.6,0.5,1.9,0.8
			c0.4,0.3,0.5,0.7,0.5,1.3c0,0.6-0.2,1.1-0.7,1.5c-0.5,0.4-1.2,0.6-2.2,0.6c-0.9,0-1.6-0.2-2.1-0.5C453,17.3,452.7,16.8,452.5,16.2
			z"/>
		<path class="st3" d="M461.3,13.6l-1.6-0.3c0.2-0.6,0.5-1.1,0.9-1.4c0.4-0.3,1.1-0.5,1.9-0.5c0.8,0,1.3,0.1,1.7,0.3
			c0.4,0.2,0.6,0.4,0.8,0.7c0.2,0.3,0.2,0.8,0.2,1.5l0,2c0,0.6,0,1,0.1,1.3c0.1,0.3,0.2,0.6,0.3,0.9H464c0-0.1-0.1-0.3-0.2-0.5
			c0-0.1,0-0.2-0.1-0.2c-0.3,0.3-0.6,0.5-0.9,0.6c-0.3,0.1-0.7,0.2-1.1,0.2c-0.7,0-1.2-0.2-1.6-0.5s-0.6-0.8-0.6-1.4
			c0-0.4,0.1-0.7,0.3-1c0.2-0.3,0.4-0.5,0.7-0.7c0.3-0.2,0.8-0.3,1.4-0.4c0.8-0.2,1.4-0.3,1.7-0.4v-0.2c0-0.3-0.1-0.6-0.2-0.7
			c-0.2-0.1-0.5-0.2-0.9-0.2c-0.3,0-0.5,0.1-0.7,0.2S461.4,13.3,461.3,13.6z M463.6,15c-0.2,0.1-0.6,0.2-1,0.3
			c-0.5,0.1-0.8,0.2-0.9,0.3c-0.2,0.2-0.3,0.4-0.3,0.6c0,0.2,0.1,0.4,0.3,0.6c0.2,0.2,0.4,0.3,0.7,0.3c0.3,0,0.6-0.1,0.9-0.3
			c0.2-0.2,0.3-0.3,0.4-0.6c0-0.1,0.1-0.4,0.1-0.8V15z"/>
		<path class="st3" d="M467,18.1V9.1h1.7v8.9H467z"/>
		<path class="st3" d="M470.5,10.7V9.1h1.7v1.6H470.5z M470.5,18.1v-6.5h1.7v6.5H470.5z"/>
		<path class="st3" d="M473.8,18.5l2,0.2c0,0.2,0.1,0.4,0.2,0.5c0.2,0.1,0.4,0.2,0.8,0.2c0.4,0,0.8-0.1,1-0.2
			c0.2-0.1,0.3-0.2,0.3-0.4c0.1-0.1,0.1-0.4,0.1-0.8V17c-0.5,0.7-1.2,1-1.9,1c-0.9,0-1.6-0.4-2.1-1.1c-0.4-0.6-0.6-1.3-0.6-2.2
			c0-1.1,0.3-1.9,0.8-2.5c0.5-0.6,1.2-0.9,2-0.9c0.8,0,1.5,0.4,2,1.1v-0.9h1.6v5.8c0,0.8-0.1,1.3-0.2,1.7c-0.1,0.4-0.3,0.7-0.5,0.9
			c-0.2,0.2-0.5,0.4-0.9,0.5s-0.9,0.2-1.4,0.2c-1.1,0-1.9-0.2-2.3-0.6c-0.5-0.4-0.7-0.9-0.7-1.4C473.8,18.7,473.8,18.6,473.8,18.5z
			 M475.3,14.7c0,0.7,0.1,1.2,0.4,1.5c0.3,0.3,0.6,0.5,1,0.5c0.4,0,0.8-0.2,1.1-0.5c0.3-0.3,0.4-0.8,0.4-1.5c0-0.7-0.1-1.2-0.4-1.5
			c-0.3-0.3-0.6-0.5-1-0.5c-0.4,0-0.8,0.2-1,0.5C475.5,13.6,475.3,14,475.3,14.7z"/>
		<path class="st3" d="M487.5,18.1h-1.7v-3.3c0-0.7,0-1.2-0.1-1.4c-0.1-0.2-0.2-0.4-0.4-0.5c-0.2-0.1-0.4-0.2-0.6-0.2
			c-0.3,0-0.6,0.1-0.8,0.2c-0.2,0.2-0.4,0.4-0.5,0.6s-0.1,0.8-0.1,1.5v2.9h-1.7v-6.5h1.6v1c0.6-0.7,1.3-1.1,2.1-1.1
			c0.4,0,0.7,0.1,1,0.2c0.3,0.1,0.6,0.3,0.7,0.5c0.2,0.2,0.3,0.5,0.3,0.7c0.1,0.3,0.1,0.7,0.1,1.2V18.1z"/>
		<path class="st3" d="M494.7,18.1v-7.4h-2.7V9.1h7.1v1.5h-2.6v7.4H494.7z"/>
		<path class="st3" d="M503.2,16l1.7,0.3c-0.2,0.6-0.6,1.1-1,1.4c-0.5,0.3-1.1,0.5-1.8,0.5c-1.1,0-2-0.4-2.5-1.1
			c-0.4-0.6-0.6-1.3-0.6-2.2c0-1.1,0.3-1.9,0.8-2.5s1.3-0.9,2.1-0.9c1,0,1.7,0.3,2.3,1c0.6,0.6,0.8,1.6,0.8,2.9h-4.3
			c0,0.5,0.2,0.9,0.4,1.2c0.3,0.3,0.6,0.4,1,0.4c0.3,0,0.5-0.1,0.7-0.2C502.9,16.6,503.1,16.3,503.2,16z M503.3,14.3
			c0-0.5-0.1-0.9-0.4-1.1c-0.2-0.3-0.5-0.4-0.9-0.4c-0.4,0-0.7,0.1-0.9,0.4s-0.4,0.6-0.4,1.1H503.3z"/>
		<path class="st3" d="M510.1,16l1.7,0.3c-0.2,0.6-0.6,1.1-1,1.4s-1.1,0.5-1.8,0.5c-1.1,0-2-0.4-2.5-1.1c-0.4-0.6-0.6-1.3-0.6-2.2
			c0-1.1,0.3-1.9,0.8-2.5s1.3-0.9,2.1-0.9c1,0,1.7,0.3,2.3,1c0.6,0.6,0.8,1.6,0.8,2.9h-4.3c0,0.5,0.2,0.9,0.4,1.2
			c0.3,0.3,0.6,0.4,1,0.4c0.3,0,0.5-0.1,0.7-0.2C509.9,16.6,510,16.3,510.1,16z M510.2,14.3c0-0.5-0.1-0.9-0.4-1.1
			c-0.2-0.3-0.5-0.4-0.9-0.4c-0.4,0-0.7,0.1-0.9,0.4s-0.4,0.6-0.4,1.1H510.2z"/>
		<path class="st3" d="M519.2,18.1h-1.7v-3.3c0-0.7,0-1.2-0.1-1.4c-0.1-0.2-0.2-0.4-0.4-0.5c-0.2-0.1-0.4-0.2-0.6-0.2
			c-0.3,0-0.6,0.1-0.8,0.2c-0.2,0.2-0.4,0.4-0.5,0.6s-0.1,0.8-0.1,1.5v2.9h-1.7v-6.5h1.6v1c0.6-0.7,1.3-1.1,2.1-1.1
			c0.4,0,0.7,0.1,1,0.2c0.3,0.1,0.6,0.3,0.7,0.5c0.2,0.2,0.3,0.5,0.3,0.7c0.1,0.3,0.1,0.7,0.1,1.2V18.1z"/>
	</g>
</g>
<g id="Layer_1">
</g>
</svg>
