<?xml version="1.0" encoding="utf-8"?>
<!-- Generator: Adobe Illustrator 22.0.1, SVG Export Plug-In . SVG Version: 6.00 Build 0)  -->
<svg version="1.1" xmlns="http://www.w3.org/2000/svg" xmlns:xlink="http://www.w3.org/1999/xlink" x="0px" y="0px"
	 viewBox="0 0 560.8 142.3" style="enable-background:new 0 0 560.8 142.3;" xml:space="preserve">
<style type="text/css">
	.st0{display:none;}
	.st1{display:inline;fill:#3D3935;}
	.st2{fill:#BE933C;}
	.st3{fill:#C7C8CB;}
	.st4{fill:#FFFFFF;}
	.st5{fill:none;stroke:#3D3935;stroke-miterlimit:10;}
	.st6{fill:none;}
	.st7{fill:#231F20;}
	.st8{font-family:'ArialMT';}
	.st9{font-size:12.5px;}
	.st10{font-family:'Arial-BoldMT';}
	.st11{fill:#00A3D8;}
	.st12{fill:#3D3935;}
</style>
<g id="bg" class="st0">
</g>
<g id="Layer_4">
	<rect class="st2" width="560.8" height="41.3"/>
	<rect y="41.3" class="st3" width="560.8" height="26"/>
	<rect y="67.3" class="st4" width="560.8" height="143.5"/>
	<line class="st5" x1="-21.3" y1="41.3" x2="566.1" y2="41.3"/>
	<line class="st5" x1="-21.3" y1="67.3" x2="566.1" y2="67.3"/>
	<line class="st5" x1="-21.3" y1="142.3" x2="566.1" y2="142.3"/>
	<line class="st5" x1="-21.3" y1="0" x2="566.1" y2="0"/>
	<line class="st5" x1="0" y1="-11.3" x2="0" y2="219.8"/>
	<line class="st5" x1="140.2" y1="-11.3" x2="140.2" y2="142.3"/>
	<line class="st5" x1="280.4" y1="-11.3" x2="280.4" y2="142.3"/>
	<line class="st5" x1="420.6" y1="-11.3" x2="420.6" y2="142.3"/>
	<line class="st5" x1="560.8" y1="-11.3" x2="560.8" y2="219.8"/>
</g>
<g id="Layer_3">
	<rect x="10" y="49.8" class="st6" width="127.1" height="13"/>
	<text transform="matrix(1 0 0 1 10 58.7835)" class="st7 st8 st9">Up to 7 Aligners</text>
	<rect x="10" y="93.1" class="st6" width="119.6" height="28.3"/>
	<text transform="matrix(1 0 0 1 10 102.0804)"><tspan x="0" y="0" class="st7 st8 st9">Adjust relapsed </tspan><tspan x="0" y="15" class="st7 st8 st9">cases</tspan></text>
	<rect x="150.3" y="93.1" class="st6" width="119.6" height="28.3"/>
	<text transform="matrix(1 0 0 1 150.3333 102.0804)"><tspan x="0" y="0" class="st7 st8 st9">Ideal for aesthetic or</tspan><tspan x="0" y="15" class="st7 st8 st9">pre-restorative cases</tspan></text>
	<rect x="290.7" y="78.2" class="st6" width="119.6" height="58.2"/>
	<text transform="matrix(1 0 0 1 290.6662 87.1273)"><tspan x="0" y="0" class="st7 st8 st9">The versatility you </tspan><tspan x="0" y="15" class="st7 st8 st9">need to treat a full </tspan><tspan x="0" y="30" class="st7 st8 st9">range of moderate </tspan><tspan x="0" y="45" class="st7 st8 st9">cases</tspan></text>
	<rect x="431" y="86.4" class="st6" width="119.6" height="41.8"/>
	<text transform="matrix(1 0 0 1 430.9995 95.3304)"><tspan x="0" y="0" class="st7 st8 st9">Powerful enough to</tspan><tspan x="0" y="15" class="st7 st8 st9">treat the most </tspan><tspan x="0" y="30" class="st7 st8 st9">complex cases</tspan></text>
	<rect x="150.3" y="49.8" class="st6" width="127.1" height="13"/>
	<text transform="matrix(1 0 0 1 150.3333 58.7835)" class="st7 st8 st9">Up to 14 Aligners</text>
	<rect x="290.7" y="49.8" class="st6" width="127.1" height="13"/>
	<text transform="matrix(1 0 0 1 290.6671 58.7835)" class="st7 st8 st9">Up to 26 Aligners</text>
	<rect x="431" y="50.5" class="st6" width="127.1" height="13"/>
	<text transform="matrix(1 0 0 1 431 59.4085)" class="st7 st8 st9">Unlimited Aligners</text>
	<rect x="10" y="14.6" class="st6" width="105.6" height="13"/>
	<text transform="matrix(1 0 0 1 10 23.5752)" class="st4 st10 st9">Express Package</text>
	<rect x="150.3" y="14.6" class="st6" width="105.6" height="13"/>
	<text transform="matrix(1 0 0 1 150.3333 23.5752)" class="st4 st10 st9">Lite Package</text>
	<rect x="290.7" y="14.6" class="st6" width="116" height="13"/>
	<text transform="matrix(1 0 0 1 290.6671 23.5752)" class="st4 st10 st9">Moderate Package</text>
	<rect x="431" y="8.1" class="st6" width="105.6" height="26"/>
	<text transform="matrix(1 0 0 1 431 17.0752)"><tspan x="0" y="0" class="st4 st10 st9">Comprehensive </tspan><tspan x="0" y="15" class="st4 st10 st9">Package</tspan></text>
</g>
<g id="Layer_1">
</g>
</svg>
