<?xml version="1.0" encoding="utf-8"?>
<!-- Generator: Adobe Illustrator 22.0.1, SVG Export Plug-In . SVG Version: 6.00 Build 0)  -->
<svg version="1.1" xmlns="http://www.w3.org/2000/svg" xmlns:xlink="http://www.w3.org/1999/xlink" x="0px" y="0px"
	 viewBox="0 0 560 114.5" style="enable-background:new 0 0 560 114.5;" xml:space="preserve">
<style type="text/css">
	.st0{display:none;}
	.st1{display:inline;fill:#3D3935;}
	.st2{fill:#BE933C;}
	.st3{fill:#C7C8CB;}
	.st4{fill:#FFFFFF;}
	.st5{fill:none;stroke:#3D3935;stroke-miterlimit:10;}
	.st6{fill:none;}
	.st7{fill:#231F20;}
	.st8{font-family:'ArialMT';}
	.st9{font-size:12.5px;}
	.st10{font-family:'Arial-BoldMT';}
	.st11{fill:#00A3D8;}
	.st12{fill:#3D3935;}
</style>
<g id="bg" class="st0">
</g>
<g id="Layer_4">
	<rect x="-0.3" class="st2" width="560.8" height="26"/>
	<rect x="-0.3" y="26" class="st3" width="560.8" height="26"/>
	<rect x="-0.3" y="52" class="st4" width="560.8" height="62.5"/>
	<g>
		<line class="st5" x1="-21.6" y1="26" x2="565.8" y2="26"/>
		<line class="st5" x1="-21.6" y1="52" x2="565.8" y2="52"/>
		<line class="st5" x1="-21.6" y1="114.5" x2="565.8" y2="114.5"/>
		<line class="st5" x1="-21.6" y1="0" x2="565.8" y2="0"/>
		<line class="st5" x1="-0.3" y1="-30.3" x2="-0.3" y2="136.3"/>
		<line class="st5" x1="139.9" y1="-30.3" x2="139.9" y2="136.3"/>
		<line class="st5" x1="280" y1="-30.3" x2="280" y2="136.3"/>
		<line class="st5" x1="420.2" y1="-30.3" x2="420.2" y2="136.3"/>
		<line class="st5" x1="560.4" y1="-30.3" x2="560.4" y2="136.3"/>
	</g>
</g>
<g id="Layer_3">
	<rect x="9.7" y="34.5" class="st6" width="127.1" height="13"/>
	<text transform="matrix(1 0 0 1 9.6667 43.4502)" class="st7 st8 st9">Up to 7 Aligners</text>
	<rect x="9.7" y="69.6" class="st6" width="119.6" height="28.3"/>
	<text transform="matrix(1 0 0 1 9.6667 78.5439)"><tspan x="0" y="0" class="st7 st8 st9">No additional </tspan><tspan x="0" y="15" class="st7 st8 st9">aligners available</tspan></text>
	<rect x="150" y="62.8" class="st6" width="119.6" height="41.8"/>
	<text transform="matrix(1 0 0 1 150 71.7939)"><tspan x="0" y="0" class="st7 st8 st9">1 Refinement</tspan><tspan x="0" y="15" class="st7 st8 st9">available before the</tspan><tspan x="0" y="30" class="st7 st8 st9">Refinement Fee Date</tspan></text>
	<rect x="290.3" y="69.6" class="st6" width="119.6" height="28.3"/>
	<text transform="matrix(1 0 0 1 290.3338 78.5439)"><tspan x="0" y="0" class="st7 st8 st9">Unlimited additional</tspan><tspan x="0" y="15" class="st7 st8 st9">aligners for 5 years</tspan></text>
	<rect x="430.7" y="69.6" class="st6" width="119.6" height="28.3"/>
	<text transform="matrix(1 0 0 1 430.6667 78.5439)"><tspan x="0" y="0" class="st7 st8 st9">Unlimited additional</tspan><tspan x="0" y="15" class="st7 st8 st9">aligners for 5 years</tspan></text>
	<rect x="150" y="34.5" class="st6" width="127.1" height="13"/>
	<text transform="matrix(1 0 0 1 150 43.4502)" class="st7 st8 st9">Up to 14 Aligners</text>
	<rect x="290.3" y="34.5" class="st6" width="127.1" height="13"/>
	<text transform="matrix(1 0 0 1 290.3338 43.4502)" class="st7 st8 st9">Up to 26 Aligners</text>
	<rect x="430.7" y="35.1" class="st6" width="127.1" height="13"/>
	<text transform="matrix(1 0 0 1 430.6667 44.0752)" class="st7 st8 st9">Unlimited Aligners</text>
	<rect x="9.7" y="8.5" class="st6" width="105.6" height="13"/>
	<text transform="matrix(1 0 0 1 9.6667 17.4502)" class="st4 st10 st9">Invisalign i7</text>
	<rect x="150" y="8.5" class="st6" width="105.6" height="13"/>
	<text transform="matrix(1 0 0 1 150 17.4502)" class="st4 st10 st9">Invisalign Lite</text>
	<rect x="290.3" y="8.5" class="st6" width="105.6" height="13"/>
	<text transform="matrix(1 0 0 1 290.3333 17.4502)" class="st4 st10 st9">Invisalign Full</text>
	<rect x="430.7" y="9.1" class="st6" width="105.6" height="13"/>
	<text transform="matrix(1 0 0 1 430.6667 18.0752)" class="st4 st10 st9">Invisalign Teen</text>
</g>
<g id="Layer_1">
</g>
</svg>
