<?xml version="1.0" encoding="utf-8"?>
<!-- Generator: Adobe Illustrator 22.0.1, SVG Export Plug-In . SVG Version: 6.00 Build 0)  -->
<svg version="1.1" xmlns="http://www.w3.org/2000/svg" xmlns:xlink="http://www.w3.org/1999/xlink" x="0px" y="0px"
	 viewBox="0 0 220.1 26" style="enable-background:new 0 0 220.1 26;" xml:space="preserve">
<style type="text/css">
	.st0{fill:#3D3935;}
	.st1{fill:#BE933C;}
	.st2{fill:#C7C8CB;}
	.st3{fill:#FFFFFF;}
	.st4{fill:none;stroke:#3D3935;stroke-miterlimit:10;}
	.st5{fill:#231F20;}
	.st6{fill:#00A3D8;}
</style>
<g id="bg">
</g>
<g id="Layer_4">
	<path class="st1" d="M210.2,26H9.9C4.4,26,0,21.6,0,16.2V9.8C0,4.4,4.4,0,9.9,0h200.3c5.4,0,9.8,4.4,9.8,9.8v6.3
		C220,21.6,215.6,26,210.2,26z"/>
</g>
<g id="Layer_3">
	<g>
		<path class="st3" d="M32.9,16.7V7.8h6v1.1h-4.9v2.8h4.2v1.1h-4.2v4.1H32.9z"/>
		<path class="st3" d="M40.3,16.7v-6.5h1v1c0.3-0.5,0.5-0.8,0.7-0.9c0.2-0.1,0.4-0.2,0.7-0.2c0.4,0,0.7,0.1,1.1,0.4l-0.4,1
			c-0.3-0.2-0.5-0.2-0.8-0.2c-0.2,0-0.5,0.1-0.6,0.2s-0.3,0.3-0.4,0.6c-0.1,0.4-0.2,0.8-0.2,1.3v3.4H40.3z"/>
		<path class="st3" d="M48.9,14.6l1.1,0.1c-0.2,0.7-0.5,1.2-1,1.5c-0.5,0.4-1.1,0.5-1.9,0.5c-0.9,0-1.7-0.3-2.3-0.9
			c-0.6-0.6-0.8-1.4-0.8-2.5c0-1.1,0.3-1.9,0.8-2.5c0.6-0.6,1.3-0.9,2.2-0.9c0.9,0,1.6,0.3,2.1,0.9c0.5,0.6,0.8,1.4,0.8,2.5
			c0,0.1,0,0.2,0,0.3h-4.8c0,0.7,0.2,1.3,0.6,1.6c0.4,0.4,0.8,0.6,1.4,0.6c0.4,0,0.7-0.1,1-0.3C48.5,15.4,48.8,15.1,48.9,14.6z
			 M45.3,12.8h3.6c0-0.5-0.2-1-0.4-1.2c-0.4-0.4-0.8-0.6-1.4-0.6c-0.5,0-0.9,0.2-1.3,0.5S45.4,12.3,45.3,12.8z"/>
		<path class="st3" d="M55.6,19.2V16c-0.2,0.2-0.4,0.4-0.7,0.6c-0.3,0.2-0.6,0.2-1,0.2c-0.8,0-1.4-0.3-2-0.9
			c-0.6-0.6-0.8-1.5-0.8-2.5c0-0.7,0.1-1.2,0.3-1.8c0.2-0.5,0.6-0.9,1-1.2s0.9-0.4,1.4-0.4c0.8,0,1.4,0.3,1.9,1v-0.9h1v9H55.6z
			 M52.2,13.4c0,0.8,0.2,1.5,0.5,1.9c0.3,0.4,0.8,0.6,1.3,0.6c0.5,0,0.9-0.2,1.2-0.6c0.3-0.4,0.5-1,0.5-1.8c0-0.9-0.2-1.5-0.5-1.9
			s-0.8-0.7-1.3-0.7c-0.5,0-0.9,0.2-1.2,0.6S52.2,12.6,52.2,13.4z"/>
		<path class="st3" d="M62.6,16.7v-1c-0.5,0.7-1.2,1.1-2.1,1.1c-0.4,0-0.7-0.1-1.1-0.2s-0.6-0.3-0.7-0.6c-0.2-0.2-0.3-0.5-0.3-0.8
			c0-0.2-0.1-0.6-0.1-1v-4h1.1v3.6c0,0.6,0,1,0.1,1.2c0.1,0.3,0.2,0.5,0.4,0.7s0.5,0.2,0.8,0.2s0.6-0.1,0.9-0.3s0.5-0.4,0.6-0.7
			s0.2-0.7,0.2-1.3v-3.5h1.1v6.5H62.6z"/>
		<path class="st3" d="M69.8,14.6l1.1,0.1c-0.2,0.7-0.5,1.2-1,1.5c-0.5,0.4-1.1,0.5-1.9,0.5c-0.9,0-1.7-0.3-2.3-0.9
			c-0.6-0.6-0.8-1.4-0.8-2.5c0-1.1,0.3-1.9,0.8-2.5c0.6-0.6,1.3-0.9,2.2-0.9c0.9,0,1.6,0.3,2.1,0.9c0.5,0.6,0.8,1.4,0.8,2.5
			c0,0.1,0,0.2,0,0.3h-4.8c0,0.7,0.2,1.3,0.6,1.6c0.4,0.4,0.8,0.6,1.4,0.6c0.4,0,0.7-0.1,1-0.3C69.4,15.4,69.6,15.1,69.8,14.6z
			 M66.2,12.8h3.6c0-0.5-0.2-1-0.4-1.2C69,11.2,68.6,11,68,11c-0.5,0-0.9,0.2-1.3,0.5S66.2,12.3,66.2,12.8z"/>
		<path class="st3" d="M72.3,16.7v-6.5h1v0.9c0.5-0.7,1.2-1.1,2.1-1.1c0.4,0,0.7,0.1,1.1,0.2c0.3,0.1,0.6,0.3,0.7,0.6
			c0.2,0.2,0.3,0.5,0.3,0.8c0,0.2,0.1,0.6,0.1,1.1v4h-1.1v-3.9c0-0.4,0-0.8-0.1-1c-0.1-0.2-0.2-0.4-0.5-0.5
			c-0.2-0.1-0.5-0.2-0.8-0.2c-0.5,0-0.9,0.1-1.2,0.4s-0.5,0.9-0.5,1.7v3.5H72.3z"/>
		<path class="st3" d="M81.7,15.7l0.2,1c-0.3,0.1-0.6,0.1-0.8,0.1c-0.4,0-0.7-0.1-0.9-0.2s-0.4-0.3-0.5-0.5
			c-0.1-0.2-0.1-0.6-0.1-1.3v-3.7h-0.8v-0.9h0.8V8.6L80.5,8v2.3h1.1v0.9h-1.1v3.8c0,0.3,0,0.5,0.1,0.6c0,0.1,0.1,0.2,0.2,0.2
			c0.1,0.1,0.2,0.1,0.4,0.1C81.3,15.8,81.5,15.7,81.7,15.7z"/>
		<path class="st3" d="M82.7,16.7V7.8h1.1v8.9H82.7z"/>
		<path class="st3" d="M85.5,19.2l-0.1-1c0.2,0.1,0.4,0.1,0.6,0.1c0.2,0,0.4,0,0.6-0.1s0.3-0.2,0.4-0.3c0.1-0.1,0.2-0.4,0.3-0.8
			c0-0.1,0.1-0.2,0.1-0.3l-2.5-6.5h1.2l1.3,3.8c0.2,0.5,0.3,1,0.5,1.5c0.1-0.5,0.3-1,0.5-1.5l1.4-3.8h1.1l-2.5,6.6
			c-0.3,0.7-0.5,1.2-0.6,1.5c-0.2,0.4-0.4,0.6-0.7,0.8c-0.3,0.2-0.6,0.3-0.9,0.3C85.9,19.3,85.7,19.3,85.5,19.2z"/>
		<path class="st3" d="M93.7,16.7l3.4-8.9h1.3l3.7,8.9h-1.3l-1-2.7h-3.7l-1,2.7H93.7z M96.3,13h3l-0.9-2.5c-0.3-0.8-0.5-1.4-0.6-1.9
			c-0.1,0.6-0.3,1.1-0.5,1.7L96.3,13z"/>
		<path class="st3" d="M102.4,14.8l1.1-0.2c0.1,0.4,0.2,0.8,0.5,1c0.3,0.2,0.7,0.3,1.2,0.3c0.5,0,0.9-0.1,1.1-0.3
			c0.2-0.2,0.4-0.4,0.4-0.7c0-0.2-0.1-0.4-0.3-0.6c-0.2-0.1-0.5-0.2-1.1-0.4c-0.8-0.2-1.4-0.4-1.7-0.5c-0.3-0.1-0.5-0.4-0.7-0.6
			c-0.2-0.3-0.2-0.6-0.2-0.9c0-0.3,0.1-0.6,0.2-0.8c0.1-0.2,0.3-0.5,0.5-0.6c0.2-0.1,0.4-0.2,0.7-0.3s0.6-0.1,0.9-0.1
			c0.5,0,1,0.1,1.3,0.2c0.4,0.1,0.7,0.3,0.9,0.6c0.2,0.3,0.3,0.6,0.4,1l-1.1,0.1c0-0.3-0.2-0.6-0.4-0.8c-0.2-0.2-0.6-0.3-1-0.3
			c-0.5,0-0.9,0.1-1.1,0.3s-0.3,0.4-0.3,0.6c0,0.1,0,0.3,0.1,0.4c0.1,0.1,0.2,0.2,0.4,0.3c0.1,0,0.4,0.1,1,0.3
			c0.8,0.2,1.3,0.4,1.6,0.5c0.3,0.1,0.5,0.3,0.7,0.6c0.2,0.3,0.3,0.6,0.3,0.9c0,0.4-0.1,0.7-0.3,1c-0.2,0.3-0.5,0.6-0.9,0.8
			c-0.4,0.2-0.9,0.3-1.4,0.3c-0.8,0-1.5-0.2-1.9-0.5C102.8,16,102.6,15.5,102.4,14.8z"/>
		<path class="st3" d="M109.1,16.7V7.8h1.1v5.1l2.6-2.6h1.4l-2.5,2.4l2.7,4.1h-1.4l-2.1-3.3l-0.8,0.7v2.6H109.1z"/>
		<path class="st3" d="M119.8,14.6l1.1,0.1c-0.2,0.7-0.5,1.2-1,1.5c-0.5,0.4-1.1,0.5-1.9,0.5c-0.9,0-1.7-0.3-2.3-0.9
			c-0.6-0.6-0.8-1.4-0.8-2.5c0-1.1,0.3-1.9,0.8-2.5c0.6-0.6,1.3-0.9,2.2-0.9c0.9,0,1.6,0.3,2.1,0.9c0.5,0.6,0.8,1.4,0.8,2.5
			c0,0.1,0,0.2,0,0.3h-4.8c0,0.7,0.2,1.3,0.6,1.6c0.4,0.4,0.8,0.6,1.4,0.6c0.4,0,0.7-0.1,1-0.3C119.4,15.4,119.6,15.1,119.8,14.6z
			 M116.2,12.8h3.6c0-0.5-0.2-1-0.4-1.2c-0.4-0.4-0.8-0.6-1.4-0.6c-0.5,0-0.9,0.2-1.3,0.5S116.2,12.3,116.2,12.8z"/>
		<path class="st3" d="M126.5,16.7v-0.8c-0.4,0.6-1,1-1.8,1c-0.5,0-1-0.1-1.4-0.4c-0.4-0.3-0.8-0.7-1-1.2c-0.2-0.5-0.4-1.1-0.4-1.8
			c0-0.6,0.1-1.2,0.3-1.8c0.2-0.5,0.5-0.9,1-1.2c0.4-0.3,0.9-0.4,1.4-0.4c0.4,0,0.7,0.1,1,0.2c0.3,0.2,0.6,0.4,0.7,0.6V7.8h1.1v8.9
			H126.5z M123.1,13.5c0,0.8,0.2,1.5,0.5,1.9c0.4,0.4,0.8,0.6,1.2,0.6c0.5,0,0.9-0.2,1.2-0.6c0.3-0.4,0.5-1,0.5-1.8
			c0-0.9-0.2-1.5-0.5-2s-0.8-0.6-1.3-0.6c-0.5,0-0.9,0.2-1.2,0.6C123.2,12,123.1,12.6,123.1,13.5z"/>
		<path class="st3" d="M139.7,15.7c0.5,0.4,1.1,0.7,1.5,0.8l-0.3,0.8c-0.6-0.2-1.3-0.6-1.9-1.1c-0.7,0.4-1.4,0.6-2.2,0.6
			c-0.8,0-1.5-0.2-2.2-0.6s-1.2-0.9-1.5-1.6c-0.4-0.7-0.5-1.5-0.5-2.4c0-0.9,0.2-1.7,0.5-2.4s0.9-1.3,1.5-1.7
			c0.7-0.4,1.4-0.6,2.2-0.6c0.8,0,1.6,0.2,2.2,0.6s1.2,0.9,1.5,1.6c0.3,0.7,0.5,1.5,0.5,2.4c0,0.7-0.1,1.4-0.3,2
			C140.5,14.8,140.1,15.3,139.7,15.7z M137.1,14.2c0.7,0.2,1.2,0.5,1.7,0.9c0.7-0.6,1-1.6,1-2.9c0-0.7-0.1-1.4-0.4-1.9
			c-0.2-0.5-0.6-1-1.1-1.3s-1-0.4-1.6-0.4c-0.9,0-1.6,0.3-2.2,0.9c-0.6,0.6-0.9,1.5-0.9,2.7c0,1.2,0.3,2.1,0.9,2.7
			c0.6,0.6,1.3,0.9,2.2,0.9c0.4,0,0.8-0.1,1.2-0.2c-0.4-0.2-0.8-0.4-1.2-0.5L137.1,14.2z"/>
		<path class="st3" d="M146.7,16.7v-1c-0.5,0.7-1.2,1.1-2.1,1.1c-0.4,0-0.7-0.1-1.1-0.2s-0.6-0.3-0.7-0.6c-0.2-0.2-0.3-0.5-0.3-0.8
			c0-0.2-0.1-0.6-0.1-1v-4h1.1v3.6c0,0.6,0,1,0.1,1.2c0.1,0.3,0.2,0.5,0.4,0.7s0.5,0.2,0.8,0.2s0.6-0.1,0.9-0.3s0.5-0.4,0.6-0.7
			s0.2-0.7,0.2-1.3v-3.5h1.1v6.5H146.7z"/>
		<path class="st3" d="M153.9,14.6l1.1,0.1c-0.2,0.7-0.5,1.2-1,1.5c-0.5,0.4-1.1,0.5-1.9,0.5c-0.9,0-1.7-0.3-2.3-0.9
			c-0.6-0.6-0.8-1.4-0.8-2.5c0-1.1,0.3-1.9,0.8-2.5c0.6-0.6,1.3-0.9,2.2-0.9c0.9,0,1.6,0.3,2.1,0.9c0.5,0.6,0.8,1.4,0.8,2.5
			c0,0.1,0,0.2,0,0.3h-4.8c0,0.7,0.2,1.3,0.6,1.6c0.4,0.4,0.8,0.6,1.4,0.6c0.4,0,0.7-0.1,1-0.3C153.5,15.4,153.7,15.1,153.9,14.6z
			 M150.3,12.8h3.6c0-0.5-0.2-1-0.4-1.2c-0.4-0.4-0.8-0.6-1.4-0.6c-0.5,0-0.9,0.2-1.3,0.5S150.3,12.3,150.3,12.8z"/>
		<path class="st3" d="M155.9,14.8l1.1-0.2c0.1,0.4,0.2,0.8,0.5,1c0.3,0.2,0.7,0.3,1.2,0.3c0.5,0,0.9-0.1,1.1-0.3
			c0.2-0.2,0.4-0.4,0.4-0.7c0-0.2-0.1-0.4-0.3-0.6c-0.2-0.1-0.5-0.2-1.1-0.4c-0.8-0.2-1.4-0.4-1.7-0.5c-0.3-0.1-0.5-0.4-0.7-0.6
			c-0.2-0.3-0.2-0.6-0.2-0.9c0-0.3,0.1-0.6,0.2-0.8c0.1-0.2,0.3-0.5,0.5-0.6c0.2-0.1,0.4-0.2,0.7-0.3s0.6-0.1,0.9-0.1
			c0.5,0,1,0.1,1.3,0.2c0.4,0.1,0.7,0.3,0.9,0.6c0.2,0.3,0.3,0.6,0.4,1L160,12c0-0.3-0.2-0.6-0.4-0.8c-0.2-0.2-0.6-0.3-1-0.3
			c-0.5,0-0.9,0.1-1.1,0.3s-0.3,0.4-0.3,0.6c0,0.1,0,0.3,0.1,0.4c0.1,0.1,0.2,0.2,0.4,0.3c0.1,0,0.4,0.1,1,0.3
			c0.8,0.2,1.3,0.4,1.6,0.5c0.3,0.1,0.5,0.3,0.7,0.6c0.2,0.3,0.3,0.6,0.3,0.9c0,0.4-0.1,0.7-0.3,1c-0.2,0.3-0.5,0.6-0.9,0.8
			c-0.4,0.2-0.9,0.3-1.4,0.3c-0.8,0-1.5-0.2-1.9-0.5C156.3,16,156.1,15.5,155.9,14.8z"/>
		<path class="st3" d="M165,15.7l0.2,1c-0.3,0.1-0.6,0.1-0.8,0.1c-0.4,0-0.7-0.1-0.9-0.2s-0.4-0.3-0.5-0.5c-0.1-0.2-0.1-0.6-0.1-1.3
			v-3.7H162v-0.9h0.8V8.6l1.1-0.7v2.3h1.1v0.9h-1.1v3.8c0,0.3,0,0.5,0.1,0.6c0,0.1,0.1,0.2,0.2,0.2c0.1,0.1,0.2,0.1,0.4,0.1
			C164.7,15.8,164.8,15.7,165,15.7z"/>
		<path class="st3" d="M166.1,9V7.8h1.1V9H166.1z M166.1,16.7v-6.5h1.1v6.5H166.1z"/>
		<path class="st3" d="M168.5,13.5c0-1.2,0.3-2.1,1-2.7c0.6-0.5,1.2-0.7,2-0.7c0.9,0,1.6,0.3,2.2,0.9c0.6,0.6,0.8,1.4,0.8,2.4
			c0,0.8-0.1,1.5-0.4,2c-0.3,0.5-0.6,0.8-1.1,1.1s-1,0.4-1.6,0.4c-0.9,0-1.6-0.3-2.2-0.9C168.7,15.4,168.5,14.6,168.5,13.5z
			 M169.6,13.5c0,0.8,0.2,1.5,0.5,1.9s0.8,0.6,1.4,0.6c0.5,0,1-0.2,1.4-0.6c0.4-0.4,0.5-1,0.5-1.9c0-0.8-0.2-1.4-0.5-1.8
			S172,11,171.5,11c-0.5,0-1,0.2-1.4,0.6S169.6,12.6,169.6,13.5z"/>
		<path class="st3" d="M175.8,16.7v-6.5h1v0.9c0.5-0.7,1.2-1.1,2.1-1.1c0.4,0,0.7,0.1,1.1,0.2c0.3,0.1,0.6,0.3,0.7,0.6
			c0.2,0.2,0.3,0.5,0.3,0.8c0,0.2,0.1,0.6,0.1,1.1v4H180v-3.9c0-0.4,0-0.8-0.1-1c-0.1-0.2-0.2-0.4-0.5-0.5c-0.2-0.1-0.5-0.2-0.8-0.2
			c-0.5,0-0.9,0.1-1.2,0.4s-0.5,0.9-0.5,1.7v3.5H175.8z"/>
		<path class="st3" d="M182.3,14.8l1.1-0.2c0.1,0.4,0.2,0.8,0.5,1c0.3,0.2,0.7,0.3,1.2,0.3c0.5,0,0.9-0.1,1.1-0.3
			c0.2-0.2,0.4-0.4,0.4-0.7c0-0.2-0.1-0.4-0.3-0.6c-0.2-0.1-0.5-0.2-1.1-0.4c-0.8-0.2-1.4-0.4-1.7-0.5c-0.3-0.1-0.5-0.4-0.7-0.6
			c-0.2-0.3-0.2-0.6-0.2-0.9c0-0.3,0.1-0.6,0.2-0.8c0.1-0.2,0.3-0.5,0.5-0.6c0.2-0.1,0.4-0.2,0.7-0.3s0.6-0.1,0.9-0.1
			c0.5,0,1,0.1,1.3,0.2c0.4,0.1,0.7,0.3,0.9,0.6c0.2,0.3,0.3,0.6,0.4,1l-1.1,0.1c0-0.3-0.2-0.6-0.4-0.8c-0.2-0.2-0.6-0.3-1-0.3
			c-0.5,0-0.9,0.1-1.1,0.3s-0.3,0.4-0.3,0.6c0,0.1,0,0.3,0.1,0.4c0.1,0.1,0.2,0.2,0.4,0.3c0.1,0,0.4,0.1,1,0.3
			c0.8,0.2,1.3,0.4,1.6,0.5c0.3,0.1,0.5,0.3,0.7,0.6c0.2,0.3,0.3,0.6,0.3,0.9c0,0.4-0.1,0.7-0.3,1c-0.2,0.3-0.5,0.6-0.9,0.8
			c-0.4,0.2-0.9,0.3-1.4,0.3c-0.8,0-1.5-0.2-1.9-0.5C182.7,16,182.5,15.5,182.3,14.8z"/>
	</g>
</g>
<g id="Layer_1">
</g>
</svg>
