<?xml version="1.0" encoding="utf-8"?>
<!-- Generator: Adobe Illustrator 22.0.1, SVG Export Plug-In . SVG Version: 6.00 Build 0)  -->
<svg version="1.1" xmlns="http://www.w3.org/2000/svg" xmlns:xlink="http://www.w3.org/1999/xlink" x="0px" y="0px"
	 viewBox="0 0 220 26" style="enable-background:new 0 0 220 26;" xml:space="preserve">
<style type="text/css">
	.st0{fill:#3D3935;}
	.st1{fill:#BE933C;}
	.st2{fill:#C7C8CB;}
	.st3{fill:#FFFFFF;}
	.st4{fill:none;stroke:#3D3935;stroke-miterlimit:10;}
	.st5{fill:#231F20;}
	.st6{fill:#00A3D8;}
</style>
<g id="bg">
	<rect x="-134.8" y="-1358.6" class="st0" width="865" height="1467"/>
</g>
<g id="Layer_4">
	<path class="st1" d="M210.2,26H9.9C4.4,26,0,21.6,0,16.2V9.8C0,4.4,4.4,0,9.9,0h200.3c5.4,0,9.8,4.4,9.8,9.8v6.3
		C220,21.6,215.6,26,210.2,26z"/>
</g>
<g id="Layer_3">
	<g>
		<path class="st3" d="M30,16.7V7.8h1.2l4.7,7v-7h1.1v8.9h-1.2l-4.7-7v7H30z"/>
		<path class="st3" d="M43.4,14.6l1.1,0.1c-0.2,0.7-0.5,1.2-1,1.5c-0.5,0.4-1.1,0.5-1.9,0.5c-0.9,0-1.7-0.3-2.3-0.9
			c-0.6-0.6-0.8-1.4-0.8-2.5c0-1.1,0.3-1.9,0.8-2.5c0.6-0.6,1.3-0.9,2.2-0.9c0.9,0,1.6,0.3,2.1,0.9c0.5,0.6,0.8,1.4,0.8,2.5
			c0,0.1,0,0.2,0,0.3h-4.8c0,0.7,0.2,1.3,0.6,1.6c0.4,0.4,0.8,0.6,1.4,0.6c0.4,0,0.7-0.1,1-0.3C43,15.4,43.2,15.1,43.4,14.6z
			 M39.8,12.8h3.6c0-0.5-0.2-1-0.4-1.2c-0.4-0.4-0.8-0.6-1.4-0.6c-0.5,0-0.9,0.2-1.3,0.5S39.8,12.3,39.8,12.8z"/>
		<path class="st3" d="M47.1,16.7l-2-6.5h1.1l1,3.7l0.4,1.4c0-0.1,0.1-0.5,0.3-1.3l1-3.8h1.1l1,3.8l0.3,1.2l0.4-1.3l1.1-3.7H54
			l-2,6.5h-1.1l-1-3.9l-0.3-1.1l-1.3,5H47.1z"/>
		<path class="st3" d="M60.6,16.7V8.8h-2.9V7.8h7.1v1.1h-3v7.9H60.6z"/>
		<path class="st3" d="M65.3,16.7v-6.5h1v1c0.3-0.5,0.5-0.8,0.7-0.9c0.2-0.1,0.4-0.2,0.7-0.2c0.4,0,0.7,0.1,1.1,0.4l-0.4,1
			c-0.3-0.2-0.5-0.2-0.8-0.2c-0.2,0-0.5,0.1-0.6,0.2s-0.3,0.3-0.4,0.6c-0.1,0.4-0.2,0.8-0.2,1.3v3.4H65.3z"/>
		<path class="st3" d="M73.9,14.6l1.1,0.1c-0.2,0.7-0.5,1.2-1,1.5c-0.5,0.4-1.1,0.5-1.9,0.5c-0.9,0-1.7-0.3-2.3-0.9
			c-0.6-0.6-0.8-1.4-0.8-2.5c0-1.1,0.3-1.9,0.8-2.5c0.6-0.6,1.3-0.9,2.2-0.9c0.9,0,1.6,0.3,2.1,0.9c0.5,0.6,0.8,1.4,0.8,2.5
			c0,0.1,0,0.2,0,0.3h-4.8c0,0.7,0.2,1.3,0.6,1.6c0.4,0.4,0.8,0.6,1.4,0.6c0.4,0,0.7-0.1,1-0.3C73.5,15.4,73.8,15.1,73.9,14.6z
			 M70.3,12.8H74c0-0.5-0.2-1-0.4-1.2c-0.4-0.4-0.8-0.6-1.4-0.6c-0.5,0-0.9,0.2-1.3,0.5S70.4,12.3,70.3,12.8z"/>
		<path class="st3" d="M80.7,15.9c-0.4,0.3-0.8,0.6-1.2,0.7c-0.4,0.1-0.8,0.2-1.2,0.2c-0.7,0-1.3-0.2-1.6-0.5
			c-0.4-0.3-0.6-0.8-0.6-1.3c0-0.3,0.1-0.6,0.2-0.9c0.1-0.3,0.3-0.5,0.6-0.6c0.2-0.2,0.5-0.3,0.8-0.4c0.2-0.1,0.5-0.1,1-0.2
			c0.9-0.1,1.5-0.2,2-0.4c0-0.2,0-0.2,0-0.3c0-0.4-0.1-0.8-0.3-0.9C80,11.1,79.6,11,79,11c-0.5,0-0.9,0.1-1.1,0.3s-0.4,0.5-0.5,1
			l-1.1-0.1c0.1-0.5,0.3-0.8,0.5-1.1c0.2-0.3,0.5-0.5,1-0.7c0.4-0.2,0.9-0.2,1.5-0.2c0.6,0,1,0.1,1.3,0.2c0.3,0.1,0.6,0.3,0.8,0.5
			s0.3,0.4,0.3,0.7c0,0.2,0.1,0.5,0.1,1V14c0,1,0,1.7,0.1,1.9s0.1,0.5,0.3,0.8h-1.1C80.8,16.5,80.7,16.2,80.7,15.9z M80.6,13.4
			c-0.4,0.2-1,0.3-1.8,0.4c-0.5,0.1-0.8,0.1-1,0.2c-0.2,0.1-0.3,0.2-0.4,0.4c-0.1,0.2-0.2,0.3-0.2,0.5c0,0.3,0.1,0.5,0.3,0.7
			s0.5,0.3,1,0.3c0.4,0,0.8-0.1,1.1-0.3c0.3-0.2,0.6-0.4,0.7-0.8c0.1-0.2,0.2-0.6,0.2-1.1V13.4z"/>
		<path class="st3" d="M85.8,15.7l0.2,1c-0.3,0.1-0.6,0.1-0.8,0.1c-0.4,0-0.7-0.1-0.9-0.2s-0.4-0.3-0.5-0.5
			c-0.1-0.2-0.1-0.6-0.1-1.3v-3.7h-0.8v-0.9h0.8V8.6L84.7,8v2.3h1.1v0.9h-1.1v3.8c0,0.3,0,0.5,0.1,0.6c0,0.1,0.1,0.2,0.2,0.2
			c0.1,0.1,0.2,0.1,0.4,0.1C85.4,15.8,85.6,15.7,85.8,15.7z"/>
		<path class="st3" d="M86.9,16.7v-6.5h1v0.9c0.2-0.3,0.5-0.6,0.8-0.8c0.3-0.2,0.7-0.3,1.2-0.3c0.5,0,0.9,0.1,1.2,0.3
			c0.3,0.2,0.5,0.5,0.6,0.8c0.5-0.8,1.2-1.1,2-1.1c0.6,0,1.1,0.2,1.5,0.5c0.3,0.4,0.5,0.9,0.5,1.6v4.4h-1.1v-4.1
			c0-0.4,0-0.8-0.1-0.9c-0.1-0.2-0.2-0.3-0.4-0.5S93.7,11,93.4,11c-0.5,0-0.8,0.2-1.1,0.5c-0.3,0.3-0.5,0.8-0.5,1.5v3.8h-1.1v-4.2
			c0-0.5-0.1-0.9-0.3-1.1S90,11,89.6,11c-0.3,0-0.6,0.1-0.9,0.2c-0.3,0.2-0.5,0.4-0.6,0.7S88,12.7,88,13.3v3.4H86.9z"/>
		<path class="st3" d="M101.7,14.6l1.1,0.1c-0.2,0.7-0.5,1.2-1,1.5c-0.5,0.4-1.1,0.5-1.9,0.5c-0.9,0-1.7-0.3-2.3-0.9
			c-0.6-0.6-0.8-1.4-0.8-2.5c0-1.1,0.3-1.9,0.8-2.5c0.6-0.6,1.3-0.9,2.2-0.9c0.9,0,1.6,0.3,2.1,0.9c0.5,0.6,0.8,1.4,0.8,2.5
			c0,0.1,0,0.2,0,0.3h-4.8c0,0.7,0.2,1.3,0.6,1.6c0.4,0.4,0.8,0.6,1.4,0.6c0.4,0,0.7-0.1,1-0.3C101.3,15.4,101.6,15.1,101.7,14.6z
			 M98.1,12.8h3.6c0-0.5-0.2-1-0.4-1.2c-0.4-0.4-0.8-0.6-1.4-0.6c-0.5,0-0.9,0.2-1.3,0.5S98.2,12.3,98.1,12.8z"/>
		<path class="st3" d="M104.2,16.7v-6.5h1v0.9c0.5-0.7,1.2-1.1,2.1-1.1c0.4,0,0.7,0.1,1.1,0.2c0.3,0.1,0.6,0.3,0.7,0.6
			c0.2,0.2,0.3,0.5,0.3,0.8c0,0.2,0.1,0.6,0.1,1.1v4h-1.1v-3.9c0-0.4,0-0.8-0.1-1c-0.1-0.2-0.2-0.4-0.5-0.5
			c-0.2-0.1-0.5-0.2-0.8-0.2c-0.5,0-0.9,0.1-1.2,0.4s-0.5,0.9-0.5,1.7v3.5H104.2z"/>
		<path class="st3" d="M113.6,15.7l0.2,1c-0.3,0.1-0.6,0.1-0.8,0.1c-0.4,0-0.7-0.1-0.9-0.2s-0.4-0.3-0.5-0.5
			c-0.1-0.2-0.1-0.6-0.1-1.3v-3.7h-0.8v-0.9h0.8V8.6l1.1-0.7v2.3h1.1v0.9h-1.1v3.8c0,0.3,0,0.5,0.1,0.6c0,0.1,0.1,0.2,0.2,0.2
			c0.1,0.1,0.2,0.1,0.4,0.1C113.2,15.8,113.4,15.7,113.6,15.7z"/>
		<path class="st3" d="M117.9,12.3c0-1.5,0.4-2.6,1.2-3.5c0.8-0.8,1.8-1.3,3.1-1.3c0.8,0,1.6,0.2,2.2,0.6c0.7,0.4,1.2,0.9,1.5,1.7
			c0.3,0.7,0.5,1.5,0.5,2.4c0,0.9-0.2,1.7-0.5,2.4s-0.9,1.3-1.6,1.6s-1.4,0.6-2.2,0.6c-0.8,0-1.6-0.2-2.3-0.6
			c-0.7-0.4-1.2-1-1.5-1.7S117.9,13.1,117.9,12.3z M119.1,12.4c0,1.1,0.3,1.9,0.9,2.5c0.6,0.6,1.3,0.9,2.2,0.9
			c0.9,0,1.6-0.3,2.2-0.9c0.6-0.6,0.9-1.5,0.9-2.7c0-0.7-0.1-1.4-0.4-1.9s-0.6-1-1.1-1.3c-0.5-0.3-1-0.4-1.6-0.4
			c-0.8,0-1.6,0.3-2.2,0.9C119.4,10.1,119.1,11,119.1,12.4z"/>
		<path class="st3" d="M127.9,19.2v-9h1v0.8c0.2-0.3,0.5-0.6,0.8-0.7c0.3-0.2,0.7-0.2,1.1-0.2c0.6,0,1,0.1,1.5,0.4
			c0.4,0.3,0.7,0.7,1,1.2c0.2,0.5,0.3,1.1,0.3,1.7c0,0.7-0.1,1.3-0.4,1.8c-0.2,0.5-0.6,0.9-1,1.2c-0.5,0.3-0.9,0.4-1.4,0.4
			c-0.4,0-0.7-0.1-1-0.2c-0.3-0.2-0.5-0.3-0.7-0.6v3.2H127.9z M128.9,13.5c0,0.8,0.2,1.5,0.5,1.8c0.3,0.4,0.7,0.6,1.2,0.6
			c0.5,0,0.9-0.2,1.3-0.6c0.3-0.4,0.5-1.1,0.5-1.9c0-0.8-0.2-1.4-0.5-1.9c-0.3-0.4-0.7-0.6-1.2-0.6c-0.5,0-0.9,0.2-1.2,0.7
			C129,12,128.9,12.7,128.9,13.5z"/>
		<path class="st3" d="M137.2,15.7l0.2,1c-0.3,0.1-0.6,0.1-0.8,0.1c-0.4,0-0.7-0.1-0.9-0.2s-0.4-0.3-0.5-0.5
			c-0.1-0.2-0.1-0.6-0.1-1.3v-3.7h-0.8v-0.9h0.8V8.6l1.1-0.7v2.3h1.1v0.9h-1.1v3.8c0,0.3,0,0.5,0.1,0.6c0,0.1,0.1,0.2,0.2,0.2
			c0.1,0.1,0.2,0.1,0.4,0.1C136.9,15.8,137,15.7,137.2,15.7z"/>
		<path class="st3" d="M138.3,9V7.8h1.1V9H138.3z M138.3,16.7v-6.5h1.1v6.5H138.3z"/>
		<path class="st3" d="M140.7,13.5c0-1.2,0.3-2.1,1-2.7c0.6-0.5,1.2-0.7,2-0.7c0.9,0,1.6,0.3,2.2,0.9c0.6,0.6,0.8,1.4,0.8,2.4
			c0,0.8-0.1,1.5-0.4,2c-0.3,0.5-0.6,0.8-1.1,1.1s-1,0.4-1.6,0.4c-0.9,0-1.6-0.3-2.2-0.9C140.9,15.4,140.7,14.6,140.7,13.5z
			 M141.8,13.5c0,0.8,0.2,1.5,0.5,1.9s0.8,0.6,1.4,0.6c0.5,0,1-0.2,1.4-0.6c0.4-0.4,0.5-1,0.5-1.9c0-0.8-0.2-1.4-0.5-1.8
			s-0.8-0.6-1.4-0.6c-0.5,0-1,0.2-1.4,0.6S141.8,12.6,141.8,13.5z"/>
		<path class="st3" d="M148,16.7v-6.5h1v0.9c0.5-0.7,1.2-1.1,2.1-1.1c0.4,0,0.7,0.1,1.1,0.2c0.3,0.1,0.6,0.3,0.7,0.6
			c0.2,0.2,0.3,0.5,0.3,0.8c0,0.2,0.1,0.6,0.1,1.1v4h-1.1v-3.9c0-0.4,0-0.8-0.1-1c-0.1-0.2-0.2-0.4-0.5-0.5
			c-0.2-0.1-0.5-0.2-0.8-0.2c-0.5,0-0.9,0.1-1.2,0.4s-0.5,0.9-0.5,1.7v3.5H148z"/>
		<path class="st3" d="M162.8,13.2v-1l3.8,0v3.3c-0.6,0.5-1.2,0.8-1.8,1c-0.6,0.2-1.3,0.4-1.9,0.4c-0.9,0-1.7-0.2-2.4-0.6
			c-0.7-0.4-1.3-0.9-1.6-1.6s-0.5-1.5-0.5-2.4c0-0.9,0.2-1.7,0.5-2.4s0.9-1.3,1.6-1.7s1.5-0.5,2.4-0.5c0.6,0,1.2,0.1,1.8,0.3
			c0.5,0.2,0.9,0.5,1.2,0.9s0.5,0.9,0.7,1.5l-1.1,0.3c-0.1-0.5-0.3-0.8-0.5-1.1S164.4,9,164,8.8c-0.4-0.2-0.8-0.2-1.2-0.2
			c-0.5,0-1,0.1-1.4,0.2s-0.7,0.4-1,0.7c-0.2,0.3-0.4,0.6-0.6,0.9c-0.2,0.6-0.3,1.2-0.3,1.8c0,0.8,0.1,1.5,0.4,2
			c0.3,0.5,0.7,0.9,1.2,1.2c0.5,0.3,1.1,0.4,1.7,0.4c0.5,0,1-0.1,1.5-0.3c0.5-0.2,0.9-0.4,1.1-0.6v-1.7H162.8z"/>
		<path class="st3" d="M172.4,16.7v-1c-0.5,0.7-1.2,1.1-2.1,1.1c-0.4,0-0.7-0.1-1.1-0.2s-0.6-0.3-0.7-0.6c-0.2-0.2-0.3-0.5-0.3-0.8
			c0-0.2-0.1-0.6-0.1-1v-4h1.1v3.6c0,0.6,0,1,0.1,1.2c0.1,0.3,0.2,0.5,0.4,0.7s0.5,0.2,0.8,0.2s0.6-0.1,0.9-0.3s0.5-0.4,0.6-0.7
			s0.2-0.7,0.2-1.3v-3.5h1.1v6.5H172.4z"/>
		<path class="st3" d="M175.1,9V7.8h1.1V9H175.1z M175.1,16.7v-6.5h1.1v6.5H175.1z"/>
		<path class="st3" d="M182.1,16.7v-0.8c-0.4,0.6-1,1-1.8,1c-0.5,0-1-0.1-1.4-0.4c-0.4-0.3-0.8-0.7-1-1.2c-0.2-0.5-0.4-1.1-0.4-1.8
			c0-0.6,0.1-1.2,0.3-1.8c0.2-0.5,0.5-0.9,1-1.2c0.4-0.3,0.9-0.4,1.4-0.4c0.4,0,0.7,0.1,1,0.2c0.3,0.2,0.6,0.4,0.7,0.6V7.8h1.1v8.9
			H182.1z M178.6,13.5c0,0.8,0.2,1.5,0.5,1.9c0.4,0.4,0.8,0.6,1.2,0.6c0.5,0,0.9-0.2,1.2-0.6c0.3-0.4,0.5-1,0.5-1.8
			c0-0.9-0.2-1.5-0.5-2s-0.8-0.6-1.3-0.6c-0.5,0-0.9,0.2-1.2,0.6C178.8,12,178.6,12.6,178.6,13.5z"/>
		<path class="st3" d="M189.3,14.6l1.1,0.1c-0.2,0.7-0.5,1.2-1,1.5c-0.5,0.4-1.1,0.5-1.9,0.5c-0.9,0-1.7-0.3-2.3-0.9
			c-0.6-0.6-0.8-1.4-0.8-2.5c0-1.1,0.3-1.9,0.8-2.5c0.6-0.6,1.3-0.9,2.2-0.9c0.9,0,1.6,0.3,2.1,0.9c0.5,0.6,0.8,1.4,0.8,2.5
			c0,0.1,0,0.2,0,0.3h-4.8c0,0.7,0.2,1.3,0.6,1.6c0.4,0.4,0.8,0.6,1.4,0.6c0.4,0,0.7-0.1,1-0.3C188.9,15.4,189.1,15.1,189.3,14.6z
			 M185.7,12.8h3.6c0-0.5-0.2-1-0.4-1.2c-0.4-0.4-0.8-0.6-1.4-0.6c-0.5,0-0.9,0.2-1.3,0.5S185.7,12.3,185.7,12.8z"/>
	</g>
</g>
<g id="Layer_1">
</g>
</svg>
